<svg width="233" height="64" viewBox="0 0 233 64" fill="none" xmlns="http://www.w3.org/2000/svg">
<g clip-path="url(#clip0_6_155)">
<path d="M71.694 33.1901C72.7533 35.243 72.0488 37.7181 71.3603 39.75C70.5817 42.0246 69.623 44.5947 68.1294 46.4682C66.8635 48.0514 64.9515 47.8931 63.1665 47.492C62.8964 47.4498 62.674 47.3812 62.4515 47.339L62.1814 47.2704C62.139 47.2704 62.0966 47.2704 62.049 47.2229C62.0013 47.1754 62.049 47.2229 62.0066 47.2229C61.5952 48.4777 61.1196 49.7107 60.5818 50.9171C59.7559 52.959 58.7099 54.9055 57.4622 56.7223C56.3021 58.4118 54.9157 59.9353 53.3415 61.2504C53.3123 61.3083 53.2748 61.3616 53.2302 61.4087C53.2302 61.4087 53.1402 61.451 53.1243 61.4087C51.8392 62.4214 50.3619 63.1645 48.7811 63.5936C48.6911 63.5936 48.5799 63.6411 48.4686 63.6622L48.2886 63.7044C48.2786 63.7091 48.2678 63.7116 48.2568 63.7116C48.2458 63.7116 48.2349 63.7091 48.225 63.7044C47.852 63.7099 47.479 63.6958 47.1074 63.6622C47.0845 63.7439 47.0341 63.8152 46.9647 63.8642C46.8952 63.9132 46.811 63.9369 46.7261 63.9314C44.5227 63.9314 42.4094 61.451 43.3416 59.245C43.7018 58.4375 44.814 57.572 45.725 57.6617C45.9278 57.6893 46.1247 57.7499 46.3077 57.8412C46.8373 56.3687 47.7536 54.9861 48.3786 53.5559C48.7811 52.664 49.1095 51.7721 49.4379 50.8591C49.7663 49.9461 50.2854 48.917 50.2589 47.9776C49.8821 48.5758 49.457 49.1424 48.9877 49.6716C47.6776 51.7814 45.9227 53.5822 43.8448 54.9491C41.7738 56.3793 39.1891 57.5878 36.6309 56.7382C34.74 56.089 33.0875 53.9675 34.1839 51.9884C34.9625 50.5582 36.9858 50.2258 37.9444 51.429L38.5218 50.8485C38.5218 50.4685 38.9455 49.9777 39.1256 49.735L39.3268 49.4658C38.4317 49.5555 37.5684 49.6189 36.6786 49.6452C34.8512 49.6875 32.8968 49.6452 31.2019 48.7745C31.1752 48.763 31.1511 48.7464 31.1309 48.7255C31.1108 48.7046 31.095 48.6799 31.0847 48.6528C31.0743 48.6257 31.0695 48.5968 31.0705 48.5679C31.0716 48.5389 31.0784 48.5105 31.0907 48.4842C30.7554 48.397 30.4135 48.337 30.0685 48.3048C30.046 48.3534 30.0155 48.398 29.9784 48.4367C28.3895 50.1097 25.3228 48.1517 23.7656 47.3812C22.5845 46.8007 20.9796 46.3257 20.0209 45.3705C19.2212 44.5683 19.1311 43.4073 18.5326 42.5154C18.485 42.4468 18.5326 42.3834 18.6227 42.3834C18.4097 42.0754 18.3278 41.6959 18.3949 41.3279C18.4405 41.2082 18.4638 41.0813 18.4638 40.9532C18.1089 40.5944 17.7752 40.2144 17.4415 39.8608C16.6041 38.9853 15.9121 37.9823 15.3918 36.8896C14.9111 35.8154 14.6673 34.6511 14.6767 33.475C14.6767 31.8443 15.2064 30.3086 14.8092 28.6989C14.8092 28.6514 14.8568 28.6514 14.8568 28.6989C14.88 28.1596 15.0644 27.6395 15.3865 27.2054C13.3049 24.8041 14.7032 21.0255 16.1333 18.7245C18.0718 15.6055 21.3186 14.017 23.8397 11.4732C23.8697 11.4398 23.9089 11.416 23.9524 11.4047C23.9959 11.3934 24.0418 11.3953 24.0843 11.4099C24.1267 11.4246 24.1639 11.4515 24.1911 11.4872C24.2183 11.5228 24.2342 11.5657 24.237 11.6104C24.6395 11.3413 25.1056 11.0827 25.5293 10.7397C25.773 8.72894 29.4912 8.03759 30.9636 7.70511C33.2782 7.1457 36.1065 6.96626 37.955 8.76061C38.2913 8.8404 38.6373 8.87238 38.9825 8.8556C38.9518 8.77619 38.9408 8.69053 38.9504 8.60595C38.9601 8.52137 38.9901 8.44037 39.038 8.36986C39.0858 8.29936 39.1501 8.24143 39.2253 8.20103C39.3005 8.16064 39.3844 8.13896 39.4698 8.13786C42.2367 8.19159 44.9284 9.04406 47.2187 10.5919C48.4054 11.3876 49.5091 12.2999 50.5131 13.3151C51.6254 14.4075 52.4305 15.7058 53.4527 16.8668V16.9301C53.6664 17.2158 53.8576 17.5176 54.0247 17.8326C54.0936 17.9012 54.1624 17.9487 54.226 18.012C54.5948 16.3868 55.3519 14.8743 56.4331 13.6032C57.5143 12.3321 58.8875 11.3398 60.4361 10.7108C61.9846 10.0819 63.6627 9.83476 65.3276 9.99051C66.9926 10.1463 68.5951 10.7003 69.9991 11.6054C71.4031 12.5106 72.567 13.7402 73.3919 15.1896C74.2167 16.6391 74.6781 18.2655 74.7369 19.9307C74.7956 21.596 74.45 23.2507 73.7293 24.7543C73.0087 26.2578 71.9343 27.5658 70.5976 28.567C70.2692 29.4765 69.6589 30.2583 68.855 30.7994C70.0687 31.2135 71.0819 32.0667 71.694 33.1901Z" fill="#B5C6DA"/>
<path d="M56.6835 22.9465C56.906 23.5692 57.0861 24.2183 57.3085 24.8411C57.7958 26.2502 58.9346 27.2318 60.2958 27.9495C60.4759 28.0392 60.3382 28.3295 60.1634 28.2662C59.3756 28.024 58.6369 27.6453 57.9812 27.1473C58.0659 27.2793 58.1772 27.3743 58.2672 27.5484C58.3572 27.7226 58.5373 27.8756 58.6697 28.0762C59.5925 28.7521 60.6242 29.2661 61.7205 29.5961C68.177 27.7015 67.6898 18.7298 67.0648 14.5078L66.8635 14.4444C63.8339 13.4628 60.3382 13.4364 57.2026 13.7953C55.9679 15.1757 55.154 16.8783 54.8562 18.7034C54.9886 18.925 55.1264 19.1731 55.2588 19.4158C55.2484 19.3194 55.2484 19.2221 55.2588 19.1256C55.4389 17.9223 56.1274 17.0937 56.816 16.1385C56.8848 16.0277 57.0172 16.1174 56.9748 16.2282C56.5198 17.066 56.1965 17.9684 56.0162 18.9039C55.9325 19.5777 55.9847 20.2613 56.1698 20.9146C56.2174 20.8249 56.2174 20.751 56.2174 20.6666C56.2174 20.5822 56.3287 20.6033 56.3287 20.6666C56.3821 21.4352 56.5008 22.1979 56.6835 22.9465Z" fill="#7091B2"/>
<path d="M57.8646 13.0618C57.7322 13.1726 57.621 13.2834 57.4833 13.4154C59.168 13.0639 60.8949 12.9573 62.6103 13.0987C64.4368 13.1201 66.2454 13.4595 67.9545 14.1014C70.0467 14.9564 72.5625 16.318 73.9184 18.3234C73.8587 18.0384 73.7844 17.7566 73.696 17.479C73.2577 16.7897 72.7597 16.1398 72.2077 15.5369C71.419 14.8883 70.5416 14.3552 69.6018 13.9537C69.5541 13.9062 69.5806 13.8165 69.6441 13.8429C70.8102 14.2297 71.9024 14.8095 72.875 15.558C72.2275 14.3856 71.3424 13.3601 70.2759 12.5467C69.2094 11.7333 67.9848 11.1498 66.6798 10.8332C65.3749 10.5165 64.0181 10.4738 62.6957 10.7075C61.3733 10.9413 60.1141 11.4464 58.9981 12.191L59.7131 12.1224C60.6222 11.9493 61.5615 12.0259 62.4302 12.344C62.4938 12.3652 62.4726 12.5024 62.3826 12.476C61.1379 12.0063 59.0669 12.534 57.8646 13.0618Z" fill="white"/>
<path d="M48.7811 63.6042C48.691 63.6042 48.5798 63.6517 48.4686 63.6728C48.5798 63.6517 48.691 63.6306 48.7811 63.6042Z" fill="white"/>
<path d="M63.14 47.4973C63.1239 47.4946 63.1079 47.4917 63.092 47.4887C62.848 47.444 62.6391 47.3988 62.4302 47.3443C62.6578 47.3837 62.8669 47.4462 63.092 47.4887C63.1078 47.4916 63.1238 47.4944 63.14 47.4973Z" fill="white"/>
<path d="M62.0065 47.2018H62.0489C62.0351 47.1977 62.0203 47.1977 62.0065 47.2018Z" fill="white"/>
<path d="M39.0249 8.83979C38.9952 8.76066 38.985 8.67558 38.9952 8.59171C39.0053 8.50783 39.0356 8.42762 39.0833 8.35781C39.1311 8.288 39.1949 8.23062 39.2696 8.19052C39.3442 8.15041 39.4274 8.12874 39.5122 8.12733C42.2804 8.18275 44.9733 9.03503 47.2663 10.5814C48.453 11.3771 49.5567 12.2894 50.5607 13.3045C51.673 14.397 52.4728 15.69 53.5003 16.851C53.5003 16.8774 53.5003 16.9196 53.5003 16.9196C52.5469 15.8958 51.3817 15.0883 50.3595 14.1542C49.3456 13.2576 48.2675 12.4356 47.1339 11.6949C44.9052 10.1748 42.2859 9.32313 39.5863 9.24088C39.46 9.25203 39.334 9.21769 39.2309 9.14409C39.1279 9.0705 39.0548 8.96253 39.0249 8.83979ZM25.5505 11.0827C25.5499 11.1441 25.5675 11.2043 25.6011 11.2557C25.6348 11.3072 25.6829 11.3476 25.7395 11.3718C25.7961 11.3961 25.8587 11.4031 25.9193 11.392C25.9799 11.381 26.0358 11.3523 26.0801 11.3097C26.774 10.7133 27.2242 10.0272 28.0716 9.55225C29.0741 9.09879 30.119 8.74524 31.1913 8.49676C33.5112 7.86874 35.847 7.6207 37.9179 9.02451C38.0291 9.09311 38.1615 8.93479 38.0503 8.84507L37.9603 8.76063C36.1118 6.95046 33.2834 7.12989 30.9688 7.70514C29.4964 8.064 25.7835 8.73424 25.5346 10.7397L25.5505 11.0827ZM16.0167 26.6143C14.592 23.9756 16.3027 20.3236 17.9553 18.1704C19.7773 15.8272 22.2984 14.1067 24.1893 11.8374C24.2301 11.778 24.2539 11.7087 24.2581 11.6369C24.254 11.5922 24.2371 11.5497 24.2093 11.5145C24.1815 11.4793 24.144 11.4528 24.1015 11.4383C24.0589 11.4238 24.0131 11.4219 23.9694 11.4327C23.9258 11.4436 23.8863 11.4669 23.8556 11.4996C21.3397 14.0223 18.0877 15.6055 16.1491 18.7298C14.7244 21.0308 13.3208 24.7989 15.3917 27.0999C15.7307 27.4429 16.2657 26.9838 16.0432 26.6038L16.0167 26.6143ZM20.8525 41.5338C20.2539 40.5944 19.3376 39.9505 18.5802 39.1695C17.7097 38.3045 16.9678 37.3199 16.3769 36.2457C15.1534 33.8814 15.7095 31.0685 14.9044 28.5881C14.9044 28.5459 14.8409 28.5881 14.8621 28.5881C15.2434 30.2136 14.7508 31.7546 14.7297 33.3642C14.7188 34.5399 14.9609 35.7041 15.4394 36.7788C15.9619 37.874 16.6496 38.8832 17.4786 39.7711C17.8122 40.13 18.1459 40.51 18.5061 40.8635C19.0098 41.3883 19.5967 41.827 20.2434 42.1618C20.6565 42.3149 21.1173 41.9349 20.8525 41.5338ZM29.6606 47.6293C28.6893 47.9181 27.6513 47.8941 26.6945 47.5607C25.5399 47.1385 24.4488 46.5579 23.3365 46.046C22.309 45.5711 20.9743 45.2175 20.2169 44.3467C19.6872 43.7239 19.3059 42.9429 18.7497 42.3149C18.7233 42.3149 18.7233 42.3149 18.7021 42.3149C18.6809 42.3149 18.5696 42.3835 18.612 42.4468C19.2158 43.344 19.3059 44.4997 20.1056 45.3072C21.0643 46.2624 22.6427 46.7321 23.8503 47.3126C25.4075 48.0726 28.4795 50.0358 30.0631 48.3681C30.0978 48.3286 30.1264 48.2841 30.1479 48.2362C30.1848 48.1631 30.1999 48.0809 30.1914 47.9995C30.1828 47.9181 30.151 47.8409 30.0997 47.7769C30.0484 47.713 29.9797 47.6651 29.9019 47.639C29.824 47.6128 29.7403 47.6094 29.6606 47.6293ZM38.6117 50.9277C38.9666 50.9752 39.438 50.4369 39.6711 50.2152C40.0877 49.9353 40.4622 49.5976 40.7833 49.2125C41.2071 49.1439 41.6308 49.0806 42.0545 48.9909C43.7912 48.6522 45.4652 48.0488 47.0173 47.2018C47.778 46.7487 48.5007 46.2351 49.1783 45.6661C49.3584 45.5077 49.5544 45.3758 49.7345 45.2386C50.9845 45.5288 52.2503 45.7294 53.5003 46.0196L54.5914 46.2888C56.1274 46.711 57.907 47.1385 59.2894 47.9829C59.3371 47.9829 59.3795 47.9406 59.3371 47.8932C56.7106 46.2257 53.7808 45.0888 50.7143 44.5472C50.9405 44.3849 51.1563 44.2086 51.3605 44.0195C51.4166 43.965 51.4571 43.8965 51.4777 43.8212C51.4984 43.7459 51.4984 43.6664 51.4779 43.5911C51.4574 43.5157 51.417 43.4472 51.361 43.3926C51.305 43.3381 51.2353 43.2994 51.1592 43.2806C51.0795 43.2586 50.9953 43.2586 50.9156 43.2806C49.4485 43.5234 48.225 45.0011 47.0173 45.8033C45.5583 46.7398 43.9445 47.4116 42.2505 47.7876C38.8183 48.6162 34.8777 48.9961 31.4032 48.2784C31.3421 48.2714 31.2805 48.2854 31.2285 48.318C31.1765 48.3507 31.1372 48.4 31.1171 48.4578C31.1032 48.4838 31.0951 48.5125 31.0932 48.5419C31.0913 48.5713 31.0958 48.6007 31.1064 48.6282C31.1169 48.6557 31.1333 48.6807 31.1543 48.7014C31.1754 48.722 31.2006 48.738 31.2284 48.7481C32.9233 49.6083 34.883 49.6558 36.7315 49.6083C37.6167 49.5932 38.5006 49.5333 39.3797 49.4289L39.1785 49.698C39.0037 49.9408 38.58 50.458 38.58 50.8116C38.5916 50.8493 38.5988 50.8883 38.6012 50.9277H38.6117ZM46.8743 63.1398C45.4919 62.8231 43.8924 61.6885 44.2261 60.0102C44.4273 59.0972 45.4019 58.3637 46.297 58.7384C46.9355 59.0793 47.4809 59.5702 47.886 60.1686C48.0661 60.3691 48.3574 60.0789 48.1773 59.8783C47.7959 59.435 47.3775 58.7648 46.8849 58.2951C47.9972 56.9124 48.6222 54.9439 49.2472 53.292C49.8722 51.6402 50.7832 49.7667 50.4919 47.9829C50.4867 47.9608 50.4742 47.9412 50.4564 47.9272C50.4386 47.9131 50.4166 47.9054 50.3939 47.9054C50.3712 47.9054 50.3492 47.9131 50.3314 47.9272C50.3136 47.9412 50.3011 47.9608 50.2959 47.9829C50.2959 48.9223 49.7663 49.9936 49.4697 50.8644C49.173 51.7352 48.7811 52.6693 48.4103 53.5664C47.7854 54.9914 46.8214 56.3741 46.3394 57.8465C46.159 57.7545 45.9634 57.6955 45.7621 57.6723C44.8458 57.5773 43.7335 58.427 43.3786 59.2556C42.4411 61.4616 44.5598 63.942 46.7631 63.942C46.8458 63.9404 46.926 63.9138 46.9932 63.8657C47.0604 63.8177 47.1113 63.7504 47.1392 63.6728C47.1625 63.6202 47.1737 63.5631 47.172 63.5057C47.1703 63.4482 47.1557 63.3918 47.1293 63.3407C47.1029 63.2896 47.0653 63.245 47.0194 63.2103C46.9734 63.1755 46.9203 63.1514 46.8638 63.1398H46.8743ZM49.4326 48.9434C48.9236 49.6356 48.3585 50.2852 47.743 50.8855C47.7224 50.5212 47.6074 50.1685 47.4093 49.8617C47.1817 49.5392 46.8512 49.303 46.4718 49.1914C46.4548 49.186 46.4363 49.1869 46.4199 49.194C46.4035 49.201 46.3902 49.2138 46.3824 49.2298C46.3747 49.2459 46.373 49.2642 46.3778 49.2814C46.3825 49.2986 46.3933 49.3135 46.4082 49.3233C46.6778 49.5231 46.8925 49.7875 47.0323 50.0919C47.1721 50.3964 47.2325 50.731 47.208 51.0649C47.2176 51.1391 47.2489 51.2089 47.2981 51.2655C46.6731 51.7932 46.0269 52.321 45.3595 52.8487C45.2409 52.2711 44.9888 51.7291 44.6233 51.2655C44.1428 50.6616 43.5132 50.1924 42.796 49.9039C42.7325 49.9039 42.6636 49.9725 42.7325 50.0147C43.3854 50.4327 43.9299 50.9988 44.3214 51.6665C44.5122 51.9737 44.6634 52.3035 44.7716 52.6482C44.8352 52.8487 44.8564 53.007 44.9252 53.1759C43.9725 53.9035 42.9669 54.5597 41.9168 55.1391C41.7338 54.3864 41.3703 53.6892 40.8575 53.1073C40.8151 53.0387 40.7039 53.1073 40.7463 53.197C41.1334 53.8744 41.3514 54.6346 41.3818 55.4136C41.3395 55.4136 41.2706 55.4611 41.2282 55.4822C39.5386 56.221 37.3565 56.4849 35.8417 55.213C35.4377 54.9091 35.1332 54.4928 34.9663 54.0166C34.7995 53.5404 34.7779 53.0257 34.9042 52.5373C34.9304 52.4972 34.9483 52.4524 34.9571 52.4054C35.0547 52.1235 35.236 51.8778 35.4768 51.7007C35.7176 51.5237 36.0068 51.4237 36.3059 51.414C36.605 51.4042 36.9001 51.4852 37.152 51.6463C37.4039 51.8073 37.6008 52.0407 37.7166 52.3157C37.8914 52.6957 38.5164 52.4265 38.384 52.0254C38.2977 51.7732 38.1688 51.5376 38.0026 51.3288C37.0493 50.1255 34.9995 50.4633 34.2421 51.8882C33.151 53.8989 34.7718 56.0205 36.6891 56.6643C39.2526 57.5351 41.8162 56.3055 43.903 54.8805C45.9728 53.5061 47.7259 51.709 49.0459 49.6083C49.1937 49.3982 49.3197 49.1736 49.422 48.9381L49.4326 48.9434ZM63.5955 42.6104C64.1917 41.8514 64.7349 41.0526 65.2215 40.2197C65.5817 39.6181 65.9366 39.0375 66.2809 38.457C66.8847 37.4332 67.3719 36.4305 67.1283 35.2008C67.1242 35.1865 67.1155 35.1739 67.1036 35.1649C67.0916 35.1559 67.0771 35.151 67.0621 35.151C67.0471 35.151 67.0326 35.1559 67.0206 35.1649C67.0087 35.1739 67 35.1865 66.9959 35.2008C66.0584 37.7657 64.2099 39.7289 63.0288 42.1618C63.0078 42.212 62.997 42.2658 62.997 42.3201C62.997 42.3745 63.0078 42.4283 63.0288 42.4785C63.0976 42.6737 63.389 42.832 63.5849 42.584L63.5955 42.6104ZM71.7045 33.2165C72.7638 35.2694 72.0594 37.7446 71.3708 39.7764C70.5922 42.051 69.6336 44.6211 68.1399 46.4946C66.8741 48.0779 64.962 47.9195 63.1771 47.5184C62.9334 47.4762 62.7057 47.4076 62.4621 47.3654L62.1919 47.2968C62.1496 47.2968 62.1072 47.2968 62.0595 47.2493C61.6481 48.5041 61.1726 49.7371 60.6348 50.9435C59.8089 52.9854 58.7628 54.9319 57.5151 56.7488C56.3554 58.4368 54.9709 59.9601 53.3997 61.2768C53.3668 61.3324 53.3296 61.3853 53.2885 61.4352C53.2885 61.4352 53.1984 61.4774 53.1719 61.4352C51.8881 62.4498 50.4104 63.1932 48.8288 63.62C48.7276 63.6482 48.6251 63.6711 48.5216 63.6886L48.3415 63.7309C48.3193 63.7394 48.2948 63.7394 48.2726 63.7309C48.2584 63.7206 48.2468 63.7071 48.2388 63.6915C48.2309 63.6759 48.2267 63.6587 48.2267 63.6412C48.2267 63.6236 48.2309 63.6064 48.2388 63.5908C48.2468 63.5752 48.2584 63.5617 48.2726 63.5514C49.874 62.5865 51.4018 61.5052 52.8435 60.3163C52.8105 60.2288 52.764 60.1469 52.7058 60.0736C52.4018 59.5896 52.0187 59.1597 51.5724 58.8017C51.5724 58.8017 51.5724 58.7331 51.6147 58.7542C52.1904 59.078 52.6976 59.51 53.1084 60.0261C53.1084 60.0261 53.1084 60.0261 53.1084 60.0736C54.1239 59.1994 55.0501 58.2271 55.8732 57.171C54.8672 55.7378 53.4884 54.6048 51.8849 53.8936C51.7948 53.8461 51.8372 53.7142 51.9272 53.7564C53.6346 54.2795 55.1325 55.3268 56.2068 56.7488L56.8742 55.8094C57.3165 55.1461 57.7249 54.4609 58.0977 53.7564C56.6356 52.2877 54.8075 51.233 52.8012 50.7008C52.7857 50.7008 52.7709 50.6947 52.76 50.6838C52.749 50.6729 52.7429 50.6581 52.7429 50.6427C52.7429 50.6273 52.749 50.6126 52.76 50.6017C52.7709 50.5908 52.7857 50.5847 52.8012 50.5847C54.9097 50.8025 56.8852 51.7143 58.4155 53.1759C58.9528 52.1046 59.4319 51.0053 59.8509 49.8828C60.5871 47.9829 61.032 45.951 61.9006 44.125C61.9328 44.0735 61.9753 44.0291 62.0254 43.9946C62.0755 43.9601 62.1322 43.9363 62.1919 43.9245C62.2499 43.9153 62.3091 43.9187 62.3655 43.9347C62.422 43.9507 62.4742 43.9788 62.5186 44.017C62.563 44.0552 62.5985 44.1026 62.6226 44.1559C62.6467 44.2092 62.6588 44.2671 62.658 44.3256C62.5695 45.0387 62.4278 45.7443 62.2343 46.4366C62.2868 46.4263 62.3407 46.4263 62.3932 46.4366C63.2014 46.687 64.0261 46.881 64.8614 47.0171C64.9 46.9442 64.9641 46.8879 65.0415 46.8588C65.8889 46.616 66.4874 45.2755 66.89 44.5367C66.9588 44.4047 67.0224 44.2939 67.0912 44.1567C67.4037 43.5814 67.6686 42.9745 67.9387 42.3518C68.5584 40.8583 69.2257 39.3172 69.7183 37.7762C69.1887 39.6972 68.7861 41.5918 67.981 43.4231L67.9175 43.5551C67.4726 44.6106 66.7999 46.2994 65.7989 47.0382C66.9111 46.9907 67.5785 46.1885 68.1346 45.2755C68.5231 44.6244 68.8767 43.9532 69.194 43.2648C69.7236 42.1724 70.1738 41.0377 70.5975 39.8978C71.2437 38.0665 72.0011 35.9449 71.4238 34.0081C71.3761 33.8709 71.3338 33.7601 71.2861 33.6281C70.945 32.7944 70.3552 32.0852 69.5965 31.5963C69.5052 31.5335 69.4076 31.4805 69.3052 31.438C69.5592 31.7486 69.7911 32.0766 69.999 32.4196C70.1311 32.6468 70.2428 32.8852 70.3327 33.132C70.5463 34.0108 70.4759 34.9343 70.1314 35.7708H70.0838C70.206 34.9226 70.1225 34.0575 69.8401 33.2481C69.8401 33.2481 69.8401 33.1848 69.7978 33.1373C69.4641 32.446 68.7384 31.3324 67.9281 31.1952C67.376 31.4419 66.7907 31.6073 66.1908 31.686C66.6197 32.1155 66.9599 32.6247 67.1919 33.1848C67.279 33.4018 67.3464 33.6261 67.3931 33.8551C67.4107 33.925 67.3996 33.9991 67.3624 34.061C67.3251 34.1228 67.2647 34.1674 67.1945 34.1849C67.1243 34.2024 67.0499 34.1914 66.9879 34.1543C66.9258 34.1171 66.881 34.057 66.8635 33.987C66.8026 33.753 66.7118 33.5277 66.5934 33.3167C66.3089 32.8185 65.9228 32.3852 65.4599 32.0449C65.5495 32.4093 65.594 32.7832 65.5923 33.1584C65.5499 35.1691 64.2099 37.4701 62.3667 37.2221C62.2979 37.2221 62.2555 37.0901 62.3667 37.0901C62.9844 36.9428 63.5498 36.6298 64.0017 36.1851C64.4535 35.7405 64.7747 35.1811 64.9302 34.5675C65.2215 33.5859 65.2215 32.2032 64.4853 31.401C63.8055 31.0577 63.0966 30.7752 62.3667 30.5566C60.9354 30.1602 59.4648 29.9213 57.9812 29.8442C57.9216 30.7762 57.4975 31.6478 56.8001 32.2718C56.7365 32.3404 56.6253 32.2718 56.6888 32.161C57.1938 31.4751 57.5015 30.665 57.5786 29.8178C57.2238 29.7756 56.8477 29.7492 56.5193 29.707C56.0106 29.6496 55.505 29.5668 55.0045 29.4589C54.9329 29.7768 54.8036 30.0791 54.6232 30.3508C54.4471 30.6731 54.1897 30.9442 53.8764 31.1371C53.8764 31.1371 53.8128 31.1371 53.834 31.0949C54.0088 30.8047 54.1889 30.488 54.3636 30.1766C54.5384 29.8653 54.5384 29.6172 54.6497 29.3745C52.6264 28.8837 50.7779 27.8809 49.6868 25.981C49.677 25.9656 49.6709 25.9481 49.6689 25.9299C49.6668 25.9117 49.6689 25.8933 49.675 25.876C49.6812 25.8588 49.6911 25.8431 49.7042 25.8302C49.7172 25.8173 49.733 25.8076 49.7504 25.8016C49.798 25.8016 49.8404 25.8016 49.8828 25.8491C51.3976 28.2134 54.1624 28.7042 56.853 28.947C56.7291 27.3768 56.5008 25.8165 56.1698 24.2764C55.8959 23.4517 55.6731 22.611 55.5024 21.7591C55.37 21.3316 55.2111 20.9305 55.0575 20.5083C54.7026 19.5953 54.0988 18.6559 53.9452 17.6743C53.9876 17.7165 54.0353 17.7376 54.0776 17.7851C54.12 17.8326 54.2153 17.896 54.2789 17.9646C54.6488 16.3412 55.4066 14.8307 56.4877 13.5615C57.5688 12.2923 58.9414 11.3018 60.4888 10.6743C62.0363 10.0467 63.7129 9.80053 65.3763 9.9567C67.0397 10.1129 68.6406 10.6668 70.0432 11.5713C71.4458 12.4759 72.6085 13.7043 73.4327 15.1524C74.2568 16.6005 74.7181 18.2254 74.7771 19.8891C74.8362 21.5528 74.4915 23.2061 73.7721 24.7086C73.0528 26.2111 71.9801 27.5184 70.6452 28.5195C70.3193 29.4274 69.7129 30.2089 68.9132 30.7519C70.0891 31.2296 71.0689 32.0887 71.6939 33.1901L71.7045 33.2165ZM56.6729 22.9465C56.8742 23.5692 57.0755 24.2184 57.2979 24.8411C57.8451 26.2139 58.8907 27.3311 60.2269 27.9707C60.4017 28.0604 60.2693 28.3506 60.0945 28.282C59.3049 28.0429 58.5642 27.6659 57.907 27.1685C57.9971 27.3004 58.1083 27.4376 58.1983 27.5696C58.3412 27.7374 58.4739 27.9136 58.5956 28.0973C59.5204 28.7581 60.555 29.2512 61.6517 29.5539H61.6941C61.8892 29.5944 62.0819 29.6455 62.2714 29.707C62.9663 29.8648 63.6773 29.9409 64.39 29.9339C66.9706 29.9199 69.4407 28.8883 71.2601 27.0646C73.0794 25.2409 74.1 22.7736 74.0985 20.2022V19.9331C73.4137 18.5386 72.3253 17.3805 70.9736 16.6082C69.7323 15.7411 68.3872 15.0319 66.9694 14.4973L66.7681 14.4339C63.7385 13.4523 60.264 13.4259 57.102 13.7848C55.875 15.1614 55.0635 16.8555 54.7609 18.6717C54.9174 18.896 55.0522 19.1346 55.1634 19.3842C55.1634 19.2998 55.1634 19.1837 55.1634 19.0939C55.3382 17.8907 56.0268 17.0463 56.7206 16.1069C56.7842 16.0172 56.9431 16.1069 56.8742 16.1966C56.4394 17.0432 56.1171 17.9427 55.9155 18.8723C55.8329 19.5464 55.8869 20.2301 56.0744 20.883C56.0744 20.7933 56.0744 20.7247 56.1168 20.635C56.1205 20.6231 56.1279 20.6128 56.1379 20.6055C56.1479 20.5982 56.16 20.5942 56.1724 20.5942C56.1848 20.5942 56.1969 20.5982 56.2069 20.6055C56.2169 20.6128 56.2243 20.6231 56.228 20.635C56.371 21.4266 56.5087 22.1654 56.6729 22.9465ZM57.4727 13.4154C59.1498 13.0735 60.8649 12.9546 62.5733 13.0618C64.4022 13.0569 66.2156 13.3971 67.9175 14.0645C70.0361 14.9353 72.5308 16.2969 73.8867 18.2865C73.8231 17.9962 73.7543 17.7271 73.6642 17.4368C73.224 16.749 72.7242 16.1009 72.1706 15.5C71.3773 14.8608 70.5029 14.3284 69.57 13.9167C69.5012 13.9167 69.5435 13.7848 69.6124 13.8059C70.7827 14.1851 71.8766 14.7675 72.8433 15.5264C72.1975 14.3537 71.3142 13.3276 70.2494 12.5131C69.1845 11.6986 67.9614 11.1135 66.6576 10.7949C65.3538 10.4764 63.9978 10.4313 62.6756 10.6625C61.3534 10.8937 60.0939 11.3963 58.9769 12.1382L59.692 12.0749C60.6016 11.9113 61.5383 11.9877 62.4091 12.2965C62.4178 12.2997 62.4258 12.3045 62.4326 12.3107C62.4394 12.3168 62.445 12.3243 62.4489 12.3327C62.4529 12.341 62.4551 12.35 62.4555 12.3592C62.456 12.3684 62.4546 12.3776 62.4515 12.3863C62.4483 12.3949 62.4435 12.4029 62.4373 12.4097C62.4311 12.4165 62.4236 12.422 62.4152 12.426C62.4069 12.4299 62.3978 12.4321 62.3886 12.4325C62.3793 12.433 62.3701 12.4316 62.3614 12.4285C61.0955 11.9588 59.0458 12.4707 57.8435 13.009C57.7443 13.1615 57.6229 13.2985 57.4833 13.4154H57.4727ZM65.068 30.8891C66.0266 31.3377 67.9652 30.5777 68.7755 30.0394C69.1527 29.7778 69.4898 29.4631 69.7766 29.1053C68.2234 30.0584 66.4416 30.5779 64.6177 30.6094C64.7502 30.678 64.8879 30.7677 65.0203 30.8363L65.068 30.8891ZM70.6823 26.4032C72.7532 24.2606 72.3984 20.9358 71.8846 18.3023C71.8846 18.2337 71.7734 18.2601 71.7734 18.3023C71.8415 19.6444 71.7741 20.9899 71.5721 22.3185C71.3108 23.6121 70.8517 24.858 70.2109 26.0127C70.161 26.0764 70.1386 26.1572 70.1485 26.2374C70.1585 26.3175 70.1999 26.3905 70.2639 26.4402C70.3278 26.4899 70.4089 26.5122 70.4893 26.5023C70.5698 26.4924 70.643 26.4511 70.6929 26.3874L70.6823 26.4032ZM68.7226 28.2345C69.0086 28.2345 69.2522 27.9232 69.4535 27.7068C69.6382 27.4621 69.7929 27.1964 69.9143 26.9152C69.9143 26.8729 69.9143 26.8518 69.8719 26.8729C69.6569 27.0691 69.4247 27.2457 69.1781 27.4007C69.0801 27.4767 68.9756 27.5439 68.8656 27.6012C68.7332 27.691 68.6007 27.7385 68.5319 27.8704C68.5124 27.9068 68.5023 27.9475 68.5026 27.9888C68.5028 28.0301 68.5135 28.0707 68.5335 28.1068C68.5534 28.143 68.5822 28.1736 68.617 28.1959C68.6519 28.2182 68.6918 28.2315 68.7332 28.2345H68.7226ZM48.8447 24.7303C48.7394 24.6454 48.6113 24.5935 48.4764 24.5813C48.3416 24.5691 48.2061 24.597 48.0873 24.6617C47.9848 24.7113 47.9011 24.7925 47.8486 24.8933C47.7961 24.9941 47.7776 25.109 47.7959 25.2211C46.9962 24.8886 46.064 25.0205 45.8415 26.0919C45.7126 26.7575 45.8056 27.447 46.1063 28.0551C46.4612 28.7464 47.065 28.947 47.6953 29.2161C47.7053 29.2205 47.7162 29.2228 47.7271 29.2228C47.738 29.2228 47.7488 29.2205 47.7589 29.2161C47.9077 29.8069 48.2485 30.332 48.7281 30.7097C48.9897 31.1739 49.2798 31.6216 49.5968 32.0502C50.2697 32.9213 50.9986 33.7481 51.7789 34.5253C52.5461 35.3447 53.3729 36.1067 54.2524 36.8052C53.7961 37.7049 53.3963 38.632 53.0554 39.5811C52.6174 40.4359 52.2335 41.3172 51.9061 42.2199C51.8964 42.249 51.8964 42.2804 51.9061 42.3096C51.9537 42.3782 52.0173 42.4204 52.0861 42.3571C52.4414 42.0823 52.7632 41.767 53.0448 41.4177C55.1662 41.5283 57.2322 42.132 59.0776 43.1804C59.1252 43.1804 59.1464 43.1381 59.1252 43.1118C58.0602 42.3952 56.9156 41.8037 55.7143 41.3491C55.0193 41.0503 54.284 40.8547 53.5321 40.7686C53.7122 40.4994 53.887 40.2091 54.0617 39.9453C54.3437 39.4773 54.5966 38.9927 54.8191 38.494C54.8191 38.494 54.8615 38.5415 54.888 38.5415C55.2063 38.7795 55.5652 38.9583 55.9473 39.0692C55.9646 39.0729 55.9826 39.0708 55.9985 39.0632C56.0144 39.0556 56.0273 39.043 56.0352 39.0272C56.0431 39.0115 56.0455 38.9936 56.0421 38.9764C56.0386 38.9591 56.0295 38.9435 56.0162 38.932C55.7393 38.7017 55.5306 38.4007 55.4124 38.0612C55.3488 37.9082 55.3011 37.7287 55.2376 37.5915C56.5511 38.5731 59.0246 37.6812 60.1104 36.8579C60.2004 36.7893 60.1581 36.6152 60.0256 36.6574C59.225 36.9556 58.3842 37.1335 57.531 37.1851C57.4795 37.1604 57.4265 37.1392 57.3721 37.1218C57.6201 37.0934 57.8574 37.005 58.0633 36.8642C58.2692 36.7235 58.4374 36.5347 58.5532 36.3144C58.5521 36.3035 58.5472 36.2935 58.5395 36.2858C58.5318 36.2781 58.5217 36.2733 58.5108 36.2721C57.5733 36.8527 56.6835 36.631 55.7037 36.4727C54.3478 35.6916 53.1243 34.3617 52.1179 33.417C50.7817 32.1867 49.5323 30.8659 48.3786 29.4642C48.2013 29.0661 48.1832 28.6157 48.3279 28.2048C48.4726 27.7938 48.7692 27.4534 49.1572 27.2529C49.226 27.2529 49.1572 27.0999 49.0883 27.121C48.7446 27.2393 48.4402 27.4497 48.2085 27.7289C47.9768 28.0082 47.8268 28.3456 47.7748 28.7042C47.7748 28.6567 47.7324 28.6356 47.7112 28.5934C47.6077 28.4759 47.5506 28.3249 47.5506 28.1686C47.5506 28.0122 47.6077 27.8612 47.7112 27.7437C47.7112 27.7015 47.7112 27.6804 47.6635 27.7015C47.5158 27.7922 47.4015 27.928 47.3375 28.0888C47.2736 28.2495 47.2635 28.4265 47.3087 28.5934C47.0981 28.5056 46.9031 28.3844 46.7313 28.2345C46.3792 27.8381 46.1671 27.3376 46.1275 26.8096C46.064 26.2027 46.1752 25.5589 46.8214 25.3794C46.8638 25.3794 46.9326 25.3794 46.975 25.3319C47.3038 25.306 47.6322 25.3855 47.9125 25.5589C47.9392 25.599 47.9754 25.6319 48.0179 25.6549C48.0603 25.6779 48.1078 25.6902 48.1561 25.6908C48.3362 25.8016 48.4898 25.8913 48.6858 25.981C48.6858 25.981 48.7281 25.981 48.6858 25.981C48.5752 25.8128 48.4309 25.669 48.262 25.5589C48.2599 25.5003 48.2374 25.4444 48.1985 25.4005C48.1296 25.3108 48.0184 25.2 48.082 25.068C48.1129 25.0239 48.1531 24.9868 48.1997 24.9595C48.2463 24.9322 48.2983 24.9152 48.3521 24.9097C48.7069 24.9097 49.0406 25.3108 49.2419 25.5589C49.2843 25.6011 49.3531 25.5588 49.3319 25.4902C49.3108 25.4216 49.2419 25.3319 49.1995 25.2686C49.1279 25.0626 49.0059 24.8776 48.8447 24.7303ZM31.1648 16.888C31.0319 16.4346 30.7897 16.0205 30.4591 15.6819C30.1286 15.3434 29.7198 15.0907 29.2687 14.9458C28.0663 14.4973 26.6204 14.0276 25.3492 14.4761C25.2857 14.4761 25.2857 14.6081 25.3492 14.6081L25.8789 14.6767C27.4678 14.8561 29.5864 15.0567 30.3333 16.5502C30.5668 17.0485 30.6803 17.5943 30.6647 18.1441C30.649 18.6938 30.5047 19.2323 30.2432 19.7167C29.7559 20.5875 28.9509 21.0308 28.1246 21.5427C27.971 21.6588 28.0134 21.9702 28.2358 21.9438C28.3259 21.9438 28.3947 21.9438 28.4583 21.9438C30.6511 21.5585 31.7792 18.8406 31.1648 16.888ZM19.8302 21.3263C19.5629 20.4359 19.5777 19.4849 19.8726 18.6031C20.1401 17.7859 20.6252 17.0563 21.2762 16.4921C21.2762 16.4658 21.2762 16.4235 21.2285 16.4446C20.2495 16.9534 19.4953 17.8066 19.1126 18.8386C18.7299 19.8705 18.7459 21.0074 19.1576 22.0282C19.915 24.1392 22.6321 24.5931 24.4541 23.6115C24.4902 23.5867 24.5196 23.5536 24.54 23.515C24.5604 23.4764 24.571 23.4334 24.571 23.3898C24.571 23.3462 24.5604 23.3032 24.54 23.2646C24.5196 23.226 24.4902 23.1929 24.4541 23.1682C24.4342 23.1486 24.4098 23.134 24.3831 23.1258C24.3564 23.1175 24.3281 23.1157 24.3005 23.1207C22.5209 23.1893 20.4976 23.5006 19.8302 21.3158V21.3263ZM26.1861 22.6193C26.1 22.5753 26.0047 22.5524 25.908 22.5524C25.8113 22.5524 25.716 22.5753 25.6299 22.6193C25.5445 22.6337 25.4622 22.6622 25.3863 22.7037C25.2993 22.7553 25.2177 22.8154 25.1427 22.8832C25.125 22.8918 25.1096 22.9044 25.0976 22.92C25.0857 22.9355 25.0775 22.9536 25.0738 22.9729C25.0742 23.0049 25.0854 23.0358 25.1055 23.0607C25.1257 23.0856 25.1537 23.103 25.185 23.1101C25.2751 23.1101 25.3386 23.1523 25.4287 23.1523C25.5255 23.1629 25.6232 23.1629 25.72 23.1523C25.8164 23.1471 25.9122 23.133 26.006 23.1101C26.0624 23.1046 26.1165 23.0854 26.1636 23.0541C26.2107 23.0228 26.2494 22.9804 26.2761 22.9307C26.345 22.8621 26.3185 22.7512 26.2761 22.6615L26.1861 22.6193ZM32.0864 16.8141C32.6161 18.0384 32.3777 19.2892 32.6161 20.54C32.6425 20.6983 32.8862 20.6719 32.9074 20.54C33.253 19.0423 33.0403 17.4704 32.3089 16.1174C31.5091 14.8245 30.0843 14.265 28.6331 14.0645C29.3901 14.2088 30.1007 14.5339 30.704 15.0118C31.3073 15.4898 31.7853 16.1064 32.097 16.8088L32.0864 16.8141ZM21.2974 26.0444C21.255 25.2 20.3599 25.0205 19.7614 24.5983C19.1603 24.1554 18.7012 23.5481 18.4398 22.8501C18.1784 22.1522 18.126 21.3937 18.2889 20.6666C18.2889 20.6666 18.2889 20.6244 18.2466 20.6666C17.8847 21.6717 17.9322 22.7781 18.379 23.7487C18.9086 24.8622 20.005 25.4427 20.9001 26.2238C20.9358 26.2504 20.978 26.2669 21.0223 26.2717C21.0666 26.2765 21.1114 26.2694 21.152 26.2511C21.1925 26.2327 21.2274 26.2039 21.253 26.1675C21.2786 26.1312 21.2939 26.0886 21.2974 26.0444ZM37.187 16.4974C37.6572 17.0239 38.2604 17.4152 38.9339 17.6306C39.6074 17.8459 40.3265 17.8774 41.0164 17.7218C42.0757 17.5001 43.4422 16.698 43.7123 15.558C43.9824 14.4181 43.0873 13.0143 42.1234 12.3915C41.5462 12.0303 40.8718 11.8539 40.191 11.886C39.5102 11.9181 38.8555 12.1571 38.3151 12.571C38.2304 12.6132 38.3151 12.724 38.384 12.7029C38.7667 12.5237 39.1847 12.4317 39.6075 12.4338C40.2546 12.3979 40.8979 12.5541 41.456 12.8823C42.3723 13.4365 43.2992 14.7347 42.6106 15.8325C41.5195 17.5529 39.0037 16.9671 37.7325 15.9433C37.7325 15.9433 37.6849 15.9011 37.669 15.9011C37.5884 15.8531 37.4933 15.8354 37.4008 15.8514C37.3084 15.8674 37.2247 15.9158 37.1651 15.988C37.1055 16.0602 37.0738 16.1513 37.0759 16.2448C37.078 16.3383 37.1136 16.4279 37.1764 16.4974H37.187ZM37.2505 15.8008C37.2876 15.7795 37.3201 15.7511 37.346 15.7172C37.372 15.6833 37.391 15.6446 37.4018 15.6034C37.4126 15.5622 37.4152 15.5192 37.4092 15.477C37.4032 15.4348 37.3889 15.3941 37.3671 15.3575C37.3194 15.2678 37.2982 15.178 37.2505 15.0672C37.2029 14.9564 37.1393 14.777 36.9857 14.777C36.8321 14.777 36.6732 14.9986 36.6732 15.178C36.6671 15.3551 36.7234 15.5287 36.8321 15.6689C36.8459 15.7078 36.8686 15.743 36.8983 15.7719C36.928 15.8007 36.9639 15.8223 37.0034 15.8351C37.0428 15.8478 37.0846 15.8514 37.1257 15.8454C37.1667 15.8395 37.2058 15.8242 37.2399 15.8008H37.2505ZM39.8352 19.2206C39.8707 19.2114 39.9026 19.192 39.927 19.1647C39.9513 19.1375 39.967 19.1037 39.9721 19.0676C39.9772 19.0314 39.9715 18.9946 39.9556 18.9617C39.9397 18.9289 39.9144 18.9014 39.8829 18.8828C39.3003 18.5926 38.6541 18.4395 38.0768 18.1018C37.4746 17.7394 36.9375 17.2792 36.4878 16.7402H36.4455C36.9327 18.1018 38.3098 19.4845 39.8247 19.2206H39.8352ZM44.3108 15.0461C44.3797 15.6755 44.2773 16.3117 44.0142 16.888C43.9665 16.9513 44.0778 17.0621 44.1466 16.9777C44.5861 16.4411 44.8408 15.7781 44.8732 15.0863C44.9056 14.3945 44.714 13.7107 44.3267 13.1357C44.2941 13.0819 44.2431 13.0418 44.183 13.0229C44.123 13.0039 44.0581 13.0073 44.0004 13.0325C43.9427 13.0577 43.8961 13.1029 43.8695 13.1598C43.8428 13.2166 43.8377 13.2812 43.8553 13.3415C43.9613 13.9273 44.2367 14.4445 44.3002 15.0461H44.3108ZM27.0123 40.5786C28.0187 38.5256 26.1225 36.8263 24.1628 36.8843C24.1534 36.8876 24.1453 36.8936 24.1396 36.9017C24.1339 36.9097 24.1308 36.9193 24.1308 36.9292C24.1308 36.939 24.1339 36.9487 24.1396 36.9567C24.1453 36.9647 24.1534 36.9708 24.1628 36.974L24.4329 37.0374C25.7888 37.3962 27.2136 38.5151 26.6363 40.0508C26.1649 41.3227 24.6766 42.3518 23.6067 41.2805C23.5503 41.2252 23.4989 41.1652 23.4531 41.101C23.2942 40.9005 22.9817 41.101 23.0293 41.3438C23.1589 41.7131 23.4211 42.0215 23.7654 42.2096C24.1096 42.3977 24.5116 42.4521 24.8937 42.3623C25.3584 42.2421 25.7901 42.0194 26.1568 41.7107C26.5235 41.4019 26.8159 41.015 27.0123 40.5786ZM23.0558 37.4701C22.6475 37.5692 22.2952 37.8253 22.076 38.1826C21.8747 38.494 21.6522 39.0745 21.9012 39.4122C21.9268 39.4557 21.9649 39.4905 22.0106 39.5122C22.0562 39.534 22.1074 39.5417 22.1574 39.5343C22.2075 39.5269 22.2542 39.5049 22.2915 39.4709C22.3289 39.4369 22.3553 39.3926 22.3673 39.3436C22.4785 39.0534 22.3673 38.742 22.4997 38.4253C22.6276 38.1044 22.8354 37.821 23.1035 37.6021C23.2147 37.5862 23.1459 37.4701 23.0558 37.4701ZM22.4573 39.7922C22.4276 39.7564 22.3861 39.7323 22.3403 39.7243C22.2944 39.7162 22.2471 39.7247 22.207 39.7482C22.1668 39.7717 22.1364 39.8087 22.1211 39.8526C22.1058 39.8964 22.1067 39.9442 22.1236 39.9875L22.1872 40.2566C22.2349 40.3464 22.3249 40.4572 22.4308 40.4361C22.464 40.4378 22.4971 40.4325 22.5281 40.4207C22.5591 40.4089 22.5873 40.3908 22.6109 40.3675C22.65 40.3267 22.6755 40.275 22.684 40.2193C22.6926 40.1636 22.6837 40.1066 22.6586 40.0561L22.4573 39.7922ZM26.5992 36.7735C26.6416 36.7735 26.7104 36.7313 26.6681 36.6891C25.4181 35.28 20.9001 35.2114 20.8736 37.6918C20.8741 37.7276 20.8851 37.7626 20.9051 37.7923C20.9252 37.8221 20.9535 37.8454 20.9867 37.8594C21.0198 37.8733 21.0563 37.8774 21.0917 37.8711C21.1271 37.8648 21.16 37.8483 21.1861 37.8237C21.9647 36.8896 22.6321 36.3988 23.8821 36.3302C24.8126 36.1947 25.7623 36.3515 26.5992 36.7788V36.7735ZM20.9849 38.5256C20.9425 38.7051 20.8101 38.8423 20.7624 39.0217C20.7147 39.2011 20.6724 39.4228 20.8313 39.5495C20.8722 39.5884 20.9241 39.6138 20.98 39.6223C21.0359 39.6308 21.0931 39.622 21.1438 39.5969C21.345 39.5072 21.345 39.2803 21.345 39.1061C21.345 38.932 21.2762 38.7684 21.2762 38.5784C21.281 38.5588 21.2817 38.5385 21.2783 38.5186C21.2749 38.4988 21.2675 38.4798 21.2565 38.4629C21.2455 38.446 21.2311 38.4316 21.2143 38.4204C21.1975 38.4092 21.1785 38.4016 21.1586 38.398C21.1387 38.3944 21.1183 38.3949 21.0986 38.3994C21.0789 38.404 21.0604 38.4125 21.0441 38.4244C21.0278 38.4364 21.0142 38.4515 21.004 38.4689C20.9938 38.4863 20.9873 38.5056 20.9849 38.5256ZM27.7803 40.0455C27.5676 40.8724 27.1892 41.6479 26.6681 42.3254C26.2063 42.8477 25.5811 43.1992 24.8937 43.3228C24.6924 43.3862 24.6501 43.7239 24.8937 43.7662C25.2791 43.7887 25.664 43.7151 26.0136 43.552C26.3632 43.3889 26.6664 43.1414 26.8958 42.832C27.5897 42.0246 27.7009 41.0694 27.881 40.0614C27.8704 40.0403 27.8015 40.0191 27.7803 40.0614V40.0455ZM35.6828 32.5885C36.2654 32.942 36.2654 33.5648 36.1753 34.1717C35.9529 35.6019 34.7718 35.7549 33.5271 35.6441H33.4423C33.1086 35.7127 33.151 36.2669 33.5271 36.2932C34.3533 36.3355 35.2908 36.3566 35.9582 35.8235C36.2649 35.531 36.4989 35.1711 36.6414 34.7725C36.7839 34.374 36.8311 33.9478 36.7791 33.5278C36.7156 32.1874 34.8247 31.0263 33.7283 32.0079C33.5959 32.1399 33.776 32.3879 33.9296 32.2718C33.9939 32.23 34.0611 32.1929 34.1309 32.161C34.6839 32.1017 35.2388 32.2546 35.6828 32.5885ZM32.4307 33.074C32.1235 33.6017 31.7421 34.462 32.0758 35.0636C32.0972 35.0977 32.128 35.125 32.1645 35.1423C32.201 35.1596 32.2416 35.1661 32.2817 35.1611C32.3218 35.1561 32.3596 35.1398 32.3907 35.1141C32.4218 35.0884 32.4448 35.0544 32.4572 35.0161C32.4934 34.728 32.4845 34.436 32.4307 34.1506C32.4086 33.806 32.4317 33.4601 32.4995 33.1215C32.5207 33.0529 32.4572 33.0318 32.4307 33.074ZM22.2137 30.868C21.9238 31.0258 21.6905 31.2697 21.5462 31.5657C21.4019 31.8618 21.3538 32.1953 21.4086 32.5198C21.4614 32.8535 21.6062 33.1659 21.8269 33.4222C22.0477 33.6785 22.3356 33.8686 22.6586 33.9712C23.9033 34.1717 25.3068 32.7837 24.4806 31.5805C24.4806 31.5805 24.417 31.5805 24.4382 31.5805C24.5438 31.7554 24.5932 31.9583 24.58 32.162C24.5667 32.3657 24.4914 32.5605 24.3641 32.7204C24.256 32.8593 24.1186 32.9728 23.9615 33.0529C23.6173 33.2471 23.2223 33.3335 22.8281 33.3009C22.6332 33.1994 22.4687 33.0483 22.3515 32.8629C22.2343 32.6775 22.1684 32.4644 22.1607 32.2454C22.1601 32.1107 22.1988 31.9787 22.2719 31.8654C22.3487 31.7338 22.4451 31.6146 22.5579 31.5118C22.6056 31.5118 22.6268 31.4432 22.6745 31.4221C22.9923 31.1371 22.5685 30.7361 22.2137 30.868ZM44.7716 34.5253C45.5025 35.5808 48.8235 36.4885 49.1572 34.7047C49.1672 34.6567 49.1641 34.607 49.1483 34.5605C49.1324 34.5141 49.1044 34.4728 49.0671 34.4409C49.0297 34.4044 48.9809 34.3819 48.9288 34.3771C48.8767 34.3723 48.8246 34.3855 48.7811 34.4145C47.6635 34.995 46.2388 35.0847 45.3066 34.1031C44.3744 33.1215 44.4379 31.5382 45.1477 30.4458C45.3871 30.0655 45.7258 29.7572 46.1275 29.5539C46.1699 29.5539 46.1275 29.4589 46.0852 29.4589C44.1466 29.955 43.7229 33.0529 44.7716 34.5253ZM43.8977 30.335C43.9454 30.335 43.8977 30.24 43.8553 30.2664C42.0068 31.0685 41.9221 34.2614 43.368 35.4647C43.4081 35.5099 43.464 35.5382 43.5243 35.5438C43.5845 35.5495 43.6447 35.5321 43.6926 35.4951C43.7404 35.4582 43.7724 35.4045 43.782 35.3449C43.7915 35.2854 43.778 35.2244 43.7441 35.1744C42.9655 33.8128 41.9433 31.3166 43.8977 30.335ZM47.9125 36.536C47.0173 36.8949 45.9527 36.4041 45.1053 36.0927C44.9941 36.0452 44.9464 36.2035 45.0364 36.2457C45.6826 36.7154 47.5099 37.8976 48.1349 36.8052C48.1985 36.6943 48.0661 36.4885 47.9125 36.536ZM41.5566 42.7845C40.3331 43.2754 38.2622 44.8955 39.3533 46.3996C39.3908 46.4441 39.4395 46.4778 39.4944 46.4972C39.5494 46.5167 39.6085 46.5213 39.6658 46.5104C39.7309 46.5038 39.7908 46.4718 39.8325 46.4214C39.8741 46.371 39.8941 46.3063 39.8882 46.2413C39.5757 43.1856 43.5163 42.5471 46.0322 43.2542C46.4316 43.3677 46.8144 43.5327 47.1709 43.745C47.2133 43.745 47.2557 43.6976 47.2133 43.6764C46.4288 43.0461 45.4921 42.632 44.4966 42.4755C43.5011 42.3189 42.4819 42.4255 41.5407 42.7845H41.5566ZM42.3352 41.3332C42.0916 41.4705 42.2717 41.8029 42.5153 41.7554C43.5746 41.5602 44.4962 41.3544 45.5661 41.671C46.4559 41.9832 47.2788 42.4594 47.9919 43.0748C47.9919 43.0748 48.0396 43.0748 47.9919 43.0273C46.6625 41.3807 44.3903 40.1089 42.3193 41.3332H42.3352ZM39.5069 43.1645C39.7921 42.9853 40.0679 42.7915 40.3331 42.584C40.6065 42.3995 40.8975 42.2422 41.2018 42.1143C41.2653 42.1143 41.2018 42.0035 41.2018 42.0035C40.8392 41.9748 40.4751 42.0365 40.1424 42.1829C39.7823 42.308 39.4758 42.5519 39.2738 42.8743C39.2561 42.9078 39.2482 42.9456 39.2512 42.9834C39.2541 43.0211 39.2678 43.0573 39.2905 43.0877C39.3132 43.118 39.3441 43.1414 39.3796 43.155C39.4151 43.1686 39.4537 43.1719 39.491 43.1645H39.5069ZM36.4561 41.5813C36.3448 41.5813 36.2548 41.7343 36.366 41.7818C36.5269 41.856 36.6656 41.9706 36.7686 42.1143C36.8951 42.3324 36.9721 42.5755 36.994 42.8265C37.0159 43.0775 36.9822 43.3302 36.8953 43.5668C36.8084 43.8034 36.6704 44.0181 36.4911 44.1957C36.3118 44.3733 36.0955 44.5096 35.8575 44.5947C35.6784 44.6286 35.4941 44.624 35.3169 44.5812C35.1397 44.5384 34.9737 44.4585 34.83 44.3467L34.6976 44.2781C34.6442 44.2527 34.5843 44.2444 34.526 44.2544C34.4677 44.2643 34.4139 44.292 34.3721 44.3337C34.3303 44.3754 34.3025 44.429 34.2924 44.487C34.2824 44.5451 34.2908 44.6049 34.3163 44.6581C34.8989 45.7136 36.4772 45.1278 37.0599 44.3731C37.7537 43.4759 37.8014 41.8504 36.4402 41.6024L36.4561 41.5813ZM35.0313 42.0721C35.1001 42.0721 35.0313 41.9613 34.9889 41.9613C34.8035 41.9759 34.6235 42.0307 34.4616 42.1218C34.2997 42.213 34.1597 42.3383 34.0514 42.489C33.8713 42.7582 33.6542 43.2279 33.8978 43.4917C33.9136 43.508 33.9326 43.521 33.9535 43.5298C33.9744 43.5386 33.9969 43.5432 34.0196 43.5432C34.0424 43.5432 34.0649 43.5386 34.0858 43.5298C34.1067 43.521 34.1257 43.508 34.1415 43.4917C34.3163 43.2912 34.2739 42.964 34.4063 42.7371C34.5438 42.4691 34.7551 42.2458 35.0154 42.0932L35.0313 42.0721ZM37.2346 41.0641C37.2136 41.0641 37.1934 41.0724 37.1785 41.0873C37.1636 41.1021 37.1552 41.1223 37.1552 41.1433C37.1552 41.1642 37.1636 41.1844 37.1785 41.1992C37.1934 41.2141 37.2136 41.2224 37.2346 41.2224C37.3574 41.2644 37.469 41.3338 37.5607 41.4252C37.6525 41.5167 37.7222 41.6278 37.7643 41.7502C37.812 41.8452 37.8543 41.956 37.8967 42.0668C37.9233 42.174 37.9605 42.2783 38.0079 42.3782C38.0263 42.4013 38.0517 42.4179 38.0804 42.4255C38.109 42.4331 38.1393 42.4313 38.1668 42.4204C38.4528 42.2199 38.3204 41.7079 38.1668 41.4863C38.0497 41.3521 37.9035 41.2463 37.7392 41.1768C37.575 41.1073 37.397 41.076 37.2188 41.0852L37.2346 41.0641Z" fill="#080224"/>
<g style="mix-blend-mode:multiply" opacity="0.06">
<path d="M10.2276 50.5424C7.16033 47.9093 4.69736 44.6496 3.00578 40.9845C1.3142 37.3194 0.433593 33.3346 0.423706 29.3006C0.423706 8.37008 21.6575 -4.95028 41.4825 2.38542C62.3667 10.1539 67.5838 34.6941 52.388 49.2969C41.0164 60.253 22.5209 61.2821 10.2276 50.5424Z" fill="#F5F5F5"/>
</g>
<g style="mix-blend-mode:multiply" opacity="0.13">
<path d="M11.5147 50.4422C5.05821 45.3494 0.842163 37.7709 0.842163 29.137C0.842163 8.76591 21.3451 -4.29585 40.688 2.57015C61.0161 9.82141 66.5616 33.2956 52.4357 47.8298C47.1352 53.2104 40.028 56.4525 32.4767 56.9346C24.9253 57.4167 17.4611 55.1048 11.5147 50.4422Z" fill="#EAEAEA"/>
</g>
<g style="mix-blend-mode:multiply" opacity="0.19">
<path d="M12.8017 50.3366C5.97449 45.4919 1.26587 37.8818 1.26587 28.9681C1.26587 9.15643 21.0326 -3.64674 39.8882 2.72846C59.6655 9.46253 65.55 31.8865 52.5205 46.3363C42.5577 57.3873 25.3916 59.2714 12.8017 50.3366Z" fill="#E0E0E0"/>
</g>
<g style="mix-blend-mode:multiply" opacity="0.25">
<path d="M14.0888 50.2363C6.88548 45.6397 1.68958 37.9979 1.68958 28.8045C1.68958 9.55225 20.72 -2.99232 39.0937 2.89207C58.3149 9.10894 64.5171 30.488 52.5893 44.8428C43.3257 55.9677 26.7634 58.3003 14.0888 50.2363Z" fill="#D5D5D5"/>
</g>
<g style="mix-blend-mode:multiply" opacity="0.31">
<path d="M15.3599 50.136C7.74351 45.8032 2.11859 38.1034 2.11859 28.6356C2.11859 9.94276 20.4022 -2.34321 38.2939 3.05037C56.9642 8.75005 63.5584 29.1 52.6582 43.3492C44.0989 54.5586 28.1034 57.3662 15.3599 50.136Z" fill="#CBCBCB"/>
</g>
<g style="mix-blend-mode:multiply" opacity="0.38">
<path d="M16.6629 50.0358C8.60687 45.9774 2.53174 38.2195 2.53174 28.4984C2.53174 10.365 20.0898 -1.66768 37.4889 3.24038C55.6136 8.3912 62.5309 27.7279 52.7217 41.8557C44.8776 53.1548 29.4117 56.469 16.6629 50.0358Z" fill="#C0C0C0"/>
</g>
<g style="mix-blend-mode:multiply" opacity="0.44">
<path d="M17.9499 49.9355C9.47548 46.1674 2.95544 38.3251 2.95544 28.2978C2.95544 10.7291 19.7878 -1.0555 36.6997 3.37758C54.2736 8.00066 61.5404 26.3663 52.7906 40.3622C45.6614 51.7668 30.7199 55.5877 17.9499 49.9355Z" fill="#B6B6B6"/>
</g>
<g style="mix-blend-mode:multiply" opacity="0.5">
<path d="M19.237 49.83C10.2965 46.3785 3.37921 38.4412 3.37921 28.1342C3.37921 11.1249 19.4701 -0.427486 35.9053 3.5359C52.923 7.64178 60.5606 25.0205 52.8542 38.895C46.4507 50.3841 31.9646 54.7486 19.237 49.83Z" fill="#ABABAB"/>
</g>
<g style="mix-blend-mode:multiply" opacity="0.56">
<path d="M20.5241 49.7297C11.1227 46.6107 3.79761 38.552 3.79761 27.9707C3.79761 11.5155 19.1576 0.22167 35.1107 3.69425C51.5724 7.27766 59.5966 23.6748 52.923 37.3699C47.2557 49.0067 33.2199 53.9464 20.5241 49.7297Z" fill="#A1A1A1"/>
</g>
<g style="mix-blend-mode:multiply" opacity="0.63">
<path d="M21.8112 49.6083C11.949 46.8693 4.23724 38.6681 4.23724 27.8018C4.23724 11.9113 18.861 0.886614 34.3269 3.85784C50.2165 6.92405 58.6909 22.3554 53.0078 35.8816C48.0714 47.6398 34.4699 53.1706 21.8112 49.6083Z" fill="#969696"/>
</g>
<g style="mix-blend-mode:multiply" opacity="0.69">
<path d="M23.0982 49.5292C12.77 47.1596 4.64508 38.7789 4.64508 27.6382C4.64508 12.3018 18.5379 1.53048 33.5165 4.02145C48.8765 6.57047 57.7217 21.036 53.0554 34.3881C48.903 46.2835 35.7199 52.4265 23.0982 49.5292Z" fill="#8C8C8C"/>
</g>
<g style="mix-blend-mode:multiply" opacity="0.75">
<path d="M24.3641 49.4289C13.5962 47.4973 5.06348 38.8897 5.06348 27.4693C5.06348 12.6923 18.2148 2.18487 32.7167 4.17976C47.5205 6.21687 56.8107 19.7167 53.1243 32.8945C49.7557 44.9272 36.9751 51.7193 24.3641 49.4289Z" fill="#818181"/>
</g>
<g style="mix-blend-mode:multiply" opacity="0.81">
<path d="M25.6723 49.3286C14.4225 47.8193 5.48724 39.0006 5.48724 27.3057C5.48724 13.0882 17.897 2.83929 31.9223 4.34337C46.1647 5.86856 55.9262 18.3973 53.1879 31.401C50.6296 43.5709 38.2357 51.0069 25.6723 49.3286Z" fill="#777777"/>
</g>
<g style="mix-blend-mode:multiply" opacity="0.88">
<path d="M26.9594 49.2231C15.254 48.1676 5.91095 39.1167 5.91095 27.1368C5.91095 13.484 17.5633 3.52008 31.1278 4.50169C44.814 5.55719 55.0628 17.0726 53.2567 29.9128C51.5247 42.2198 39.5122 50.3313 26.9594 49.2231Z" fill="#6C6C6C"/>
</g>
<g style="mix-blend-mode:multiply" opacity="0.94">
<path d="M28.2464 49.1228C16.0962 48.595 6.35583 39.2275 6.35583 26.9732C6.35583 13.8745 17.2667 4.17448 30.328 4.66529C43.3892 5.15609 54.2154 15.748 53.3202 28.4139C52.4357 40.8424 40.7833 49.6716 28.2464 49.1228Z" fill="#626262"/>
</g>
<g style="mix-blend-mode:multiply">
<path d="M53.3891 26.9152C53.3891 39.4492 42.1128 49.012 29.5547 49.012C16.9966 49.012 6.7796 39.3278 6.7796 26.7938C6.7796 14.2598 16.949 4.82364 29.5335 4.82364C42.1181 4.82364 53.3891 14.3917 53.3891 26.9152Z" fill="#575757"/>
</g>
<path d="M29.4328 51.1916C22.4524 51.1384 15.7656 48.3851 10.7837 43.5128C5.82088 38.7103 2.83893 32.3668 2.83893 25.4058C2.84422 11.183 14.6449 0.158325 29.3693 0.158325C36.3872 0.158325 43.3416 2.57013 48.4951 7.21432C53.8605 12.0485 56.8159 18.5134 56.8159 25.4058C56.8159 32.2982 53.8605 38.7578 48.4951 43.5973C43.3416 48.2362 36.4508 51.1916 29.4328 51.1916Z" fill="url(#paint0_radial_6_155)"/>
<path d="M56.1009 25.4058C56.1009 39.4597 43.4528 50.2099 29.3481 50.2099C15.2434 50.2099 3.80292 39.3278 3.80292 25.2739C3.80292 11.2199 15.2381 0.622742 29.3481 0.622742C43.4581 0.622742 56.1009 11.3466 56.1009 25.4058Z" fill="url(#paint1_radial_6_155)"/>
<g style="mix-blend-mode:color-burn" opacity="0.3">
<path d="M49.1466 8.82922C49.083 22.8357 36.4667 33.4856 22.3938 33.5014C18.9363 33.5168 15.5106 32.8426 12.3187 31.5184C9.12679 30.1942 6.23314 28.2468 3.80823 25.791C4.08894 39.5811 15.4129 50.1888 29.3481 50.1888C43.4528 50.1888 56.1009 39.4597 56.1009 25.3847C56.0687 19.1675 53.5686 13.2157 49.1466 8.82922Z" fill="#E3D7C3"/>
</g>
<g style="mix-blend-mode:screen" opacity="0.3">
<path d="M5.4184 22.2446C4.17901 30.0816 11.7531 42.0721 20.0686 42.0721C28.3842 42.0721 52.6053 33.1003 47.3617 18.6295C44.6499 11.146 36.7209 1.6149 28.4054 1.6149C20.0898 1.6149 7.56879 8.58117 5.4184 22.2446Z" fill="#D9BC52"/>
</g>
<g style="mix-blend-mode:screen" opacity="0.3">
<path d="M23.6755 15.1939C8.39504 22.3976 7.17683 25.6485 7.70119 22.3237C9.8198 9.00865 21.9648 4.10587 25.0474 4.10587C28.1299 4.10587 47.3034 4.0531 23.6755 15.1939Z" fill="#FFF3C7"/>
</g>
<g style="mix-blend-mode:overlay">
<path d="M42.7166 14.36C42.7166 15.1569 40.9211 15.7111 40.3331 15.7111C39.7452 15.7111 41.0323 14.8297 40.4285 14.0909C40.1954 13.8059 40.8098 13.0354 41.3977 13.0354C41.7485 13.0382 42.0839 13.1789 42.331 13.4271C42.578 13.6752 42.7166 14.0105 42.7166 14.36Z" fill="#9E9E9B"/>
</g>
<g style="mix-blend-mode:overlay">
<path d="M38.2516 43.2754C38.8819 42.7951 40.4179 43.8717 40.778 44.3308C41.1382 44.79 39.6552 44.3308 39.4327 45.2439C39.348 45.6027 38.3734 45.5922 37.9974 45.1277C37.7866 44.8478 37.6951 44.4963 37.7427 44.1495C37.7903 43.8028 37.9731 43.4887 38.2516 43.2754Z" fill="#9E9E9B"/>
</g>
<g style="mix-blend-mode:overlay">
<path d="M13.4479 34.0662C10.5719 34.1189 9.06769 32.6201 9.06769 31.8285C9.06769 31.0369 10.1853 29.6595 10.6566 30.393C12.0761 32.7204 16.5994 34.0081 13.4479 34.0662Z" fill="#696968"/>
</g>
<g style="mix-blend-mode:overlay">
<path d="M47.3988 15.9538C46.7844 14.5395 47.9284 13.2465 51.636 14.4445C53.9082 15.1833 52.5629 18.5292 50.9369 17.0832C49.4962 15.8324 48.082 17.5212 47.3988 15.9538Z" fill="#9E9E9B"/>
</g>
<g style="mix-blend-mode:overlay">
<path d="M20.005 29.5539C19.5389 30.1503 17.8864 28.6726 17.8864 27.5801C17.8864 26.4877 19.1894 24.8569 19.2582 25.6063C19.5125 28.6092 21.0537 28.1976 20.005 29.5539Z" fill="#969695"/>
</g>
<g style="mix-blend-mode:overlay">
<path d="M21.1861 41.9929C21.1706 42.3298 21.1046 42.6624 20.9902 42.9798C20.8994 43.3015 20.7601 43.6075 20.577 43.8875C20.3811 44.1672 19.9785 44.1883 19.7084 44.4153C19.4383 44.6422 19.3747 45.1647 19.0516 45.2755C18.7156 45.4248 18.3582 45.5209 17.9923 45.5605C17.6481 45.5605 17.2985 45.2702 16.986 45.1647C16.6466 45.0789 16.323 44.94 16.0273 44.753C15.7625 44.5525 15.7307 44.1092 15.54 43.8295C15.3494 43.5498 14.8674 43.402 14.7667 43.0748C14.6476 42.7344 14.5763 42.3792 14.5549 42.0193C14.5549 41.6763 14.915 41.349 15.0104 41.0377C15.1542 40.7411 15.3436 40.4686 15.5718 40.2302C15.7307 39.946 15.9325 39.6879 16.1703 39.465C16.4584 39.3205 16.7677 39.2225 17.0866 39.1747C17.3755 39.0335 17.6878 38.9458 18.0082 38.9161C18.3578 38.9161 18.7868 38.5098 19.0993 38.6206C19.4118 38.7314 19.6819 39.0903 19.9467 39.2961C20.2116 39.5019 20.6406 39.6444 20.8366 39.9241C20.9786 40.2617 21.0748 40.6167 21.1226 40.9796C21.191 41.3128 21.2124 41.6538 21.1861 41.9929Z" fill="#9E9E9B"/>
</g>
<g style="mix-blend-mode:overlay">
<path d="M16.165 21.4635C16.165 21.8804 16.3875 22.2762 16.2551 22.6351C16.1107 23.007 15.9009 23.3501 15.6354 23.6484C15.3652 23.9545 14.9521 23.9809 14.576 24.1497C14.2527 24.3163 13.894 24.4033 13.53 24.4033C13.166 24.4033 12.8073 24.3163 12.4839 24.1497C12.1238 23.9809 11.5199 24.1234 11.2498 23.8173C10.9797 23.5112 11.1598 22.957 11.0221 22.5718C10.9132 22.2166 10.8719 21.8443 10.9003 21.4741C10.9003 21.0624 10.3229 20.5347 10.4553 20.1758C10.6187 19.761 10.8496 19.3759 11.1386 19.0359C11.4087 18.7298 12.0443 18.8089 12.4045 18.6401C12.7646 18.4712 13.1142 17.8748 13.5273 17.8748C13.9785 17.9293 14.4142 18.0729 14.8091 18.297C15.1693 18.4659 15.4129 18.9356 15.6777 19.2364C15.9831 19.5197 16.2344 19.8559 16.4192 20.2286C16.5623 20.5822 16.165 21.0519 16.165 21.4635Z" fill="#9E9E9B"/>
</g>
<g style="mix-blend-mode:overlay">
<path d="M40.3862 4.34336C40.5241 4.5187 40.626 4.71942 40.686 4.93405C40.746 5.14867 40.7629 5.37298 40.7357 5.59412C40.6722 5.96355 40.2061 6.17464 39.8565 6.45435C39.5069 6.73406 39.2368 6.53351 38.8555 6.53879C38.4741 6.54407 37.9339 6.96627 37.669 6.6549C37.5316 6.47745 37.4309 6.2746 37.3727 6.05809C37.3145 5.84157 37.3 5.61571 37.3301 5.39358C37.3989 5.01888 38.0027 4.95027 38.3311 4.67056C38.6595 4.39086 38.8237 3.81561 39.1944 3.81033C39.4188 3.81504 39.6399 3.86465 39.8446 3.95622C40.0494 4.04779 40.2335 4.17944 40.3862 4.34336Z" fill="#9E9E9B"/>
</g>
<g style="mix-blend-mode:overlay">
<path d="M24.7825 4.22198C25.1003 4.56502 25.4393 4.74973 25.4287 5.18248C25.45 5.4028 25.4247 5.62513 25.3545 5.83511C25.2842 6.0451 25.1706 6.23807 25.0208 6.40158C24.6766 6.71823 24.184 7.14043 23.7444 7.11404C23.3048 7.08765 22.9552 6.53352 22.6374 6.1852C22.3196 5.83689 21.9171 5.44108 21.9224 5.0136C21.9107 4.48974 22.0831 3.97827 22.4097 3.56757C22.7539 3.25092 23.4213 3.65201 23.8609 3.68368C24.3005 3.71534 24.4594 3.88422 24.7825 4.22198Z" fill="#9E9E9B"/>
</g>
<g style="mix-blend-mode:overlay">
<path d="M28.7072 46.4418C28.8344 47.0329 29.2952 47.4182 28.2888 47.7665C27.7009 47.9723 26.5727 47.1385 26.5727 46.4049C26.5493 46.08 26.655 45.759 26.867 45.5111C27.0791 45.2633 27.3805 45.1085 27.7062 45.0802C28.3259 45.0591 28.4212 45.0697 28.7072 46.4418Z" fill="#9E9E9B"/>
</g>
<g style="mix-blend-mode:overlay">
<path d="M41.3978 13.0301C41.3327 13.0227 41.2669 13.0227 41.2018 13.0301C41.5027 13.0913 41.7729 13.2548 41.9661 13.4925C42.1594 13.7303 42.2636 14.0277 42.2611 14.3336C42.2611 15.0144 40.937 15.5211 40.1902 15.6477C40.2279 15.6765 40.2753 15.6897 40.3226 15.6847C40.9105 15.6847 42.706 15.1305 42.706 14.3336C42.7006 13.9896 42.561 13.6612 42.3168 13.4179C42.0727 13.1746 41.7431 13.0355 41.3978 13.0301Z" fill="#3D3D3C"/>
</g>
<g style="mix-blend-mode:overlay">
<path d="M51.6148 14.4445C50.766 14.1363 49.8699 13.9774 48.9666 13.9748C49.7488 14.0273 50.5203 14.1853 51.26 14.4445C53.0449 15.025 52.6 17.2099 51.5407 17.4315C52.8383 17.6796 53.5798 15.083 51.6148 14.4445Z" fill="#3D3D3C"/>
</g>
<g style="mix-blend-mode:overlay">
<path d="M20.9902 42.2198C20.8983 42.5428 20.7591 42.8504 20.577 43.1328C20.3811 43.4126 19.9785 43.4337 19.7084 43.6606C19.4383 43.8875 19.3747 44.41 19.0516 44.5208C18.7167 44.6742 18.3589 44.7723 17.9923 44.8111C17.6481 44.8111 17.2985 44.5208 16.986 44.41C16.6468 44.3261 16.3232 44.1889 16.0273 44.0036C15.7625 43.7978 15.7307 43.3598 15.54 43.0801C15.3494 42.8004 14.8674 42.6473 14.7667 42.3201C14.7138 42.1565 14.6608 41.9665 14.6184 41.7924C14.5793 41.875 14.5576 41.9649 14.5549 42.0562C14.5763 42.4161 14.6476 42.7713 14.7667 43.1117C14.8674 43.4389 15.3494 43.5973 15.54 43.8664C15.7307 44.1356 15.7625 44.5894 16.0273 44.79C16.323 44.9769 16.6466 45.1159 16.986 45.2016C17.2985 45.3072 17.6481 45.5974 17.9923 45.5974C18.3582 45.5579 18.7156 45.4617 19.0516 45.3124C19.3747 45.2016 19.4436 44.658 19.7084 44.4522C19.9732 44.2464 20.3811 44.2253 20.577 43.9245C20.7601 43.6445 20.8994 43.3384 20.9902 43.0167C21.1083 42.6876 21.1744 42.3422 21.1861 41.9929C21.1861 41.7765 21.1861 41.5496 21.1861 41.3385C21.1554 41.6389 21.0896 41.9346 20.9902 42.2198Z" fill="#3D3D3C"/>
</g>
<g style="mix-blend-mode:overlay">
<path d="M16.4193 20.2286C16.2371 19.8525 15.9876 19.5127 15.6831 19.2259C15.7626 19.3372 15.8284 19.4577 15.879 19.5847C16.0114 19.9489 15.6089 20.408 15.6089 20.8197C15.6089 21.2313 15.8314 21.6324 15.699 21.9965C15.5533 22.3661 15.3435 22.7073 15.0793 23.0045C14.8091 23.3106 14.396 23.337 14.02 23.5323C13.6966 23.6989 13.3379 23.7858 12.9739 23.7858C12.6099 23.7858 12.2512 23.6989 11.9278 23.5323C11.6683 23.4342 11.3981 23.3669 11.1227 23.3317C11.1223 23.5023 11.1761 23.6685 11.2763 23.8067C11.5465 24.1128 12.1503 23.9703 12.5104 24.1392C12.8338 24.3058 13.1925 24.3927 13.5565 24.3927C13.9205 24.3927 14.2792 24.3058 14.6026 24.1392C14.9627 23.9703 15.3759 23.9439 15.6619 23.6378C15.9274 23.3396 16.1372 22.9964 16.2816 22.6246C16.414 22.2657 16.1915 21.8699 16.1915 21.453C16.1915 21.036 16.5623 20.5822 16.4193 20.2286Z" fill="#3D3D3C"/>
</g>
<g style="mix-blend-mode:overlay">
<path d="M28.7073 46.4418C28.4848 45.3863 28.3736 45.1488 28.0346 45.0961C28.1406 45.4005 28.222 45.7129 28.2783 46.0302C28.4054 46.6265 28.8662 47.0065 27.8598 47.3601C27.6797 47.3898 27.4953 47.3797 27.3195 47.3304C27.1438 47.2812 26.9811 47.194 26.8429 47.0751C27.2137 47.5501 27.9022 47.909 28.2889 47.7665C29.2952 47.3971 28.8344 47.0118 28.7073 46.4418Z" fill="#3D3D3C"/>
</g>
<g style="mix-blend-mode:overlay">
<path d="M49.6604 38.2195C49.6604 38.837 48.2886 39.9453 47.6636 39.9453C47.5157 39.946 47.3691 39.9175 47.2322 39.8616C47.0954 39.8057 46.971 39.7234 46.8662 39.6194C46.7613 39.5155 46.6781 39.3919 46.6214 39.2558C46.5646 39.1197 46.5354 38.9738 46.5354 38.8264C46.5354 38.209 47.4729 36.5941 48.1244 36.5941C48.7758 36.5941 49.6604 37.6021 49.6604 38.2195Z" fill="#757574"/>
</g>
<g style="mix-blend-mode:overlay">
<path d="M50.6243 32.0132C32.5843 51.7562 28.6437 42.0404 25.0314 35.4858C11.0698 10.175 37.187 5.34608 37.9126 22.1654C51.0268 12.381 58.156 23.7487 50.6243 32.0132Z" fill="#CCCCCA"/>
</g>
<g style="mix-blend-mode:overlay">
<path d="M48.2568 36.6151C48.4962 36.7716 48.7013 36.9748 48.8597 37.2125C49.0181 37.4501 49.1265 37.7173 49.1784 37.9978C49.1784 38.6153 47.8013 39.7236 47.1763 39.7236C47.0988 39.7316 47.0207 39.7316 46.9432 39.7236C47.1462 39.89 47.4007 39.9814 47.6636 39.9822C48.2886 39.9822 49.6604 38.8739 49.6604 38.2564C49.5894 37.8851 49.4226 37.5385 49.1765 37.2507C48.9305 36.963 48.6135 36.7439 48.2568 36.6151Z" fill="#969694"/>
</g>
<path d="M28.2252 35.3591C28.2252 35.3591 22.9552 28.0287 22.9658 21.2049C22.9658 15.6688 28.31 12.3071 33.1033 15.748C20.9319 16.0488 28.2252 35.3591 28.2252 35.3591Z" fill="white"/>
<g style="mix-blend-mode:multiply">
<path d="M47.0756 8.97171C62.5468 35.7074 30.8523 56.1049 10.2964 39.7289C12.5796 42.632 15.5016 44.9737 18.837 46.5731C22.1724 48.1726 25.832 48.9872 29.5335 48.9539C42.8172 48.9539 54.7291 38.8528 54.7291 25.6116C54.706 22.4566 54.0119 19.3423 52.6927 16.4741C51.3734 13.6059 49.459 11.0489 47.0756 8.97171Z" fill="#E3D7C3"/>
</g>
<path d="M68.0075 31.5118L67.8857 31.2849C67.3339 31.5324 66.7485 31.6977 66.1484 31.7757C66.5759 32.1952 66.9145 32.6959 67.1442 33.2481C67.2629 32.9907 67.4451 32.7674 67.6738 32.599C67.7873 32.5244 67.9154 32.4745 68.0495 32.4527C68.1837 32.4309 68.321 32.4376 68.4524 32.4723C68.3253 32.1926 68.1717 31.8338 68.0075 31.5118Z" fill="#7091B2"/>
<path d="M64.5437 45.0538C63.2513 44.6739 65.0733 41.5707 65.1845 40.2091C64.6917 41.0381 64.1487 41.8365 63.5585 42.5998C63.3625 42.8426 63.0712 42.6842 62.9812 42.4626C62.6661 42.9424 62.3983 43.4514 62.1814 43.9825C62.2393 43.9733 62.2986 43.9768 62.355 43.9927C62.4114 44.0087 62.4637 44.0368 62.5081 44.075C62.5525 44.1132 62.588 44.1606 62.6121 44.2139C62.6361 44.2672 62.6482 44.3251 62.6475 44.3836C62.5597 45.0969 62.418 45.8025 62.2238 46.4946C62.276 46.4818 62.3305 46.4818 62.3827 46.4946C63.1915 46.7426 64.0161 46.9365 64.8509 47.0751C64.8878 47.0009 64.9524 46.9441 65.0309 46.9168C65.8784 46.674 66.4769 45.3335 66.8794 44.5947C66.9483 44.4628 67.0118 44.3519 67.0807 44.2147C66.4133 44.7372 65.4335 45.3177 64.5437 45.0538Z" fill="#7091B2"/>
<path d="M67.9016 43.6448C67.4567 44.7002 66.7893 46.389 65.783 47.1279C66.8952 47.0857 67.5626 46.2782 68.1187 45.3652C68.5072 44.714 68.8607 44.0429 69.178 43.3545C68.7702 43.6025 68.1717 43.8928 67.9016 43.6448Z" fill="#7091B2"/>
<path d="M61.3127 35.9924C60.0203 35.681 60.0203 36.0346 60.4652 35.0319C60.9101 34.0292 57.1496 35.8816 54.8562 34.5042C52.5628 33.1267 48.9294 29.7544 49.0883 28.7728C49.2472 27.7912 50.2694 26.9151 49.2578 26.7304C48.2461 26.5457 47.6105 27.3796 46.9644 26.8413C46.673 26.5985 46.7207 25.9705 46.8319 25.3688C46.1858 25.5694 46.0745 26.1921 46.1434 26.7938C46.1764 27.3238 46.3872 27.8275 46.7419 28.224C46.908 28.3812 47.1044 28.5033 47.3192 28.5828C47.2735 28.4165 47.2828 28.2399 47.3458 28.0792C47.4088 27.9185 47.522 27.7824 47.6688 27.6909C47.7165 27.6909 47.7376 27.6909 47.7165 27.7331C47.6189 27.8534 47.5656 28.0033 47.5656 28.158C47.5656 28.3126 47.6189 28.4626 47.7165 28.5828C47.7331 28.6222 47.7544 28.6594 47.78 28.6936C47.832 28.335 47.9821 27.9976 48.2138 27.7183C48.4455 27.4391 48.7499 27.2287 49.0936 27.1104C49.1836 27.1104 49.2313 27.2212 49.1624 27.2476C48.7711 27.4432 48.4712 27.7824 48.326 28.1939C48.1808 28.6054 48.2015 29.057 48.3838 29.4536C49.5393 30.8538 50.7886 32.1745 52.1232 33.4064C53.1295 34.3617 54.3742 35.681 55.7089 36.4621C56.6888 36.6415 57.5998 36.8421 58.5161 36.2616C58.5161 36.2616 58.585 36.2616 58.5585 36.3038C58.4388 36.5211 58.2696 36.7074 58.0644 36.8476C57.8593 36.9879 57.6239 37.0782 57.3773 37.1112C57.4068 37.1105 57.436 37.1158 57.4633 37.1266C57.4906 37.1375 57.5154 37.1538 57.5362 37.1746C58.3884 37.1153 59.2281 36.9377 60.0309 36.6468C60.1633 36.5993 60.2057 36.7787 60.1157 36.8474C59.0563 37.6706 56.5352 38.5678 55.2428 37.5862C55.3064 37.7392 55.3541 37.8976 55.4176 38.0506C55.5436 38.3861 55.7511 38.6853 56.0214 38.9214C56.0903 38.9689 56.0214 39.1008 55.9579 39.0586C55.5747 38.9504 55.2154 38.7714 54.8986 38.5309C54.8986 38.5309 54.8509 38.4887 54.8297 38.4887C54.6073 39.0164 54.3001 39.4914 54.0723 39.94C54.0034 40.0613 53.924 40.188 53.8446 40.3147C55.2844 40.7263 56.635 41.401 57.8276 42.3043C58.2725 42.547 58.7121 42.832 59.1517 43.1064C59.1941 43.1064 59.1517 43.1962 59.104 43.1751C58.9133 43.0695 58.7121 42.9692 58.5161 42.869C58.8882 43.2013 59.2419 43.5537 59.5754 43.9245C59.6773 43.9406 59.7817 43.9267 59.8758 43.8845C59.9699 43.8423 60.0496 43.7737 60.1051 43.687C60.6347 42.6315 58.8816 42.1037 57.6528 40.6313C56.424 39.1589 56.6146 38.895 58.2619 38.5256C59.9091 38.1562 62.5838 36.3249 61.3127 35.9924Z" fill="#7091B2"/>
<path d="M62.086 28.9206C60.9981 28.9068 59.9215 28.6976 58.9081 28.3031C59.7495 28.8731 60.6727 29.3126 61.6464 29.6067C62.1652 29.4554 62.6647 29.2447 63.1347 28.9786C62.6792 28.9523 62.1919 28.9206 62.086 28.9206Z" fill="#7091B2"/>
<path d="M70.089 35.7866H70.0467C70.0493 35.7603 70.0493 35.7337 70.0467 35.7074C69.713 35.0794 69.3846 34.4514 69.0827 33.8075C68.8655 33.3431 68.659 32.8787 68.4418 32.4143C68.3157 32.3846 68.1849 32.381 68.0573 32.4037C67.9298 32.4264 67.8083 32.4749 67.7003 32.5462C67.4716 32.7146 67.2894 32.9379 67.1706 33.1953C67.2589 33.4119 67.3263 33.6363 67.3719 33.8656C67.3895 33.9356 67.3784 34.0096 67.3412 34.0715C67.3039 34.1333 67.2435 34.1779 67.1733 34.1954C67.1031 34.2129 67.0287 34.2019 66.9666 34.1648C66.9046 34.1277 66.8598 34.0675 66.8423 33.9975C66.7781 33.7663 66.6875 33.5432 66.5721 33.3326C66.4321 33.1808 66.2461 33.0789 66.0425 33.0423C65.9582 33.0284 65.8717 33.0351 65.7906 33.0618C65.7094 33.0884 65.6359 33.1343 65.5764 33.1953C65.534 35.2061 64.194 37.507 62.3455 37.259C62.2819 37.259 62.2343 37.1271 62.3455 37.1271C62.9632 36.9797 63.5286 36.6667 63.9804 36.2221C64.4323 35.7774 64.7534 35.218 64.909 34.6044C65.195 33.6228 65.195 32.2348 64.4588 31.4379C63.7802 31.0922 63.071 30.8095 62.3402 30.5935C60.909 30.1958 59.4384 29.9551 57.9547 29.8758C57.8947 30.8093 57.4709 31.6824 56.7735 32.3087C56.7582 32.3202 56.7393 32.3257 56.7202 32.3244C56.7012 32.323 56.6832 32.3148 56.6697 32.3014C56.6562 32.2879 56.648 32.27 56.6466 32.251C56.6453 32.232 56.6508 32.2131 56.6623 32.1979C57.164 31.5102 57.4713 30.701 57.5521 29.8547C57.1973 29.8125 56.8159 29.7861 56.461 29.7439C55.9314 29.6753 55.4388 29.6066 54.9462 29.4958C54.8788 29.8142 54.7512 30.1169 54.5702 30.3877C54.4 30.7165 54.1461 30.9949 53.834 31.1952C53.834 31.1952 53.7651 31.1952 53.7916 31.1477C53.9664 30.8574 54.1465 30.546 54.3212 30.2347C54.496 29.9233 54.5013 29.6753 54.6126 29.4325C52.584 28.9417 50.7355 27.9337 49.6444 26.0391C49.6347 26.0232 49.6288 26.0054 49.6271 25.9869C49.6254 25.9685 49.628 25.9498 49.6346 25.9325C49.6413 25.9152 49.6518 25.8996 49.6654 25.887C49.6791 25.8743 49.6954 25.865 49.7133 25.8596C49.5927 25.6454 49.4508 25.4438 49.2895 25.258L49.4219 25.4797C49.4219 25.5219 49.3796 25.5905 49.3319 25.5483C49.1359 25.3002 48.8023 24.878 48.4421 24.8991C48.3884 24.9023 48.3363 24.9184 48.2902 24.9459C48.2441 24.9735 48.2053 25.0118 48.1773 25.0575C48.1084 25.1894 48.2196 25.2791 48.2885 25.3899C48.3267 25.4343 48.349 25.4899 48.3521 25.5483C48.51 25.6713 48.6523 25.8131 48.7758 25.9705C48.5859 25.8978 48.4075 25.7983 48.2461 25.6749C48.1494 25.6637 48.0605 25.6166 47.9972 25.543C47.7047 25.3622 47.3586 25.2877 47.0173 25.3319C46.9617 25.3325 46.907 25.3471 46.8584 25.3741C46.726 25.981 46.7048 26.6038 46.9908 26.8465C47.637 27.3743 48.2832 26.5827 49.2842 26.7357C50.2853 26.8887 49.2842 27.7912 49.1306 28.7675C48.977 29.7439 52.6052 33.0951 54.8986 34.5041C57.192 35.9132 60.9313 34.0133 60.5129 35.0319C60.0945 36.0505 60.0839 35.681 61.355 35.9924C62.6262 36.3038 59.978 38.1351 58.3042 38.515C56.6305 38.895 56.3922 39.2064 57.6157 40.6577C58.8392 42.109 60.5976 42.6895 60.068 43.7134C60.0114 43.7998 59.9321 43.8691 59.8387 43.9137C59.7453 43.9584 59.6414 43.9767 59.5383 43.9667C60.1334 44.6427 60.6536 45.3805 61.0902 46.1674C61.3159 45.4765 61.5829 44.7998 61.89 44.1408C61.9219 44.0885 61.9642 44.0433 62.0143 44.0079C62.0644 43.9725 62.1212 43.9477 62.1813 43.935C62.4167 43.4144 62.6838 42.9086 62.9811 42.4204C62.96 42.3712 62.9491 42.3182 62.9491 42.2647C62.9491 42.2112 62.96 42.1582 62.9811 42.109C64.1834 39.6761 66.0319 37.734 66.9482 35.1427C66.9523 35.1284 66.961 35.1158 66.9729 35.1068C66.9849 35.0978 66.9994 35.093 67.0144 35.093C67.0294 35.093 67.0439 35.0978 67.0559 35.1068C67.0678 35.1158 67.0765 35.1284 67.0806 35.1427C67.3242 36.3513 66.837 37.3751 66.2332 38.4042C65.8783 38.9847 65.5446 39.5864 65.1739 40.1669C65.0414 41.5285 63.2406 44.6316 64.533 45.0116C65.4228 45.2755 66.4026 44.695 67.0488 44.1831C67.356 43.6025 67.6261 43.0009 67.891 42.3729C68.516 40.8793 69.1833 39.3383 69.6759 37.8026C69.1198 39.7183 68.7384 41.6182 67.9386 43.4442C67.9386 43.4917 67.8963 43.5339 67.8698 43.5814C68.1399 43.8242 68.7384 43.5339 69.141 43.2912C69.6706 42.1987 70.1208 41.0588 70.5445 39.9188C70.7723 39.275 71.0159 38.5889 71.2066 37.8923C70.857 37.2009 70.4704 36.4938 70.089 35.7866Z" fill="white"/>
<path d="M67.3137 30.2505C66.4423 30.5039 65.5412 30.6423 64.6337 30.6621L65.0362 30.8838C65.0362 30.8838 65.0786 30.8838 65.0998 30.8838C65.6983 31.1688 66.6887 30.9735 67.5732 30.6569L67.3137 30.2505Z" fill="white"/>
<path d="M59.9992 36.6363C59.1985 36.9344 58.3577 37.1123 57.5045 37.164C57.4533 37.1373 57.4002 37.1144 57.3456 37.0954C57.5933 37.068 57.8304 36.9805 58.0363 36.8407C58.2422 36.7009 58.4106 36.5129 58.5268 36.2932C58.5268 36.282 58.5223 36.2713 58.5144 36.2634C58.5064 36.2555 58.4956 36.251 58.4844 36.251C57.5469 36.8263 56.6571 36.6046 55.6772 36.4463C54.3213 35.6652 53.0978 34.3353 52.0915 33.3906C50.7553 32.1621 49.5059 30.8431 48.3521 29.4431C48.1749 29.045 48.1568 28.5945 48.3015 28.1836C48.4462 27.7727 48.7427 27.4323 49.1307 27.2318C49.1996 27.2318 49.1307 27.0735 49.0619 27.0999C48.7175 27.2172 48.4125 27.4272 48.1807 27.7066C47.9488 27.9861 47.7992 28.3241 47.7483 28.6831C47.7483 28.6356 47.7059 28.6145 47.6848 28.5723C47.5823 28.4543 47.5259 28.3035 47.5259 28.1474C47.5259 27.9914 47.5823 27.8406 47.6848 27.7226C47.6848 27.6751 47.6848 27.654 47.6371 27.6751C47.4889 27.7667 47.3744 27.9035 47.3105 28.0651C47.2465 28.2267 47.2366 28.4046 47.2822 28.5723C47.0729 28.4821 46.8783 28.3611 46.7049 28.2134C46.3519 27.8159 46.1414 27.3128 46.1064 26.7832C46.0375 26.1816 46.1488 25.5377 46.7949 25.3583C46.8373 25.3319 46.9062 25.3319 46.9485 25.3108C47.2773 25.2849 47.6058 25.3644 47.886 25.5377C47.9137 25.5769 47.9501 25.6092 47.9924 25.6321C48.0346 25.655 48.0816 25.6678 48.1297 25.6697C48.3097 25.7805 48.4633 25.8702 48.6593 25.9599C48.6593 25.9599 48.7017 25.9599 48.6593 25.9335C48.5473 25.7664 48.4033 25.623 48.2356 25.5113C48.2472 25.449 48.2339 25.3846 48.1985 25.3319C48.1297 25.2422 48.0184 25.1314 48.082 24.9941C48.1132 24.9507 48.1536 24.9145 48.2002 24.8881C48.2468 24.8616 48.2987 24.8456 48.3521 24.8411C48.707 24.8147 49.0407 25.2422 49.2419 25.4849C49.2843 25.5272 49.3532 25.4849 49.332 25.4163C49.3108 25.3477 49.2419 25.2633 49.1996 25.1947C49.1053 25.0203 48.9754 24.8675 48.8182 24.7461C48.7131 24.6607 48.5845 24.6089 48.4493 24.5976C48.3142 24.5863 48.1787 24.616 48.0608 24.6828C47.9583 24.7324 47.8746 24.8136 47.8221 24.9144C47.7697 25.0152 47.7512 25.1301 47.7695 25.2422C46.9697 24.9044 46.0375 25.0364 45.8151 26.113C45.6857 26.7769 45.7788 27.4648 46.0799 28.0709C46.1299 28.1702 46.1903 28.2639 46.26 28.3506L46.4242 28.5089C46.546 28.6198 46.6678 28.72 46.7896 28.8203C47.0763 28.9816 47.3756 29.1192 47.6848 29.232C47.6946 29.237 47.7055 29.2397 47.7165 29.2397C47.7276 29.2397 47.7385 29.237 47.7483 29.232C47.8929 29.8108 48.2218 30.3274 48.6858 30.7044C48.9505 31.1667 49.2405 31.6142 49.5544 32.0449C50.2287 32.9149 50.9575 33.7416 51.7366 34.52C52.5026 35.339 53.3294 36.0994 54.2101 36.7946C53.7597 37.7003 53.3652 38.6327 53.029 39.5864C52.9548 39.7553 52.8701 39.9241 52.7906 40.1141C53.1243 40.1775 53.4527 40.2619 53.7811 40.3569L54.03 39.94C54.3161 39.4744 54.5692 38.9894 54.7874 38.4887C54.7874 38.4887 54.8298 38.5362 54.8563 38.5362C55.1731 38.7767 55.5324 38.9557 55.9156 39.0639C55.9326 39.0693 55.9511 39.0684 55.9675 39.0613C55.9839 39.0543 55.9972 39.0416 56.005 39.0255C56.0127 39.0094 56.0143 38.9911 56.0096 38.9739C56.0049 38.9567 55.994 38.9418 55.9791 38.932C55.7046 38.6996 55.4963 38.3993 55.3753 38.0612C55.3118 37.9029 55.2641 37.7234 55.2005 37.5915C56.5141 38.5731 58.9876 37.6812 60.0734 36.8579C60.174 36.7735 60.1316 36.594 59.9992 36.6363Z" fill="#080224"/>
<path d="M71.2543 37.9398C71.0637 38.6312 70.8253 39.3014 70.5976 39.94C70.1739 41.0799 69.7289 42.2198 69.194 43.3123C68.8778 43.9995 68.5242 44.669 68.1347 45.3177C67.5785 46.236 66.9112 47.0382 65.7989 47.0857C66.8211 46.3468 67.4938 44.6739 67.9175 43.6025L67.9811 43.4653C68.7862 41.6393 69.1622 39.7394 69.7184 37.8237C69.2258 39.3594 68.5637 40.9005 67.9387 42.394C67.6686 43.022 67.4091 43.6237 67.0913 44.2042C67.0224 44.3361 66.9589 44.4469 66.89 44.5842C66.4875 45.3177 65.889 46.6582 65.0415 46.9062C64.9637 46.9318 64.899 46.9867 64.8614 47.0593C64.0256 46.9258 63.2007 46.7317 62.3932 46.4788C62.3408 46.4685 62.2868 46.4685 62.2343 46.4788C62.4288 45.7868 62.5704 45.0811 62.6581 44.3678C62.6579 44.3096 62.6452 44.2521 62.6208 44.1993C62.5965 44.1464 62.561 44.0994 62.5168 44.0613C62.4726 44.0233 62.4207 43.9952 62.3647 43.9789C62.3087 43.9625 62.2498 43.9584 62.192 43.9667C62.1322 43.9785 62.0755 44.0023 62.0254 44.0368C61.9753 44.0713 61.9329 44.1157 61.9007 44.1672C61.5918 44.8315 61.323 45.5135 61.0956 46.2096L61.2068 46.3996C61.4452 46.8429 61.6517 47.2968 61.8424 47.7559C61.9007 47.587 61.9589 47.4182 62.0119 47.2282C62.0543 47.2282 62.0966 47.2282 62.1443 47.2704L62.4091 47.339C62.6528 47.3865 62.8805 47.4498 63.1242 47.4973C64.925 47.8984 66.8317 48.0778 68.087 46.4418C69.5806 44.5683 70.5393 42.0035 71.3179 39.7236C71.4291 39.3911 71.5457 39.0428 71.6516 38.6681L71.2543 37.9398Z" fill="#080224"/>
<path d="M64.4748 31.4168C65.211 32.219 65.211 33.6017 64.9197 34.5833C64.7668 35.1982 64.4466 35.7591 63.9943 36.2042C63.542 36.6493 62.9751 36.9613 62.3562 37.106C62.2714 37.106 62.3138 37.2432 62.3562 37.2432C64.2047 37.4859 65.5341 35.1902 65.5818 33.1795C65.5837 32.8043 65.5392 32.4303 65.4494 32.066C65.9136 32.4063 66.3015 32.8395 66.5881 33.3378C66.7017 33.5486 66.7905 33.7718 66.8529 34.0028C66.8705 34.0728 66.9152 34.133 66.9773 34.1701C67.0394 34.2072 67.1137 34.2182 67.184 34.2007C67.2542 34.1832 67.3146 34.1386 67.3518 34.0768C67.3891 34.0149 67.4001 33.9408 67.3826 33.8709C67.3342 33.6423 67.2669 33.4181 67.1813 33.2006C66.959 32.6433 66.6278 32.1356 66.2068 31.7071C66.7841 31.6298 67.3475 31.4716 67.8805 31.2374C67.7816 31.0439 67.6757 30.8486 67.5627 30.6516C66.694 30.9788 65.6824 31.1793 65.068 30.9049L65.0256 30.8574L64.6231 30.6358C65.5307 30.616 66.4317 30.4776 67.3031 30.2241L67.1813 30.0975C66.9748 29.9708 66.7629 29.8441 66.5457 29.728C65.8289 29.8974 65.095 29.9842 64.3583 29.9866C63.6458 29.9954 62.9348 29.921 62.2397 29.765C62.0503 29.7018 61.8575 29.6489 61.6623 29.6067C61.6623 29.6067 61.6623 29.6067 61.62 29.6067C60.6458 29.3247 59.7245 28.8862 58.8922 28.3084C58.0595 27.9803 57.2824 27.5264 56.5882 26.9626C56.6765 27.6382 56.7507 28.319 56.8107 29.005C54.1201 28.7359 51.3765 28.2451 49.8458 25.8596C49.7981 25.8174 49.7557 25.7963 49.7133 25.8174C49.6948 25.8218 49.6777 25.8306 49.6634 25.843C49.649 25.8555 49.638 25.8713 49.6312 25.889C49.6244 25.9067 49.6221 25.9258 49.6244 25.9446C49.6267 25.9634 49.6336 25.9813 49.6445 25.9969C50.7356 27.8915 52.5841 28.8942 54.6126 29.385C54.4961 29.633 54.4537 29.9128 54.3213 30.1925C54.1889 30.4722 53.9876 30.8152 53.7917 31.1055C53.7917 31.1055 53.7917 31.1741 53.8393 31.1477C54.1489 30.9482 54.4008 30.6717 54.5703 30.3455C54.7516 30.0742 54.8809 29.7718 54.9516 29.4536C55.4389 29.5644 55.9527 29.633 56.4664 29.7017C56.8213 29.7439 57.1973 29.765 57.5257 29.8125C57.4624 30.668 57.1677 31.4905 56.673 32.1926C56.6041 32.2823 56.7154 32.3721 56.7789 32.3035C57.4753 31.6765 57.899 30.8037 57.96 29.8705C59.4434 29.9502 60.9137 30.1891 62.3456 30.583C63.0798 30.7945 63.7926 31.0736 64.4748 31.4168Z" fill="#080224"/>
<path d="M66.9482 35.1902C66.0107 37.7551 64.1622 39.7183 62.9811 42.1512C62.96 42.2004 62.9491 42.2534 62.9491 42.3069C62.9491 42.3604 62.96 42.4134 62.9811 42.4626C63.0712 42.6843 63.3625 42.8426 63.5584 42.5998C64.1534 41.84 64.6966 41.0413 65.1845 40.2091C65.5446 39.6075 65.8995 39.027 66.2438 38.4464C66.8476 37.4173 67.3349 36.4146 67.0912 35.1902C67.0912 35.1713 67.0837 35.1532 67.0703 35.1399C67.0569 35.1265 67.0387 35.119 67.0197 35.119C67.0008 35.119 66.9826 35.1265 66.9692 35.1399C66.9558 35.1532 66.9482 35.1713 66.9482 35.1902Z" fill="#080224"/>
<path d="M89.1937 39.7289H96.0157V31.3852H100.957C108.208 31.3852 112.89 27.1632 112.89 20.6086C112.89 14.0539 108.208 9.78973 100.957 9.78973H89.1937V39.7289ZM95.9733 25.5272V15.7322H100.401C103.96 15.7322 105.936 17.5318 105.936 20.6508C105.936 23.7698 103.96 25.5272 100.401 25.5272H95.9733Z" fill="white"/>
<path d="M117.737 39.7289H137.71V33.3537H124.575V9.78973H117.737V39.7289Z" fill="white"/>
<path d="M154.744 40.3305C162.556 40.3305 167.323 35.4541 167.323 27.4112V9.78973H160.485V26.9415C160.485 31.5118 158.552 33.8709 154.733 33.8709C150.914 33.8709 148.992 31.5118 148.992 26.9415V9.78973H142.17V27.4112C142.17 35.4541 146.931 40.3305 154.744 40.3305Z" fill="white"/>
<path d="M181.444 39.7289H188.271V16.1597H197.805V9.78973H171.915V16.1597H181.449L181.444 39.7289Z" fill="white"/>
<path d="M216.946 40.3305C226.348 40.3305 233 33.9131 233 24.7566C233 15.6002 226.348 9.18808 216.946 9.18808C207.545 9.18808 200.935 15.6055 200.935 24.7566C200.935 33.9078 207.545 40.3305 216.946 40.3305ZM207.889 24.7566C207.889 19.3683 211.623 15.6477 216.946 15.6477C222.269 15.6477 226.003 19.3683 226.003 24.7566C226.003 30.145 222.296 33.8709 216.946 33.8709C211.597 33.8709 207.889 30.1502 207.889 24.7566Z" fill="white"/>
<path d="M94.2784 64H97.986V51.2338H103.15V47.7823H89.109V51.2338H94.2784V64Z" fill="white"/>
<path d="M115.851 64H119.559V47.7823H115.851V54.015H109.495V47.7823H105.788V64H109.495V57.4665H115.851V64Z" fill="white"/>
<path d="M123.457 64H134.41V60.8757H127.117V57.3293H133.526V54.2472H127.117V50.8908H134.14V47.7823H123.441L123.457 64Z" fill="white"/>
<path d="M142.403 63.5831H146.11V59.0656H148.785C152.715 59.0656 155.247 56.7751 155.247 53.2287C155.247 49.6822 152.715 47.3654 148.785 47.3654H142.429L142.403 63.5831ZM146.079 55.8938V50.5846H148.473C150.4 50.5846 151.47 51.561 151.47 53.2498C151.47 54.9386 150.411 55.8885 148.473 55.8885L146.079 55.8938Z" fill="white"/>
<path d="M157.863 63.5831H168.679V60.1316H161.544V47.3654H157.837L157.863 63.5831Z" fill="white"/>
<path d="M169.516 63.5831H173.472L174.563 60.7807H181.025L182.121 63.5831H186.073L179.611 47.3654H175.983L169.516 63.5831ZM175.517 57.8834L177.794 51.9568L180.082 57.8834H175.517Z" fill="white"/>
<path d="M188.234 63.5831H191.909V53.6456L199.097 63.5831H202.232V47.3654H198.562V57.2343L191.374 47.3654H188.234V63.5831Z" fill="white"/>
<path d="M206.141 63.5831H217.095V60.4588H209.812V56.9123H216.21V53.8303H209.812V50.4738H216.835V47.3654H206.141V63.5831Z" fill="white"/>
<path d="M224.139 63.5831H227.847V50.8169H233.011V47.3654H218.975V50.8169H224.139V63.5831Z" fill="white"/>
</g>
<defs>
<radialGradient id="paint0_radial_6_155" cx="0" cy="0" r="1" gradientUnits="userSpaceOnUse" gradientTransform="translate(25.1426 17.3418) scale(39.3533 39.2117)">
<stop stop-color="#FFF5D9"/>
<stop offset="1" stop-color="#F7BB6A"/>
</radialGradient>
<radialGradient id="paint1_radial_6_155" cx="0" cy="0" r="1" gradientUnits="userSpaceOnUse" gradientTransform="translate(25.4128 17.3207) scale(38.188 38.0506)">
<stop stop-color="#FFF5D9"/>
<stop offset="1" stop-color="#DBA65E"/>
</radialGradient>
<clipPath id="clip0_6_155">
<rect width="233" height="64" fill="white"/>
</clipPath>
</defs>
</svg>
