<svg width="308" height="85" viewBox="0 0 308 85" fill="none" xmlns="http://www.w3.org/2000/svg">
<g clip-path="url(#clip0_18_689)">
<path d="M94.7643 44.0806C96.1646 46.8071 95.2404 50.0944 94.3303 52.7929C93.294 55.8139 92.0268 59.2203 90.0594 61.7156C88.379 63.8183 85.8585 63.6081 83.492 63.0754C83.142 63.0193 82.8479 62.9282 82.5538 62.8721L82.1968 62.781C82.1373 62.7631 82.0789 62.742 82.0217 62.7179C82.0217 62.7179 82.0217 62.7179 81.9657 62.7179C81.4195 64.3846 80.7886 66.0222 80.0753 67.6243C78.9889 70.3374 77.6084 72.9229 75.9585 75.3344C74.4251 77.5782 72.5924 79.6015 70.5114 81.3482C70.4728 81.4251 70.4233 81.4959 70.3644 81.5585C70.3644 81.5585 70.2453 81.6146 70.2173 81.5585C68.5203 82.906 66.5668 83.8933 64.4761 84.4603C64.3401 84.4977 64.2022 84.5281 64.0631 84.5514C63.979 84.5514 63.916 84.5514 63.832 84.6075C63.8177 84.6139 63.8022 84.6172 63.7865 84.6172C63.7708 84.6172 63.7553 84.6139 63.741 84.6075C63.2503 84.6146 62.7595 84.5959 62.2707 84.5514C62.2393 84.6592 62.1724 84.7532 62.0809 84.8181C61.9893 84.883 61.8786 84.915 61.7666 84.9089C58.854 84.9089 56.0604 81.6146 57.2927 78.6848C57.7688 77.6124 59.2391 76.4629 60.4433 76.582C60.7114 76.6186 60.9716 76.6991 61.2135 76.8203C61.9136 74.8648 63.1249 73.0284 63.951 71.1289C64.4761 69.9443 64.9172 68.7598 65.3513 67.5402C65.7854 66.3206 66.4716 64.9678 66.4435 63.7202C65.9431 64.513 65.3812 65.2653 64.7632 65.9701C63.0292 68.7706 60.7099 71.1618 57.9648 72.9793C55.2273 74.8788 51.8106 76.4839 48.4289 75.3554C45.9224 74.4933 43.7449 71.6756 45.1872 69.0472C46.2164 67.1477 48.898 66.7061 50.1652 68.3042L50.9284 67.5332C50.9284 67.0285 51.4885 66.3767 51.7265 66.0543L51.9856 65.6968C50.8094 65.8159 49.6611 65.9001 48.4849 65.9351C46.0694 65.9912 43.4789 65.9351 41.2454 64.7786C41.2094 64.7642 41.1768 64.7426 41.1496 64.715C41.1224 64.6873 41.1012 64.6544 41.0874 64.6181C41.0736 64.5819 41.0674 64.5432 41.0693 64.5045C41.0712 64.4657 41.0811 64.4278 41.0984 64.3931C40.6528 64.2772 40.1985 64.1975 39.7401 64.1548C39.7129 64.2208 39.6724 64.2804 39.6211 64.33C37.5206 66.5519 33.4738 63.9515 31.4084 62.9282C29.8541 62.1572 27.7326 61.5263 26.4654 60.2577C25.4082 59.1923 25.2891 57.6503 24.498 56.4657C24.435 56.3746 24.498 56.2905 24.61 56.2905C24.4714 56.0876 24.3742 55.8594 24.3237 55.6189C24.2732 55.3783 24.2706 55.1302 24.3159 54.8887C24.3762 54.7297 24.407 54.5611 24.407 54.391C23.9309 53.9144 23.4968 53.4097 23.0487 52.9401C21.946 51.7754 21.0339 50.4436 20.3461 48.994C19.7107 47.5674 19.3884 46.021 19.4009 44.4591C19.4009 42.2932 20.1011 40.2536 19.576 38.1508C19.576 38.0877 19.639 38.0877 19.639 38.1508C19.6662 37.4339 19.9103 36.7421 20.3391 36.1672C17.6016 33.1112 19.457 28.0717 21.3403 25.0157C23.9029 20.8733 28.2017 18.7635 31.5274 15.3851C31.5675 15.3418 31.6192 15.3109 31.6763 15.2961C31.7334 15.2813 31.7936 15.2833 31.8496 15.3017C31.9057 15.3202 31.9553 15.3544 31.9925 15.4002C32.0297 15.4461 32.0529 15.5016 32.0595 15.5603C32.5846 15.2099 33.2078 14.8594 33.7679 14.4108C34.0899 11.7403 39.0049 10.8221 40.9513 10.3806C44.011 9.63758 47.7497 9.39927 50.1932 11.7824C50.6355 11.8881 51.0904 11.9305 51.5445 11.9086C51.5036 11.8025 51.4891 11.6881 51.5023 11.5753C51.5154 11.4624 51.5557 11.3544 51.6198 11.2606C51.6839 11.1668 51.7697 11.09 51.8701 11.0368C51.9704 10.9836 52.0821 10.9556 52.1956 10.9553C55.8527 11.0291 59.4102 12.161 62.4387 14.2146C64.0075 15.2713 65.4664 16.483 66.7936 17.8313C68.2639 19.2822 69.3281 21.0064 70.6794 22.5484C70.6854 22.5537 70.6902 22.5602 70.6934 22.5674C70.6967 22.5747 70.6984 22.5825 70.6984 22.5905C70.6984 22.5985 70.6967 22.6063 70.6934 22.6136C70.6902 22.6208 70.6854 22.6273 70.6794 22.6326C70.9613 23.009 71.2163 23.4048 71.4426 23.8171C71.5336 23.9082 71.6246 23.9713 71.7086 24.0554C72.3545 20.9817 74.0294 18.2209 76.4561 16.2299C78.8829 14.239 81.916 13.1373 85.0534 13.1071C88.7004 13.1201 92.1932 14.5815 94.7648 17.1704C97.3364 19.7593 98.7766 23.2641 98.7692 26.9151C98.7741 29.0522 98.2819 31.1611 97.3316 33.0748C96.3812 34.9885 94.9989 36.6544 93.294 37.9405C92.8671 39.1484 92.0647 40.1876 91.0046 40.9054C92.6132 41.4508 93.9563 42.5851 94.7643 44.0806Z" fill="#B5C6DA"/>
<path d="M74.9294 30.4758C75.2235 31.3028 75.4615 32.165 75.7486 32.9921C76.3997 34.8635 77.898 36.1672 79.6694 37.1485C79.712 37.1796 79.7426 37.2243 79.7563 37.2753C79.77 37.3262 79.7658 37.3803 79.7446 37.4286C79.7233 37.4769 79.6863 37.5164 79.6395 37.5407C79.5927 37.565 79.539 37.5725 79.4873 37.562C78.4457 37.2444 77.469 36.7436 76.6028 36.0831C76.7218 36.2583 76.8688 36.3845 76.9878 36.6158C77.1068 36.8471 77.3379 37.0504 77.5199 37.3167C78.7387 38.2159 80.1029 38.8988 81.5528 39.3353C90.0875 36.784 89.4434 24.9035 88.6172 19.2962L88.3512 19.2121C84.3463 17.9084 79.7254 17.8733 75.5735 18.3499C73.9535 20.1786 72.8831 22.4287 72.4859 24.8404C72.6609 25.1348 72.836 25.4642 73.011 25.7866C73.0053 25.6571 73.0171 25.5275 73.046 25.4011C73.2771 23.8031 74.1943 22.7026 75.1045 21.434C75.1955 21.2868 75.3705 21.3989 75.3145 21.5531C74.71 22.6644 74.2824 23.8634 74.0472 25.1068C73.9366 26.0016 74.0057 26.9095 74.2503 27.7772C74.2653 27.6664 74.2863 27.5564 74.3133 27.4478C74.3133 27.3287 74.4603 27.3637 74.4603 27.4478C74.5275 28.469 74.6845 29.4822 74.9294 30.4758Z" fill="#7091B2"/>
<path d="M75.9865 17.8169C76.1616 17.6417 76.3156 17.4945 76.4906 17.3403C78.073 16.6394 80.8175 15.9384 82.4629 16.5693C82.5819 16.6043 82.6099 16.4221 82.5259 16.394C81.3774 15.9718 80.1359 15.8701 78.9341 16.0997L77.9889 16.1908C80.0953 14.7723 82.5778 14.018 85.1164 14.025C87.4046 14.0337 89.6491 14.6534 91.6183 15.8202C93.5875 16.987 95.2101 18.6586 96.3187 20.6626C95.0321 19.6699 93.5885 18.9 92.0478 18.3846C91.9568 18.3496 91.9288 18.4688 91.9918 18.5318C93.2319 19.0652 94.3895 19.7733 95.4295 20.6346C96.1636 21.4334 96.8244 22.2966 97.4039 23.2139C97.5229 23.5714 97.607 23.9569 97.698 24.3354C95.9056 21.6719 92.5799 19.8636 89.8074 18.7281C87.5484 17.8742 85.1574 17.4235 82.7429 17.3964C80.4823 17.2096 78.2066 17.3513 75.9865 17.8169ZM64.4762 84.474C64.3401 84.5114 64.2022 84.5418 64.0631 84.5651C64.2022 84.5418 64.3401 84.5114 64.4762 84.474ZM83.4641 63.103C83.142 63.047 82.8479 62.9559 82.5259 62.8998C82.8129 62.9559 83.114 63.047 83.4641 63.103ZM51.0264 67.4347L50.2563 68.2057L51.0264 67.4347ZM81.9938 62.6895C81.9938 62.6895 81.9938 62.6895 82.0498 62.6895C82.0315 62.684 82.012 62.684 81.9938 62.6895ZM63.79 84.4179C65.9048 83.1339 67.922 81.6955 69.8253 80.1143C69.7852 79.9978 69.7261 79.8888 69.6502 79.7918C69.246 79.1488 68.7372 78.5778 68.1449 78.1026C68.1449 78.1026 68.1449 78.0115 68.2079 78.0396C68.9645 78.4759 69.6339 79.0486 70.1823 79.7288C70.1823 79.7638 70.1823 79.7638 70.1823 79.7918C71.5243 78.6326 72.7464 77.341 73.8301 75.9368C72.5014 74.0335 70.6817 72.5267 68.565 71.5771C68.446 71.521 68.502 71.3458 68.621 71.4019C70.8755 72.0979 72.8528 73.4888 74.2712 75.3761L75.1534 74.1284C75.7408 73.2479 76.283 72.3378 76.7777 71.4019C74.8352 69.4458 72.406 68.0448 69.7413 67.3436C69.7256 67.3387 69.7119 67.3289 69.7022 67.3157C69.6924 67.3024 69.6872 67.2864 69.6872 67.27C69.6872 67.2536 69.6924 67.2375 69.7022 67.2243C69.7119 67.2111 69.7256 67.2013 69.7413 67.1964C72.5289 67.479 75.1417 68.6881 77.1628 70.6309C77.8857 69.2249 78.5331 67.7813 79.1022 66.3062C80.0754 63.7829 80.6635 61.0914 81.8117 58.6592C81.8522 58.5905 81.9068 58.5311 81.972 58.4852C82.0372 58.4393 82.1115 58.4078 82.1898 58.3929C82.5077 57.7012 82.8629 57.0273 83.254 56.3743C83.223 56.3098 83.2069 56.2391 83.2069 56.1675C83.2069 56.0959 83.223 56.0252 83.254 55.9607C84.8433 52.7295 87.2869 50.1501 88.4911 46.7156C88.4965 46.6966 88.508 46.6799 88.5238 46.6679C88.5396 46.656 88.5588 46.6496 88.5786 46.6496C88.5984 46.6496 88.6176 46.656 88.6334 46.6679C88.6492 46.6799 88.6607 46.6966 88.6661 46.7156C88.9952 48.3137 88.3441 49.6735 87.5529 51.0403C87.0838 51.8113 86.6357 52.6103 86.1526 53.3813C85.9776 55.1897 83.5901 59.3111 85.2984 59.8158C86.4817 60.1732 87.77 59.4022 88.6241 58.7153C89.0372 57.9513 89.3943 57.1453 89.7443 56.3182C90.5705 54.3346 91.4527 52.2879 92.0968 50.2412C91.3547 52.7926 90.8576 55.3089 89.8004 57.741L89.7093 57.9163C90.0664 58.2457 90.8576 57.8602 91.3897 57.5308C92.0898 56.0799 92.6849 54.5729 93.2451 53.0589C94.0922 50.6268 95.0934 47.8091 94.3303 45.2297C94.2743 45.0545 94.2113 44.9073 94.1553 44.7321C93.9595 44.5306 93.7437 44.3497 93.5111 44.1923C93.4208 44.1203 93.3141 44.0717 93.2005 44.0509C93.0869 44.0301 92.9699 44.0378 92.86 44.0732C93.1424 45.2403 93.0492 46.4668 92.5939 47.5778H92.5379C92.6973 46.4507 92.5844 45.3018 92.2089 44.2274C92.2089 44.2274 92.2088 44.1433 92.1528 44.0802C91.5647 43.5475 90.3255 42.6784 89.4433 43.2812C89.1266 43.4986 88.873 43.796 88.7081 44.1433C88.8265 44.4303 88.9156 44.7285 88.9742 45.0334C88.9974 45.1264 88.9828 45.2248 88.9335 45.3069C88.8843 45.3891 88.8045 45.4483 88.7116 45.4715C88.6188 45.4948 88.5205 45.4801 88.4385 45.4308C88.3564 45.3815 88.2973 45.3016 88.2741 45.2087C88.1928 44.8992 88.0753 44.6004 87.924 44.3185C87.7367 44.1197 87.4918 43.9849 87.2238 43.933C87.1118 43.9155 86.9972 43.9255 86.8899 43.9621C86.7826 43.9987 86.6857 44.0609 86.6077 44.1433C86.5447 46.8068 84.7803 49.8628 82.3368 49.5333C82.2458 49.5333 82.1898 49.3581 82.3368 49.3581C83.153 49.1634 83.9001 48.748 84.4965 48.1571C85.0928 47.5663 85.5156 46.8227 85.7185 46.0077C86.1036 44.704 86.1036 42.8676 85.1304 41.8022C84.2334 41.3409 83.2959 40.9631 82.3298 40.6738C80.4349 40.1483 78.489 39.8287 76.5257 39.7205C76.4512 40.96 75.8929 42.1206 74.9713 42.9517C74.9623 42.9638 74.9508 42.9737 74.9376 42.981C74.9244 42.9882 74.9098 42.9925 74.8948 42.9935C74.8797 42.9946 74.8647 42.9924 74.8506 42.9871C74.8365 42.9819 74.8237 42.9736 74.8131 42.963C74.8024 42.9523 74.7942 42.9395 74.7889 42.9254C74.7837 42.9113 74.7815 42.8962 74.7826 42.8812C74.7836 42.8662 74.7879 42.8515 74.7951 42.8383C74.8023 42.8251 74.8123 42.8136 74.8243 42.8045C75.4875 41.8913 75.8937 40.8165 76.0005 39.6925C75.5244 39.6364 75.0273 39.6084 74.5582 39.5453C73.8858 39.4714 73.2175 39.3638 72.5558 39.2229C72.4645 39.6462 72.2935 40.0482 72.0517 40.4074C71.8277 40.8406 71.4947 41.2079 71.0855 41.4728C71.0505 41.4728 70.9945 41.4728 71.0225 41.4097C71.2767 41.0179 71.5104 40.6132 71.7227 40.1971C71.8977 39.8467 71.9537 39.4962 72.1077 39.1317C69.4262 38.4799 66.9827 37.1481 65.5404 34.6249C65.5258 34.6048 65.5165 34.5814 65.5133 34.5568C65.5102 34.5322 65.5133 34.5072 65.5224 34.4841C65.5315 34.4611 65.5462 34.4407 65.5653 34.4248C65.5843 34.409 65.6071 34.3982 65.6314 34.3936C65.4699 34.1082 65.2824 33.8383 65.0713 33.5875L65.2463 33.8889C65.2463 33.945 65.1903 34.0361 65.1273 33.973C64.8613 33.6506 64.4272 33.0828 63.9511 33.1179C63.8798 33.1214 63.8103 33.1416 63.7483 33.1769C63.6863 33.2122 63.6334 33.2616 63.594 33.3211C63.51 33.5034 63.657 33.6155 63.741 33.7627C63.7961 33.8193 63.8285 33.8941 63.8321 33.973C64.041 34.1388 64.2291 34.3295 64.3922 34.5407C64.1439 34.4414 63.9087 34.312 63.692 34.1552C63.5655 34.1376 63.4504 34.0724 63.37 33.973C62.9973 33.7488 62.5643 33.646 62.1307 33.6786C62.06 33.6838 61.991 33.7028 61.9277 33.7347C61.7456 34.5407 61.7176 35.3678 62.1027 35.6973C62.9569 36.3982 63.811 35.3398 65.1343 35.5501C66.4576 35.7603 65.1343 36.9519 64.9313 38.2416C64.7282 39.5313 69.5242 43.9961 72.5488 45.8605C75.5734 47.725 80.5305 45.2087 79.9703 46.5614C79.4102 47.9142 79.4102 47.4166 81.0906 47.8301C82.7709 48.2436 79.2632 50.6828 77.0577 51.1805C74.8523 51.6781 74.5232 52.0987 76.1476 54.0262C77.7719 55.9537 80.0894 56.7247 79.3822 58.0915C78.6751 59.4583 73.6691 56.2551 71.3166 57.0822C68.9641 57.9093 72.9339 59.7457 72.2618 60.5447C74.4293 61.3257 76.501 62.3509 78.437 63.6007C78.5 63.6007 78.437 63.7479 78.381 63.7198C76.5537 62.6264 74.2292 62.0306 72.1708 61.4699L70.7285 61.1124C68.7891 61.526 65.6034 61.8834 63.9581 62.8647C61.6896 64.2245 62.2497 64.4909 60.6324 64.4909C59.0151 64.4909 60.4223 66.7758 58.574 66.124C56.7256 65.4721 54.8352 65.353 54.9822 66.7758C55.1293 68.1987 52.1817 71.3388 50.7814 70.9813C49.3811 70.6239 49.5211 68.8786 47.8128 68.9977C47.1909 69.0741 46.601 69.3162 46.1044 69.6987C46.07 69.7539 46.0485 69.8162 46.0414 69.8809C45.8773 70.5296 45.9072 71.2123 46.1275 71.8442C46.3479 72.476 46.7489 73.029 47.2807 73.4345C49.2831 75.1237 52.1817 74.7382 54.4081 73.792C54.4641 73.757 54.5551 73.7289 54.6112 73.7009C54.6059 72.6686 54.3359 71.6549 53.827 70.757C53.771 70.6729 53.918 70.5818 53.974 70.6379C54.6479 71.4135 55.1278 72.3385 55.3743 73.3364C56.7652 72.5751 58.0927 71.7032 59.3441 70.729C59.2601 70.5257 59.2321 70.3155 59.1411 70.0281C58.9951 69.5726 58.7977 69.1352 58.553 68.7244C58.0446 67.8306 57.323 67.0768 56.4525 66.5305C56.3685 66.4674 56.4525 66.3483 56.5436 66.3833C57.4969 66.7536 58.3318 67.3762 58.959 68.1847C59.4401 68.8008 59.771 69.5208 59.9252 70.2874C60.8144 69.5865 61.6966 68.8856 62.4878 68.1847C62.4175 68.1109 62.3775 68.0133 62.3757 67.9113C62.4068 67.4683 62.3255 67.0246 62.1395 66.6215C61.9534 66.2183 61.6686 65.8688 61.3115 65.6053C61.2275 65.5422 61.3115 65.367 61.4026 65.4231C61.9051 65.5654 62.3415 65.8806 62.6348 66.3132C62.8991 66.7196 63.0513 67.1887 63.0759 67.673C63.9152 66.9009 64.6666 66.0382 65.3164 65.1007C65.1413 65.4231 64.9663 65.7175 64.7842 66.0188C65.4119 65.3194 65.9744 64.5639 66.4646 63.7619C66.4646 63.7266 66.4786 63.6927 66.5035 63.6677C66.5285 63.6428 66.5623 63.6287 66.5976 63.6287C66.6329 63.6287 66.6667 63.6428 66.6917 63.6677C66.7166 63.6927 66.7306 63.7266 66.7306 63.7619C67.1087 66.131 65.9045 68.6263 65.0853 70.8131C64.2661 73 63.433 75.6214 61.9627 77.4578C62.5668 78.1297 63.1369 78.8315 63.671 79.5605C63.9021 79.8269 63.524 80.2124 63.2859 79.946C62.7505 79.1513 62.0295 78.4993 61.1855 78.0466C59.9743 77.5419 58.679 78.5232 58.4409 79.7358C57.9718 81.9647 60.0933 83.4716 61.9417 83.8922C62.0136 83.9106 62.0807 83.9443 62.1384 83.991C62.1962 84.0377 62.2433 84.0962 62.2765 84.1627C62.3097 84.2291 62.3282 84.302 62.3308 84.3762C62.3335 84.4505 62.3201 84.5245 62.2917 84.5931C62.7803 84.6411 63.2713 84.6599 63.762 84.6492C63.7366 84.6379 63.7151 84.6194 63.7003 84.5959C63.6854 84.5724 63.6779 84.545 63.6786 84.5172C63.6794 84.4894 63.6884 84.4624 63.7045 84.4397C63.7206 84.4171 63.7431 84.3997 63.769 84.3898L63.79 84.4179ZM90.9346 39.9168C91.43 39.5654 91.8752 39.148 92.2579 38.6761C90.2041 39.9481 87.8461 40.6429 85.4315 40.6878C85.6065 40.7789 85.7815 40.898 85.9566 40.9892C85.9916 40.9892 86.0196 40.9892 86.0476 40.9892C87.2938 41.5849 89.8844 40.6177 90.9346 39.9168ZM68.649 56.2551C68.3425 56.681 68.008 57.0861 67.6478 57.4677C68.0112 57.0796 68.348 56.6675 68.656 56.2341L68.649 56.2551ZM91.4667 32.6623C94.1413 31.0292 94.1693 26.0176 92.6429 23.6205C92.5869 23.5294 92.4049 23.5574 92.4049 23.6766C92.5162 25.1393 92.4763 26.6097 92.2859 28.0643C92.0548 29.5432 91.2006 30.7908 90.9626 32.2698C90.9346 32.5501 91.2076 32.8165 91.4737 32.6413L91.4667 32.6623ZM88.9042 35.6482C88.9602 35.7673 89.0512 35.8024 89.1702 35.8585C89.2473 35.8842 89.3303 35.8867 89.4087 35.8655C89.4872 35.8443 89.5576 35.8004 89.6113 35.7393C89.8611 35.468 90.0795 35.1694 90.2625 34.8491C90.3528 34.7135 90.4213 34.5645 90.4655 34.4076C90.4927 34.2499 90.4927 34.0887 90.4655 33.9309C90.464 33.9166 90.4576 33.9032 90.4474 33.893C90.4372 33.8828 90.4238 33.8764 90.4095 33.8749C90.2555 33.9309 90.1714 33.9309 90.0244 33.994C89.8894 34.0831 89.7607 34.1815 89.6393 34.2884C89.4083 34.5267 89.1422 34.7931 88.9392 35.0594C88.8837 35.1427 88.8518 35.2394 88.8469 35.3394C88.8419 35.4394 88.8641 35.5388 88.9112 35.6272L88.9042 35.6482Z" fill="white"/>
<path d="M51.5866 11.7402C51.5473 11.6351 51.5339 11.5221 51.5473 11.4107C51.5608 11.2993 51.6007 11.1928 51.6638 11.1001C51.727 11.0074 51.8114 10.9312 51.91 10.8779C52.0087 10.8246 52.1187 10.7958 52.2307 10.794C55.8882 10.8653 59.4464 11.9975 62.4738 14.0532C64.0433 15.1119 65.5044 16.3234 66.8357 17.6699C68.306 19.1208 69.3632 20.8381 70.7215 22.3801C70.7278 22.3878 70.732 22.397 70.7335 22.4068C70.7351 22.4166 70.7341 22.4266 70.7305 22.4359C70.727 22.4451 70.721 22.4533 70.7133 22.4595C70.7056 22.4657 70.6963 22.4698 70.6865 22.4712C69.4192 21.1114 67.8859 20.039 66.5346 18.7984C65.1795 17.6076 63.7405 16.516 62.2288 15.5322C59.28 13.5134 55.8154 12.3824 52.2447 12.2729C52.092 12.2682 51.945 12.2136 51.8262 12.1174C51.7073 12.0212 51.6232 11.8887 51.5866 11.7402ZM33.7749 14.6841C33.7741 14.7656 33.7974 14.8455 33.8419 14.9138C33.8864 14.9822 33.95 15.0358 34.0248 15.068C34.0997 15.1002 34.1823 15.1096 34.2624 15.0949C34.3425 15.0802 34.4165 15.0421 34.4751 14.9854C35.4133 14.2074 36.0014 13.2612 37.1496 12.6654C38.4747 12.0632 39.8561 11.5936 41.2735 11.2636C44.3331 10.4295 47.4277 10.1001 50.1653 11.9645C50.3123 12.0556 50.4874 11.8453 50.3403 11.7262L50.2213 11.607C47.7778 9.2099 44.039 9.4412 40.9794 10.2052C39.033 10.6818 34.118 11.572 33.796 14.2355L33.7749 14.6841ZM21.1724 35.312C19.289 31.8074 21.5574 26.9571 23.7349 24.0973C26.1504 20.9853 29.4761 18.7003 31.9826 15.6864C32.061 15.604 32.1102 15.4981 32.1226 15.385C32.1177 15.3262 32.0957 15.2701 32.0593 15.2237C32.0229 15.1773 31.9737 15.1426 31.9178 15.124C31.8619 15.1053 31.8017 15.1035 31.7448 15.1187C31.6878 15.134 31.6366 15.1656 31.5975 15.2097C28.2718 18.5601 23.9659 20.6629 21.4104 24.8123C19.527 27.8683 17.6716 32.8728 20.4092 35.9288C20.7943 36.4124 21.5014 35.8377 21.2004 35.333L21.1724 35.312ZM27.5367 55.1409C26.7385 53.8933 25.5343 53.0381 24.5331 52.0008C23.384 50.8584 22.4032 49.558 21.6205 48.1387C19.9961 44.9986 20.7383 41.2628 19.6741 37.9685C19.6741 37.9124 19.5831 37.9685 19.6181 37.9685C20.1152 40.1273 19.471 42.174 19.436 44.2767C19.4241 45.8385 19.7464 47.3848 20.3812 48.8116C21.0743 50.2578 21.9884 51.5868 23.0908 52.7508C23.5319 53.2274 23.9729 53.732 24.442 54.2017C25.1106 54.8956 25.8859 55.4777 26.7385 55.9259C27.2706 56.1993 27.9217 55.6946 27.5647 55.1619L27.5367 55.1409ZM39.166 63.2294C37.8834 63.6196 36.51 63.5902 35.2452 63.1453C33.7189 62.5846 32.2766 61.8136 30.7993 61.1267C29.448 60.5029 27.6837 60.0333 26.6825 58.8768C25.9824 58.0497 25.4783 57.0123 24.7361 56.1782C24.7361 56.1782 24.7361 56.1782 24.6801 56.1782C24.6241 56.1782 24.5051 56.2694 24.5611 56.3535C25.3592 57.538 25.4782 59.08 26.5355 60.1524C27.8027 61.4211 29.8891 62.0449 31.4785 62.8159C33.5369 63.8252 37.6047 66.4326 39.6912 64.2177C39.741 64.1669 39.7813 64.1076 39.8102 64.0425C39.85 63.9483 39.864 63.8451 39.8507 63.7436C39.8374 63.6422 39.7972 63.5461 39.7344 63.4654C39.6716 63.3847 39.5884 63.3222 39.4934 63.2844C39.3984 63.2466 39.2951 63.2349 39.1941 63.2505L39.166 63.2294ZM50.9985 67.6172C51.4676 67.6803 52.0837 66.9653 52.3987 66.6709C52.9519 66.2996 53.4494 65.8512 53.8761 65.3392C54.4362 65.2481 54.9963 65.157 55.5494 65.0448C57.8477 64.5963 60.063 63.7948 62.1167 62.6687C63.1222 62.0669 64.0775 61.3848 64.9733 60.6291C65.2114 60.4188 65.4704 60.2435 65.6735 60.0613C67.3188 60.4468 68.9991 60.7132 70.6515 61.0987L72.0938 61.4561C74.1242 62.0169 76.4767 62.5846 78.304 63.7061C78.3601 63.7061 78.4161 63.65 78.3601 63.5869C76.4229 62.3366 74.3485 61.3136 72.1778 60.5379C70.4872 59.9143 68.7438 59.4451 66.9687 59.1361C67.2677 58.9205 67.553 58.6864 67.8229 58.4352C67.8971 58.3628 67.9506 58.2719 67.9778 58.1719C68.0051 58.0718 68.0052 57.9663 67.9781 57.8662C67.9509 57.7662 67.8976 57.6752 67.8235 57.6027C67.7495 57.5302 67.6574 57.4788 67.5568 57.4539C67.4514 57.425 67.3402 57.425 67.2348 57.4539C65.2884 57.7763 63.6711 59.7389 62.0817 60.8043C60.1637 62.0443 58.0426 62.9364 55.8154 63.4397C51.2785 64.5402 46.0694 65.0448 41.4765 64.0916C41.3951 64.0832 41.3131 64.102 41.2435 64.1451C41.1738 64.1882 41.1204 64.2532 41.0914 64.3299C41.0752 64.3648 41.0661 64.4026 41.0647 64.441C41.0634 64.4795 41.0697 64.5178 41.0834 64.5538C41.0972 64.5897 41.1179 64.6226 41.1446 64.6503C41.1712 64.6781 41.2031 64.7002 41.2385 64.7154C43.4509 65.8439 46.0344 65.928 48.4849 65.8719C49.6551 65.8518 50.8235 65.7723 51.9857 65.6336L51.7196 65.991C51.4886 66.3135 50.9284 67.0004 50.9284 67.47C50.9693 67.5209 51.0023 67.5776 51.0265 67.6382L50.9985 67.6172ZM61.9207 83.8364C60.0933 83.4158 57.9719 81.9088 58.42 79.6799C58.686 78.4673 59.9813 77.4861 61.1646 77.9907C62.0086 78.4435 62.7295 79.0955 63.265 79.8902C63.503 80.1565 63.8811 79.771 63.6501 79.5047C63.1459 78.9159 62.5858 78.0258 61.9417 77.4019C63.412 75.5656 64.2382 72.9511 65.0643 70.7573C65.8905 68.5634 67.0877 66.0752 66.7097 63.7061C66.7097 63.6707 66.6957 63.6369 66.6707 63.6119C66.6458 63.5869 66.6119 63.5729 66.5766 63.5729C66.5414 63.5729 66.5075 63.5869 66.4826 63.6119C66.4576 63.6369 66.4436 63.6707 66.4436 63.7061C66.4436 64.9537 65.7435 66.3766 65.3514 67.5331C64.9593 68.6896 64.4412 69.9302 63.9511 71.1147C63.1249 73.0142 61.8507 74.8506 61.2135 76.8062C60.9725 76.6841 60.7118 76.6057 60.4434 76.5749C59.2392 76.4487 57.7689 77.5772 57.2928 78.6776C56.0605 81.6074 58.8541 84.9017 61.7667 84.9017C61.8767 84.8991 61.9834 84.8637 62.0732 84.8C62.163 84.7364 62.2318 84.6473 62.2708 84.5443C62.3828 84.2709 62.2988 83.9135 61.9487 83.8574L61.9207 83.8364ZM65.3024 64.9817C64.6275 65.8995 63.8806 66.762 63.0689 67.5611C63.0354 67.0775 62.8813 66.61 62.6208 66.2013C62.3229 65.7732 61.8883 65.4593 61.3886 65.3112C61.3654 65.2991 61.3383 65.2967 61.3134 65.3046C61.2884 65.3125 61.2676 65.33 61.2556 65.3532C61.2435 65.3765 61.2411 65.4035 61.249 65.4285C61.2569 65.4535 61.2744 65.4743 61.2976 65.4864C61.6549 65.7509 61.9394 66.1018 62.1243 66.5063C62.3092 66.9109 62.3885 67.3558 62.3548 67.7994C62.3702 67.8985 62.414 67.991 62.4808 68.0658C61.6546 68.7667 60.8005 69.4676 59.9183 70.1685C59.7598 69.402 59.4267 68.6824 58.9451 68.0658C58.31 67.2637 57.4776 66.6406 56.5296 66.2574C56.4456 66.2574 56.3546 66.3485 56.4456 66.4046C57.3088 66.9598 58.0285 67.7116 58.546 68.5985C58.796 69.0066 58.9936 69.4446 59.1341 69.9022C59.2251 70.1685 59.2532 70.3788 59.3442 70.6031C58.0864 71.5696 56.7569 72.4389 55.3674 73.2035C55.1209 72.2077 54.6409 71.285 53.9671 70.5119C53.9111 70.4208 53.764 70.512 53.82 70.6311C54.3412 71.5242 54.6435 72.5283 54.7022 73.5609C54.6462 73.5609 54.5552 73.624 54.4992 73.6521C52.2587 74.6333 49.3741 74.9838 47.3717 73.2946C46.8423 72.895 46.4419 72.3484 46.2203 71.7228C45.9988 71.0972 45.9658 70.4202 46.1255 69.776C46.1557 69.7219 46.1747 69.6623 46.1815 69.6008C46.3105 69.2264 46.55 68.9 46.8684 68.6649C47.1868 68.4297 47.569 68.2969 47.9644 68.284C48.3598 68.2711 48.7498 68.3787 49.0828 68.5925C49.4158 68.8064 49.6761 69.1164 49.8292 69.4816C50.0673 69.9863 50.8934 69.6288 50.7184 69.0961C50.6015 68.7624 50.4313 68.4499 50.2143 68.1709C48.947 66.5728 46.2445 67.0214 45.2433 68.9139C43.801 71.5844 45.9784 74.402 48.4779 75.2221C51.8666 76.3786 55.2483 74.7455 58.0139 72.853C60.7533 71.0263 63.0731 68.637 64.8193 65.8439C65.0147 65.5648 65.1812 65.2665 65.3164 64.9537L65.3024 64.9817ZM84.0242 56.5357C84.8123 55.5277 85.5304 54.4668 86.1737 53.3606C86.6428 52.5615 87.1189 51.7905 87.574 51.0195C88.3651 49.6597 89.0162 48.328 88.6872 46.6949C88.6817 46.6758 88.6702 46.6591 88.6545 46.6471C88.6387 46.6352 88.6194 46.6288 88.5997 46.6288C88.5799 46.6288 88.5606 46.6352 88.5448 46.6471C88.529 46.6591 88.5176 46.6758 88.5121 46.6949C87.2799 50.1013 84.8364 52.7087 83.2751 55.9399C83.2439 56.0056 83.2278 56.0775 83.2278 56.1502C83.2278 56.2229 83.2439 56.2948 83.2751 56.3605C83.4081 56.6759 83.7932 56.8862 84.0522 56.5567L84.0242 56.5357ZM94.7364 44.0594C96.1367 46.786 95.2125 50.0733 94.3023 52.7718C93.2661 55.7927 91.9988 59.1992 90.0314 61.6944C88.3511 63.7972 85.8306 63.5869 83.4641 63.0542C83.142 62.9981 82.848 62.907 82.5259 62.8509L82.1688 62.7598C82.1094 62.7419 82.051 62.7209 81.9938 62.6967C81.45 64.3633 80.8213 66.0009 80.1104 67.6032C79.0187 70.3151 77.636 72.9002 75.9866 75.3132C74.4531 77.557 72.6205 79.5804 70.5395 81.3271C70.5008 81.4039 70.4513 81.4747 70.3924 81.5374C70.3924 81.5374 70.2734 81.5934 70.2454 81.5374C68.5484 82.8849 66.5949 83.8722 64.5042 84.4391C64.3852 84.4742 64.2452 84.5022 64.0981 84.5303L63.8601 84.5863C63.8309 84.5984 63.7982 84.5984 63.7691 84.5863C63.7503 84.5727 63.735 84.5548 63.7244 84.5341C63.7139 84.5134 63.7084 84.4904 63.7084 84.4672C63.7084 84.4439 63.7139 84.421 63.7244 84.4003C63.735 84.3796 63.7503 84.3617 63.7691 84.348C65.8837 83.0664 67.9009 81.6303 69.8043 80.0514C69.7659 79.9342 69.7066 79.825 69.6293 79.729C69.225 79.0859 68.7162 78.515 68.124 78.0398C68.124 78.0047 68.124 77.9487 68.187 77.9767C68.9466 78.4087 69.6168 78.982 70.1614 79.6659C70.1614 79.6659 70.1614 79.6659 70.1614 79.729C71.5034 78.5697 72.7255 77.2782 73.8091 75.874C72.4821 73.9708 70.6617 72.4659 68.544 71.5213C68.425 71.4582 68.481 71.283 68.6001 71.339C70.8545 72.0351 72.8318 73.4259 74.2502 75.3132L75.1324 74.0656C75.7205 73.1754 76.2526 72.2853 76.7567 71.339C74.8142 69.383 72.385 67.9819 69.7203 67.2807C69.6999 67.2807 69.6803 67.2726 69.6658 67.2582C69.6514 67.2437 69.6433 67.2241 69.6433 67.2036C69.6433 67.1832 69.6514 67.1636 69.6658 67.1491C69.6803 67.1347 69.6999 67.1265 69.7203 67.1265C72.5075 67.4158 75.1189 68.6268 77.1418 70.568C77.8647 69.1621 78.5121 67.7185 79.0812 66.2434C80.0544 63.7201 80.6425 61.0216 81.7908 58.5964C81.8312 58.5276 81.8859 58.4683 81.9511 58.4223C82.0163 58.3764 82.0905 58.3449 82.1688 58.33C82.2459 58.3166 82.325 58.3204 82.4005 58.3411C82.476 58.3618 82.5459 58.3989 82.6054 58.4498C82.665 58.5007 82.7125 58.564 82.7448 58.6354C82.777 58.7068 82.7931 58.7844 82.792 58.8627C82.6749 59.8099 82.4877 60.747 82.2319 61.6664C82.2989 61.6528 82.3679 61.6528 82.4349 61.6664C83.5058 61.9983 84.5983 62.2559 85.7046 62.4374C85.7046 62.3463 85.8236 62.2902 85.9426 62.2271C87.0628 61.9047 87.854 60.1244 88.3861 59.1431C88.4701 58.9679 88.5611 58.8207 88.6452 58.6384C89.0583 57.8745 89.4153 57.0684 89.7654 56.2413C90.5915 54.2577 91.4737 52.2111 92.1249 50.1644C91.3897 52.7157 90.8856 55.232 89.8284 57.6642C89.8284 57.7202 89.7724 57.7833 89.7374 57.8394C89.1493 59.2412 88.2671 61.4842 86.9368 62.4654C88.4071 62.4024 89.2893 61.337 90.0245 60.1244C90.5379 59.2596 91.0053 58.3681 91.4247 57.4539C92.1249 56.003 92.72 54.496 93.2801 52.9821C94.1343 50.5499 95.1355 47.7322 94.3653 45.1528C94.3093 44.9776 94.2533 44.8304 94.1903 44.6552C93.7367 43.5475 92.9548 42.6056 91.9498 41.9567C91.8325 41.872 91.7056 41.8014 91.5718 41.7464C91.9054 42.159 92.2095 42.5947 92.4819 43.0501C92.6614 43.3503 92.8115 43.6672 92.93 43.9963C93.2091 45.1637 93.116 46.3892 92.664 47.5009H92.601C92.7629 46.3744 92.6524 45.2255 92.2789 44.1505C92.2789 44.1505 92.2789 44.0664 92.2159 44.0033C91.7748 43.0851 90.8156 41.6062 89.7444 41.424C89.0149 41.7526 88.2411 41.9723 87.4479 42.0758C88.017 42.646 88.4689 43.3222 88.7782 44.0664C88.8911 44.3547 88.9778 44.6527 89.0372 44.9566C89.0605 45.0495 89.0458 45.1479 88.9966 45.2301C88.9473 45.3122 88.8675 45.3714 88.7747 45.3947C88.6818 45.4179 88.5836 45.4033 88.5015 45.354C88.4195 45.3047 88.3603 45.2248 88.3371 45.1318C88.2535 44.822 88.1337 44.5233 87.98 44.2416C87.604 43.5799 87.0936 43.0045 86.4817 42.5524C86.6002 43.0364 86.659 43.5331 86.6568 44.0314C86.6008 46.7019 84.8294 49.7579 82.3859 49.4284C82.3019 49.4284 82.2389 49.2532 82.3859 49.2532C83.2024 49.0575 83.9497 48.6418 84.5471 48.0512C85.1444 47.4607 85.5689 46.7177 85.7746 45.9028C86.1526 44.5991 86.1527 42.7627 85.1865 41.6973C84.2873 41.2426 83.3502 40.8673 82.3859 40.5759C80.4938 40.0493 78.5498 39.732 76.5887 39.6296C76.5099 40.8675 75.9493 42.0251 75.0274 42.8538C75.0183 42.8659 75.0068 42.8759 74.9936 42.8831C74.9804 42.8903 74.9658 42.8946 74.9508 42.8956C74.9358 42.8967 74.9207 42.8945 74.9066 42.8893C74.8925 42.884 74.8797 42.8757 74.8691 42.8651C74.8584 42.8544 74.8502 42.8416 74.845 42.8275C74.8397 42.8134 74.8375 42.7983 74.8386 42.7833C74.8397 42.7683 74.8439 42.7537 74.8511 42.7404C74.8583 42.7272 74.8683 42.7157 74.8803 42.7066C75.5436 41.7934 75.9498 40.7186 76.0566 39.5946C75.5875 39.5385 75.0834 39.5035 74.6143 39.4474C73.9141 39.3563 73.263 39.2722 72.6119 39.118C72.5227 39.5408 72.354 39.9428 72.1148 40.3025C71.8898 40.7392 71.5542 41.109 71.1416 41.3749C71.1416 41.3749 71.0506 41.3749 71.0856 41.3188C71.3166 40.9333 71.5547 40.5128 71.7857 40.0992C72.0168 39.6857 72.0238 39.3563 72.1708 39.0338C69.4893 38.382 67.0527 37.0503 65.6035 34.527C65.5948 34.5045 65.5913 34.4803 65.5932 34.4563C65.5951 34.4322 65.6024 34.4089 65.6145 34.3881C65.6266 34.3673 65.6432 34.3494 65.6631 34.3358C65.683 34.3222 65.7057 34.3133 65.7295 34.3097C65.7855 34.3097 65.8485 34.3097 65.9045 34.3728C67.9069 37.5129 71.5617 38.1647 75.1184 38.4871C74.9589 36.3955 74.6642 34.3165 74.2362 32.263C73.871 31.1686 73.5763 30.0518 73.354 28.9196C73.179 28.3519 72.9689 27.8192 72.7659 27.2585C72.2968 26.0459 71.4987 24.7983 71.2956 23.4946C71.3516 23.5506 71.4146 23.5787 71.4707 23.6417C71.5267 23.7048 71.6457 23.7889 71.7367 23.8801C72.4106 20.8221 74.1038 18.0846 76.538 16.1178C78.9722 14.151 82.0024 13.0719 85.1304 13.0579C88.7781 13.0728 92.2709 14.5357 94.8423 17.1257C97.4137 19.7158 98.8537 23.2213 98.8462 26.873C98.8495 29.0098 98.3566 31.1181 97.4064 33.0315C96.4562 34.9449 95.0748 36.6111 93.3711 37.8984C92.9402 39.1061 92.1357 40.1447 91.0747 40.8632C92.6337 41.4853 93.9349 42.6199 94.7644 44.0804L94.7364 44.0594ZM74.9014 30.4546C75.1674 31.2817 75.4334 32.1438 75.7205 32.9709C76.4518 34.7902 77.8385 36.2685 79.6063 37.1133C79.6611 37.1366 79.7044 37.1806 79.7267 37.2359C79.749 37.2911 79.7485 37.3529 79.7253 37.4077C79.7021 37.4626 79.6581 37.5059 79.603 37.5283C79.5478 37.5506 79.4861 37.5501 79.4313 37.5269C78.3897 37.2092 77.4129 36.7084 76.5467 36.048C76.6657 36.2232 76.8127 36.4054 76.9318 36.5806C77.1207 36.8035 77.296 37.0376 77.4569 37.2816C78.6708 38.1888 80.0364 38.8724 81.4897 39.3002C81.5247 39.3002 81.5527 39.3002 81.5527 39.3002C81.8118 39.3563 82.0498 39.4194 82.3159 39.5035C83.223 39.7105 84.151 39.8117 85.0814 39.8049C88.4952 39.7919 91.7647 38.4252 94.174 36.004C96.5833 33.5828 97.9361 30.3045 97.9361 26.887V26.5295C97.0541 24.6607 95.6289 23.102 93.8472 22.0577C92.2049 20.9045 90.4242 19.9626 88.5471 19.254L88.2881 19.1699C84.2833 17.8662 79.6903 17.8312 75.5105 18.3078C73.8886 20.1361 72.8158 22.386 72.4158 24.7983C72.62 25.0978 72.7981 25.4144 72.9479 25.7445C72.9479 25.6253 72.9479 25.4781 72.9479 25.359C73.186 23.7609 74.0962 22.6394 75.0064 21.3918C75.0974 21.2727 75.3074 21.3568 75.2164 21.511C74.6386 22.6341 74.2124 23.8291 73.9491 25.0646C73.8399 25.9599 73.9113 26.868 74.1592 27.7351C74.1592 27.6159 74.1592 27.5248 74.2152 27.4057C74.2201 27.39 74.2299 27.3763 74.2431 27.3665C74.2563 27.3568 74.2723 27.3515 74.2887 27.3515C74.3051 27.3515 74.3211 27.3568 74.3343 27.3665C74.3476 27.3763 74.3573 27.39 74.3622 27.4057C74.5163 28.457 74.6913 29.4664 74.9294 30.4757L74.9014 30.4546ZM75.9586 17.7961C78.1756 17.3431 80.4423 17.1829 82.7009 17.3195C85.1187 17.3196 87.5149 17.7737 89.7654 18.6582C92.5659 19.8147 95.8566 21.6231 97.656 24.2656C97.565 23.8801 97.474 23.5226 97.3619 23.1371C96.78 22.2236 96.1194 21.3629 95.3875 20.5647C94.3394 19.7019 93.181 18.9829 91.9428 18.4269C91.8588 18.4269 91.9428 18.2517 91.9988 18.2797C93.5466 18.7818 94.9927 19.5555 96.2697 20.5647C95.1626 18.559 93.5405 16.8855 91.5711 15.7174C89.6018 14.5492 87.3565 13.9288 85.0674 13.9201C82.5329 13.9259 80.0563 14.6792 77.947 16.0859L78.8852 16.0018C80.0874 15.7822 81.3263 15.8837 82.4769 16.2962C82.5001 16.3036 82.5194 16.32 82.5306 16.3416C82.5417 16.3633 82.5438 16.3886 82.5364 16.4118C82.529 16.435 82.5126 16.4544 82.491 16.4655C82.4693 16.4767 82.4441 16.4788 82.4209 16.4714C80.7405 15.8476 78.038 16.5275 76.4417 17.2424C76.318 17.4546 76.1648 17.6482 75.9866 17.8171L75.9586 17.7961ZM86.0336 41.0244C87.3009 41.6202 89.8634 40.6109 90.9346 39.896C91.43 39.5446 91.8752 39.1272 92.2579 38.6554C90.2041 39.9273 87.8461 40.6221 85.4315 40.667C85.6065 40.7581 85.7816 40.8773 85.9566 40.9684L86.0336 41.0244ZM93.4481 35.0667C96.1857 32.221 95.7166 27.8052 95.0375 24.3076C95.0375 24.2165 94.8904 24.2515 94.8904 24.3427C94.9794 26.1225 94.8927 27.9068 94.6314 29.6696C94.2866 31.3878 93.6797 33.0426 92.832 34.576C92.7762 34.6576 92.7533 34.7572 92.7677 34.855C92.7821 34.9528 92.8329 35.0415 92.9098 35.1035C92.9867 35.1655 93.0842 35.1961 93.1827 35.1893C93.2812 35.1824 93.3735 35.1387 93.4411 35.0667H93.4481ZM90.8576 37.4988C91.2427 37.4988 91.5998 37.0853 91.8308 36.7979C92.0816 36.4686 92.2888 36.1082 92.4469 35.7255C92.4819 35.6695 92.4469 35.6414 92.3909 35.6695C92.1091 35.9299 91.8045 36.1645 91.4807 36.3704C91.3513 36.4714 91.213 36.5605 91.0677 36.6367C90.8926 36.7559 90.7106 36.819 90.6266 36.9942C90.5967 37.0402 90.5788 37.0929 90.5745 37.1476C90.5702 37.2023 90.5796 37.2572 90.6019 37.3073C90.6241 37.3575 90.6585 37.4012 90.702 37.4347C90.7454 37.4681 90.7965 37.4902 90.8506 37.4988H90.8576ZM64.5742 32.8448C64.4352 32.732 64.2657 32.6631 64.0875 32.6469C63.9092 32.6306 63.7302 32.6678 63.573 32.7536C63.4376 32.8195 63.3269 32.9274 63.2575 33.0613C63.1882 33.1951 63.1638 33.3478 63.188 33.4966C62.1307 33.055 60.8915 33.2303 60.5974 34.6531C60.4347 35.5381 60.5599 36.452 60.9545 37.2605C61.4236 38.1787 62.2148 38.4451 63.0549 38.8025C63.0842 38.8139 63.1167 38.8139 63.1459 38.8025C63.3343 39.5708 63.7667 40.2571 64.3782 40.7581C64.729 41.3716 65.1123 41.9659 65.5264 42.5384C66.4184 43.6956 67.3842 44.7936 68.418 45.8257C69.4314 46.9123 70.5218 47.9243 71.6807 48.8537C71.09 50.0564 70.5687 51.292 70.1194 52.5545C69.5378 53.6896 69.0281 54.8601 68.5931 56.0591C68.5802 56.0978 68.5802 56.1396 68.5931 56.1782C68.6491 56.2694 68.7401 56.3254 68.8241 56.2413C69.297 55.8801 69.7227 55.461 70.0914 54.9937C72.8976 55.1416 75.6307 55.9432 78.073 57.3347C78.129 57.3347 78.164 57.2787 78.129 57.2436C76.7236 56.292 75.2129 55.5065 73.6271 54.9026C72.7084 54.5058 71.7365 54.246 70.7425 54.1316C70.9805 53.7741 71.2116 53.3886 71.4426 53.0381C71.8153 52.4167 72.1497 51.773 72.4438 51.1106C72.4438 51.1106 72.4999 51.1667 72.5279 51.1667C72.9476 51.4846 73.4223 51.7222 73.9281 51.8676C73.9509 51.8726 73.9748 51.8698 73.9958 51.8597C74.0169 51.8496 74.0339 51.8328 74.0444 51.8119C74.0548 51.791 74.058 51.7672 74.0534 51.7443C74.0489 51.7214 74.0368 51.7007 74.0192 51.6854C73.651 51.3815 73.3747 50.9811 73.221 50.5289C73.137 50.3256 73.074 50.0873 72.9829 49.905C74.7193 51.2087 77.989 50.0242 79.4313 48.9308C79.5503 48.8397 79.4943 48.6084 79.3122 48.6644C78.2563 49.0605 77.1472 49.2968 76.0216 49.3653L75.8115 49.2742C76.1391 49.2384 76.4528 49.1225 76.7251 48.9367C76.9974 48.7509 77.2198 48.501 77.3729 48.2088C77.3711 48.1933 77.3637 48.179 77.3521 48.1687C77.3405 48.1583 77.3254 48.1527 77.3098 48.1528C76.0776 48.9238 74.9013 48.6294 73.6061 48.4191C71.8067 47.3817 70.1894 45.6154 68.8661 44.3608C67.0962 42.7303 65.4444 40.976 63.9231 39.1109C63.6888 38.5823 63.6649 37.984 63.8562 37.4383C64.0474 36.8925 64.4395 36.4404 64.9523 36.1741C65.0363 36.1741 64.9523 35.9709 64.8613 35.9989C64.407 36.1561 64.0046 36.4354 63.6983 36.8063C63.3921 37.1772 63.1937 37.6254 63.1249 38.1016C63.0988 38.0501 63.0683 38.0009 63.0339 37.9544C62.9032 37.7936 62.8348 37.5909 62.8412 37.3837C62.8477 37.1764 62.9285 36.9784 63.0689 36.826C63.0764 36.8176 63.0802 36.8066 63.0795 36.7955C63.0789 36.7843 63.0738 36.7738 63.0654 36.7664C63.0571 36.7589 63.0461 36.7551 63.0349 36.7558C63.0238 36.7565 63.0133 36.7615 63.0059 36.7699C62.809 36.8887 62.6564 37.0689 62.5717 37.2829C62.487 37.4969 62.4747 37.7328 62.5368 37.9544C62.2574 37.8357 61.9977 37.675 61.7667 37.4778C61.3059 36.949 61.0284 36.2851 60.9755 35.5853C60.8845 34.7793 61.0315 33.9242 61.8857 33.6859C61.9487 33.6859 62.0327 33.6859 62.0957 33.6228C62.5303 33.5884 62.9646 33.694 63.335 33.9242C63.3703 33.9774 63.4182 34.0212 63.4743 34.0518C63.5304 34.0823 63.5932 34.0987 63.6571 34.0994C63.8832 34.2406 64.117 34.3693 64.3572 34.4849C64.3572 34.4849 64.4132 34.4849 64.3572 34.4849C64.2137 34.2616 64.0253 34.0706 63.8041 33.9242C63.7981 33.8459 63.7661 33.7718 63.7131 33.7139C63.622 33.5947 63.482 33.4476 63.566 33.2723C63.6055 33.2122 63.6582 33.162 63.7201 33.1256C63.782 33.0891 63.8515 33.0674 63.9231 33.0621C64.3922 33.0621 64.8333 33.5947 65.0993 33.9242C65.1554 33.9802 65.2464 33.9242 65.2184 33.8331C65.1904 33.7419 65.0993 33.6228 65.0363 33.5387C64.9396 33.2721 64.7784 33.0337 64.5672 32.8448H64.5742ZM41.2245 22.3941C41.0488 21.792 40.7286 21.242 40.2916 20.7924C39.8547 20.3428 39.3144 20.0071 38.718 19.8148C37.1286 19.219 35.1822 18.5952 33.5369 19.1909C33.4459 19.1909 33.4459 19.3662 33.5369 19.3662L34.237 19.4573C36.3375 19.6956 39.138 19.9619 40.1252 21.9455C40.4318 22.6079 40.5807 23.3325 40.56 24.0623C40.5394 24.7921 40.3498 25.5071 40.0062 26.151C39.3621 27.3005 38.2979 27.8963 37.2057 28.5762C36.9956 28.7304 37.0586 29.1439 37.3527 29.1089C37.4717 29.1089 37.5557 29.1089 37.6467 29.1089C40.5243 28.6323 41.9876 25.0226 41.2245 22.3941ZM26.2344 28.2888C25.8869 27.105 25.9088 25.8431 26.2974 24.6721C26.6472 23.5848 27.2891 22.6148 28.1528 21.8684C28.1528 21.8334 28.1528 21.7773 28.0898 21.8053C26.7973 22.4809 25.8016 23.6129 25.2957 24.9819C24.7899 26.3508 24.81 27.8591 25.3522 29.214C26.3534 32.0177 29.9451 32.6275 32.3536 31.3168C32.3999 31.2829 32.4376 31.2386 32.4636 31.1875C32.4895 31.1363 32.5031 31.0798 32.5031 31.0224C32.5031 30.965 32.4895 30.9084 32.4636 30.8573C32.4376 30.8061 32.3999 30.7618 32.3536 30.728C32.327 30.7025 32.2948 30.6835 32.2596 30.6725C32.2243 30.6616 32.187 30.659 32.1506 30.6649C29.7701 30.8051 27.0886 31.2116 26.2064 28.3098L26.2344 28.2888ZM34.6361 30.0061C34.5224 29.9476 34.3964 29.9172 34.2685 29.9172C34.1407 29.9172 34.0147 29.9476 33.901 30.0061C33.7862 30.0264 33.6752 30.0642 33.5719 30.1182C33.4592 30.1901 33.3516 30.2698 33.2498 30.3565C33.2273 30.3691 33.2077 30.3862 33.192 30.4067C33.1764 30.4272 33.1651 30.4506 33.1588 30.4757C33.1588 30.5668 33.2218 30.6229 33.3129 30.6579C33.4039 30.693 33.5159 30.714 33.6349 30.714C33.7606 30.728 33.8874 30.728 34.013 30.714C34.1428 30.7073 34.2717 30.6885 34.3981 30.6579C34.4724 30.6501 34.5437 30.6243 34.6059 30.5828C34.6681 30.5413 34.7193 30.4853 34.7551 30.4196C34.7955 30.3688 34.8174 30.3058 34.8174 30.2409C34.8174 30.176 34.7955 30.113 34.7551 30.0621L34.6361 30.0061ZM42.4357 22.296C43.1359 23.9221 42.8208 25.5833 43.1359 27.2444C43.1359 27.4547 43.4929 27.4197 43.5209 27.2444C43.9654 25.2533 43.6718 23.1683 42.6948 21.3778C41.6376 19.6535 39.7542 18.9176 37.8358 18.6512C38.8419 18.8436 39.786 19.2786 40.5863 19.9186C41.3866 20.5586 42.019 21.3842 42.4287 22.324L42.4357 22.296ZM28.1598 34.562C28.0968 33.4405 26.9205 33.2022 26.1294 32.6415C25.332 32.0556 24.7231 31.2493 24.3773 30.3216C24.0315 29.3939 23.964 28.3853 24.183 27.4197C24.183 27.4197 24.183 27.3636 24.127 27.4197C23.641 28.763 23.7038 30.2439 24.302 31.5411C25.0021 33.02 26.4514 33.791 27.6277 34.8284C27.6749 34.8637 27.7306 34.8856 27.7892 34.892C27.8477 34.8984 27.9069 34.8889 27.9606 34.8645C28.0142 34.8402 28.0604 34.8019 28.0942 34.7536C28.128 34.7053 28.1482 34.6488 28.1528 34.59L28.1598 34.562ZM49.1641 21.8825C49.7856 22.5817 50.583 23.1014 51.4733 23.3874C52.3636 23.6734 53.3142 23.7152 54.2261 23.5086C55.6264 23.2142 57.4328 22.1488 57.7899 20.6348C58.1469 19.1208 56.9637 17.2564 55.6894 16.4293C54.9271 15.9477 54.0353 15.7122 53.1349 15.7548C52.2345 15.7974 51.3689 16.1161 50.6554 16.6676C50.5364 16.7237 50.6554 16.8709 50.7464 16.8429C51.2523 16.6048 51.8048 16.4827 52.3637 16.4854C53.2192 16.4378 54.0695 16.6452 54.8072 17.0812C56.0115 17.7821 57.2507 19.5414 56.3335 20.9923C54.8983 23.2703 51.5726 22.4993 49.8922 21.1395C49.8572 21.1395 49.8292 21.0834 49.8012 21.0834C49.747 21.0401 49.6847 21.008 49.6181 20.9888C49.5514 20.9696 49.4817 20.9638 49.4128 20.9716C49.3438 20.9794 49.2771 21.0007 49.2164 21.0343C49.1558 21.068 49.1023 21.1132 49.0591 21.1675C49.0159 21.2218 48.9837 21.2841 48.9646 21.3508C48.9454 21.4176 48.9396 21.4874 48.9474 21.5564C48.9552 21.6254 48.9765 21.6922 49.0101 21.7529C49.0436 21.8137 49.0888 21.8672 49.1431 21.9105L49.1641 21.8825ZM49.2481 20.9572C49.2972 20.9291 49.3402 20.8913 49.3744 20.8461C49.4086 20.8009 49.4333 20.7492 49.447 20.6942C49.4607 20.6392 49.4632 20.582 49.4543 20.5261C49.4454 20.4701 49.4253 20.4165 49.3951 20.3685C49.3391 20.2493 49.3111 20.1302 49.2481 19.983C49.1851 19.8358 49.1011 19.5975 48.898 19.5975C48.695 19.5975 48.4849 19.8919 48.4849 20.1302C48.4743 20.3645 48.5462 20.5952 48.688 20.782C48.7035 20.8358 48.7312 20.8854 48.769 20.9268C48.8067 20.9681 48.8535 21.0002 48.9056 21.0206C48.9578 21.0409 49.0139 21.0489 49.0697 21.044C49.1254 21.0391 49.1793 21.0214 49.2271 20.9923L49.2481 20.9572ZM52.6648 25.4992C52.7112 25.4861 52.7527 25.4596 52.7841 25.423C52.8155 25.3864 52.8355 25.3414 52.8415 25.2935C52.8475 25.2456 52.8392 25.197 52.8177 25.1538C52.7963 25.1106 52.7626 25.0747 52.7208 25.0506C51.9577 24.6651 51.1035 24.4618 50.3403 24.0132C49.5443 23.532 48.8343 22.9208 48.2399 22.2049H48.1839C48.821 24.0413 50.6414 25.8987 52.6438 25.5272L52.6648 25.4992ZM58.581 19.9549C58.6801 20.7948 58.5468 21.6458 58.1959 22.4151C58.1399 22.4993 58.287 22.6464 58.378 22.5343C58.9398 21.8226 59.2626 20.9514 59.3003 20.0451C59.338 19.1388 59.0887 18.2437 58.588 17.4877C58.5425 17.4221 58.4756 17.3743 58.3988 17.3527C58.322 17.3311 58.24 17.337 58.1671 17.3694C58.0941 17.4018 58.0347 17.4586 57.9991 17.5301C57.9635 17.6016 57.9538 17.6832 57.9719 17.7611C58.1189 18.497 58.469 19.1839 58.56 19.983L58.581 19.9549ZM35.7073 53.8652C37.0306 51.1316 34.5311 48.8817 31.9406 48.9588C31.9282 48.9631 31.9175 48.9712 31.9099 48.9818C31.9023 48.9925 31.8983 49.0053 31.8983 49.0184C31.8983 49.0315 31.9023 49.0443 31.9099 49.0549C31.9175 49.0656 31.9282 49.0737 31.9406 49.078L32.2906 49.1621C34.09 49.6387 35.9734 51.1176 35.2032 53.1643C34.5871 54.8535 32.6127 56.2203 31.2054 54.7974C31.1286 54.7243 31.0583 54.6446 30.9954 54.5591C30.7923 54.2928 30.3793 54.5591 30.4423 54.8815C30.6166 55.3769 30.9699 55.7889 31.4324 56.0367C31.895 56.2844 32.4334 56.3499 32.9418 56.2203C33.5414 56.0569 34.0979 55.7638 34.5721 55.3618C35.0463 54.9597 35.4266 54.4584 35.6863 53.8933L35.7073 53.8652ZM30.4983 49.7438C29.9585 49.8754 29.4928 50.2156 29.203 50.6901C28.9369 51.1036 28.6429 51.8746 28.965 52.3232C29.0001 52.3802 29.0512 52.4257 29.1119 52.454C29.1726 52.4823 29.2402 52.4922 29.3064 52.4826C29.3727 52.4729 29.4346 52.444 29.4847 52.3995C29.5347 52.355 29.5707 52.2968 29.5881 52.2321C29.7351 51.8466 29.5881 51.433 29.7631 51.0125C29.9322 50.588 30.204 50.2122 30.5543 49.9191C30.6803 49.9191 30.5963 49.7298 30.4773 49.7719L30.4983 49.7438ZM29.7001 52.8279C29.6583 52.788 29.6046 52.7628 29.5472 52.7562C29.4898 52.7495 29.4317 52.7618 29.3819 52.7911C29.3321 52.8204 29.2932 52.8651 29.271 52.9186C29.2488 52.972 29.2446 53.0312 29.259 53.0872C29.294 53.2064 29.322 53.3255 29.35 53.4447C29.378 53.5638 29.5251 53.711 29.6721 53.683C29.7158 53.6844 29.7594 53.6771 29.8003 53.6614C29.8412 53.6458 29.8785 53.6221 29.9101 53.5919C29.9616 53.5375 29.9946 53.4683 30.0047 53.3941C30.0147 53.3199 30.0013 53.2444 29.9662 53.1783C29.8612 53.0872 29.7701 52.968 29.6791 52.8559L29.7001 52.8279ZM35.1752 48.8186C35.2382 48.8537 35.3293 48.7626 35.2662 48.7065C33.6209 46.835 27.6417 46.7439 27.6137 50.0382C27.6143 50.0858 27.6288 50.1322 27.6553 50.1717C27.6819 50.2113 27.7193 50.2422 27.7631 50.2608C27.8069 50.2794 27.8551 50.2848 27.902 50.2764C27.9488 50.268 27.9921 50.2461 28.0268 50.2134C29.056 48.9728 29.9382 48.321 31.5905 48.2299C32.8135 48.0609 34.0588 48.2764 35.1542 48.8467L35.1752 48.8186ZM27.7607 51.1597C27.6977 51.398 27.5227 51.5802 27.4667 51.8185C27.4106 52.0569 27.3476 52.3512 27.5507 52.5195C27.6047 52.5712 27.6734 52.6049 27.7473 52.6162C27.8212 52.6275 27.8968 52.6158 27.9638 52.5825C28.2298 52.4634 28.2298 52.162 28.2298 51.9307C28.2298 51.6994 28.1458 51.4821 28.1458 51.2298C28.1486 51.2031 28.146 51.1761 28.1384 51.1504C28.1307 51.1247 28.1181 51.1007 28.1012 51.0799C28.0843 51.0591 28.0634 51.0418 28.0399 51.029C28.0163 51.0162 27.9904 51.0082 27.9638 51.0055C27.9371 51.0027 27.9101 51.0052 27.8845 51.0129C27.8588 51.0206 27.8348 51.0332 27.814 51.0501C27.7932 51.0671 27.776 51.0879 27.7632 51.1115C27.7505 51.1351 27.7425 51.161 27.7397 51.1877L27.7607 51.1597ZM36.7365 53.1783C36.4586 54.2777 35.9582 55.3083 35.2662 56.2063C34.6531 56.8949 33.8229 57.3525 32.9138 57.503C32.6477 57.5941 32.5847 58.0427 32.9138 58.0987C33.4232 58.1287 33.932 58.031 34.3941 57.8143C34.8563 57.5977 35.2571 57.269 35.5603 56.8581C36.4775 55.7857 36.6245 54.5171 36.8556 53.1783C36.8346 53.1783 36.7435 53.1503 36.7155 53.2344L36.7365 53.1783ZM47.1897 43.2463C47.9528 43.723 47.9529 44.5501 47.8408 45.3491C47.5398 47.2416 45.9784 47.4518 44.3401 47.3046H44.2211C43.78 47.3958 43.843 48.1317 44.3401 48.1668C45.4323 48.2228 46.6716 48.2509 47.5538 47.543C47.9579 47.1534 48.2662 46.6753 48.4545 46.1462C48.6428 45.6172 48.706 45.0516 48.639 44.494C48.555 42.7137 46.0484 41.1716 44.6061 42.4753C44.4311 42.6506 44.6692 42.98 44.8722 42.8258C44.9553 42.7672 45.0445 42.7179 45.1383 42.6786C45.8655 42.6174 46.5895 42.8299 47.1687 43.2744L47.1897 43.2463ZM42.8908 43.8982C42.4777 44.5991 41.9806 45.7416 42.4217 46.5406C42.4489 46.5865 42.4888 46.6234 42.5367 46.6468C42.5845 46.6703 42.6381 46.6792 42.6909 46.6725C42.7438 46.6658 42.7935 46.6437 42.834 46.6091C42.8745 46.5745 42.904 46.5288 42.9188 46.4776C42.9783 46.0967 42.9783 45.7089 42.9188 45.3281C42.8865 44.8588 42.9171 44.3873 43.0098 43.9262C42.9888 43.8982 42.8978 43.8702 42.8698 43.9262L42.8908 43.8982ZM29.378 40.9684C28.9962 41.179 28.6892 41.5033 28.4998 41.8965C28.3104 42.2896 28.2478 42.7319 28.3208 43.1622C28.39 43.6045 28.5804 44.0189 28.8709 44.3592C29.1614 44.6995 29.5406 44.9524 29.9662 45.0898C31.6185 45.3561 33.5019 43.5127 32.3817 41.9146C32.3817 41.9146 32.2906 41.9146 32.3257 41.9146C32.451 42.1462 32.5065 42.4092 32.4854 42.6718C32.4643 42.9343 32.3674 43.1851 32.2066 43.3935C32.0638 43.578 31.8821 43.7288 31.6745 43.8351C31.2194 44.093 30.6974 44.2078 30.1762 44.1645C29.9176 44.0309 29.6995 43.8304 29.5444 43.5839C29.3892 43.3375 29.3028 43.0539 29.294 42.7627C29.2945 42.5849 29.3429 42.4106 29.4341 42.2581C29.5381 42.083 29.6679 41.9247 29.8191 41.7884C29.8821 41.7884 29.9102 41.6973 29.9662 41.6693C30.3933 41.3188 29.8261 40.8212 29.357 40.9964L29.378 40.9684ZM59.1972 45.8257C60.1703 47.2275 64.5602 48.4331 65.0013 46.064C65.0124 46.0003 65.0074 45.9348 64.9866 45.8736C64.9658 45.8123 64.9299 45.7573 64.8823 45.7136C64.8282 45.6685 64.7601 45.6439 64.6898 45.6439C64.6194 45.6439 64.5513 45.6685 64.4972 45.7136C63.0269 46.4846 61.1435 46.6037 59.9043 45.3C58.665 43.9963 58.7561 41.8936 59.7013 40.4427C60.0178 39.9359 60.4653 39.5242 60.9965 39.2511C61.0525 39.2511 60.9965 39.132 60.9335 39.132C58.357 39.7838 57.7969 43.8982 59.1761 45.8538L59.1972 45.8257ZM58.0279 40.2885C58.0909 40.2885 58.0279 40.1623 57.9719 40.1974C55.5284 41.2628 55.4094 45.5033 57.3208 47.1014C57.5868 47.3397 58.0209 47.0453 57.8249 46.7159C56.7956 44.9075 55.4374 41.5852 58.0279 40.2885ZM63.328 48.5242C62.1517 49.0009 60.7375 48.349 59.6242 47.9355C59.4702 47.8724 59.4142 48.0827 59.5332 48.1387C60.3874 48.7626 62.7959 50.3326 63.622 48.8817C63.6851 48.7345 63.538 48.4612 63.328 48.5242ZM54.9263 56.8231C53.3089 57.4749 50.5714 59.6267 52.0067 61.6243C52.0563 61.6834 52.1207 61.7281 52.1933 61.754C52.2659 61.7799 52.344 61.7859 52.4197 61.7715C52.5059 61.7627 52.5851 61.7202 52.6401 61.6533C52.6951 61.5863 52.7216 61.5004 52.7138 61.4141C52.3077 57.3558 57.5168 56.5077 60.8425 57.4469C61.368 57.5982 61.8717 57.8173 62.3408 58.0987C62.4038 58.0987 62.4598 58.0357 62.4038 58.0076C61.3675 57.1717 60.1304 56.6224 58.8159 56.4146C57.5014 56.2067 56.1554 56.3476 54.9123 56.8231H54.9263ZM55.9555 54.8956C55.895 54.9347 55.8501 54.9938 55.8287 55.0626C55.8072 55.1314 55.8104 55.2056 55.8379 55.2722C55.8654 55.3388 55.9153 55.3937 55.9789 55.4274C56.0426 55.461 56.1161 55.4712 56.1865 55.4563C57.5868 55.1899 58.8121 54.9236 60.2264 55.3441C61.4026 55.7588 62.4904 56.3913 63.433 57.2086C63.433 57.2086 63.489 57.2086 63.433 57.1455C61.6826 54.9586 58.679 53.2975 55.9275 54.8956H55.9555ZM52.2167 57.3277C52.5948 57.1455 52.9169 56.795 53.3089 56.5567C53.6688 56.3132 54.0509 56.1043 54.4502 55.9329C54.5412 55.9329 54.4852 55.7857 54.4502 55.7857C53.9709 55.7486 53.4899 55.8304 53.0499 56.024C52.5749 56.1922 52.1704 56.5156 51.9016 56.9422C51.8767 56.9879 51.8656 57.0399 51.8698 57.0918C51.8741 57.1437 51.8934 57.1932 51.9254 57.2342C51.9574 57.2752 52.0008 57.3059 52.0501 57.3226C52.0993 57.3392 52.1524 57.341 52.2027 57.3277H52.2167ZM48.1839 55.225C48.0369 55.225 47.9178 55.4283 48.0649 55.4913C48.2775 55.5899 48.4608 55.742 48.597 55.9329C48.826 56.3011 48.9398 56.7295 48.9236 57.163C48.9073 57.5964 48.7619 58.0151 48.5059 58.3651C48.2432 58.7734 47.8474 59.078 47.3857 59.2272C47.15 59.2716 46.9076 59.2652 46.6746 59.2084C46.4416 59.1516 46.2234 59.0457 46.0344 58.8978L45.8594 58.8067C45.7889 58.7729 45.7096 58.7619 45.6325 58.7752C45.5555 58.7884 45.4844 58.8252 45.4291 58.8806C45.3738 58.9359 45.3371 59.0071 45.3238 59.0842C45.3106 59.1613 45.3216 59.2407 45.3553 59.3113C46.1185 60.7132 48.2119 59.9351 48.9751 58.9328C49.9062 57.7413 49.9623 55.5825 48.1699 55.253L48.1839 55.225ZM46.3005 55.8768C46.3845 55.8768 46.3005 55.7296 46.2375 55.7296C45.9935 55.7496 45.7568 55.8226 45.5439 55.9437C45.3311 56.0648 45.1472 56.2309 45.0052 56.4306C44.7672 56.788 44.4731 57.4118 44.7952 57.7623C44.8167 57.7841 44.8423 57.8015 44.8706 57.8133C44.8988 57.8251 44.9291 57.8312 44.9597 57.8312C44.9903 57.8312 45.0207 57.8251 45.0489 57.8133C45.0772 57.8015 45.1028 57.7841 45.1243 57.7623C45.3553 57.496 45.2993 57.0614 45.4743 56.76C45.658 56.4032 45.9398 56.1065 46.2865 55.9049L46.3005 55.8768ZM49.2131 54.5381C49.1852 54.5381 49.1585 54.5492 49.1388 54.5689C49.1191 54.5886 49.1081 54.6153 49.1081 54.6432C49.1081 54.6711 49.1191 54.6979 49.1388 54.7176C49.1585 54.7373 49.1852 54.7484 49.2131 54.7484C49.3754 54.8041 49.5228 54.8963 49.6442 55.0177C49.7655 55.1392 49.8575 55.2868 49.9132 55.4493C49.9693 55.5755 50.0323 55.7226 50.0883 55.8698C50.1234 56.0122 50.1727 56.1508 50.2353 56.2834C50.2585 56.3135 50.2908 56.3353 50.3275 56.3454C50.3641 56.3555 50.403 56.3534 50.4384 56.3394C50.8234 56.0731 50.6484 55.3932 50.4384 55.0988C50.286 54.9213 50.0951 54.7811 49.8804 54.6888C49.6656 54.5964 49.4326 54.5545 49.1991 54.5661L49.2131 54.5381Z" fill="#080224"/>
<g style="mix-blend-mode:multiply" opacity="0.06">
<path d="M13.5197 67.1265C9.46424 63.6298 6.20739 59.3007 3.97012 54.433C1.73285 49.5654 0.567496 44.2729 0.553101 38.9147C0.553101 11.1164 28.6288 -6.57471 54.8352 3.16801C82.4348 13.4855 89.3313 46.078 69.2511 65.4724C54.2191 80.0234 29.7631 81.3902 13.5197 67.1265Z" fill="#F5F5F5"/>
</g>
<g style="mix-blend-mode:multiply" opacity="0.13">
<path d="M15.2211 66.9934C6.68636 60.2295 1.11322 50.1714 1.11322 38.6974C1.11322 11.6421 28.2158 -5.70556 53.778 3.41335C80.6495 13.0439 87.987 44.2206 69.3422 63.5168C62.3348 70.6717 52.9349 74.9837 42.9463 75.6253C32.9578 76.2669 23.0844 73.193 15.2211 66.9934Z" fill="#EAEAEA"/>
</g>
<g style="mix-blend-mode:multiply" opacity="0.19">
<path d="M16.9225 66.853C7.89061 60.4185 1.67334 50.3113 1.67334 38.4729C1.67334 12.1605 27.8027 -4.84369 52.7278 3.62337C78.8711 12.5671 86.6427 42.3419 69.4262 61.54C56.2565 76.2172 33.5579 78.7124 16.9225 66.853Z" fill="#E0E0E0"/>
</g>
<g style="mix-blend-mode:multiply" opacity="0.25">
<path d="M18.6238 66.7198C9.07386 60.6148 2.23346 50.4586 2.23346 38.2556C2.23346 12.6862 27.3826 -3.98153 51.6706 3.84068C77.0858 12.0975 85.2774 40.4915 69.5172 59.5564C57.2717 74.3317 35.3782 77.4298 18.6238 66.7198Z" fill="#D5D5D5"/>
</g>
<g style="mix-blend-mode:multiply" opacity="0.31">
<path d="M20.3252 66.5866C10.2361 60.8321 2.82159 50.6057 2.82159 38.0313C2.82159 13.2049 27.0045 -3.11241 50.6554 4.05095C75.3354 11.6208 84.0102 38.6481 69.6363 57.5728C58.2939 72.4603 37.1426 76.1892 20.3252 66.5866Z" fill="#CBCBCB"/>
</g>
<g style="mix-blend-mode:multiply" opacity="0.38">
<path d="M22.0265 66.4534C11.3773 61.0634 3.34668 50.7599 3.34668 37.814C3.34668 13.7306 26.5564 -2.2503 49.5561 4.26822C73.501 11.1442 82.6449 36.8257 69.6783 55.5892C59.3231 70.5958 38.8719 74.9625 22.0265 66.4534Z" fill="#C0C0C0"/>
</g>
<g style="mix-blend-mode:multiply" opacity="0.44">
<path d="M23.7208 66.3202C12.5185 61.3157 3.89978 50.9001 3.89978 37.5827C3.89978 14.2422 26.1433 -1.43729 48.5059 4.47142C71.7366 10.6185 81.3426 35.0103 69.7763 53.5986C60.3523 68.7524 40.5733 73.827 23.7208 66.3202Z" fill="#B6B6B6"/>
</g>
<g style="mix-blend-mode:multiply" opacity="0.5">
<path d="M25.4292 66.1802C13.6108 61.5962 4.4599 51.0544 4.4599 37.3656C4.4599 14.7751 25.7373 -0.567977 47.4627 4.6959C69.9583 10.149 80.0544 33.2302 69.8673 51.6572C61.4026 66.9162 42.2466 72.7127 25.4292 66.1802Z" fill="#ABABAB"/>
</g>
<g style="mix-blend-mode:multiply" opacity="0.56">
<path d="M27.1305 66.0471C14.703 61.9047 5.02002 51.2017 5.02002 37.1484C5.02002 15.2938 25.3242 0.294256 46.4055 4.90628C68.1729 9.66549 78.7801 31.4429 69.9583 49.6317C62.4598 65.0869 43.906 71.6474 27.1305 66.0471Z" fill="#A1A1A1"/>
</g>
<g style="mix-blend-mode:multiply" opacity="0.63">
<path d="M28.8319 65.914C15.7952 62.2482 5.58014 51.356 5.58014 36.9241C5.58014 15.8196 24.9041 1.17744 45.3553 5.1236C66.3596 9.19591 77.5619 29.6907 70.0423 47.6551C63.538 63.2715 45.5583 70.6171 28.8319 65.914Z" fill="#969696"/>
</g>
<g style="mix-blend-mode:multiply" opacity="0.69">
<path d="M30.5332 65.7808C16.8804 62.6336 6.13324 51.5031 6.13324 36.7068C6.13324 16.3382 24.491 2.0325 44.305 5.34082C64.6092 8.72624 76.2946 27.9383 70.1333 45.6715C64.6442 61.4701 47.2106 69.6288 30.5332 65.7808Z" fill="#8C8C8C"/>
</g>
<g style="mix-blend-mode:multiply" opacity="0.75">
<path d="M32.2346 65.6474C17.9657 63.054 6.69336 51.6291 6.69336 36.4823C6.69336 16.8566 24.0709 2.90141 43.2478 5.55087C62.8098 8.25641 75.0974 26.1858 70.2174 43.6877C65.7714 59.6685 48.87 68.6543 32.2346 65.6474Z" fill="#818181"/>
</g>
<g style="mix-blend-mode:multiply" opacity="0.81">
<path d="M33.936 65.5143C19.0649 63.5097 7.25354 51.7974 7.25354 36.2651C7.25354 17.3824 23.6579 3.77065 42.1977 5.76826C61.0245 7.7869 73.9282 24.4336 70.3084 41.7042C66.9267 57.8673 50.5434 67.7432 33.936 65.5143Z" fill="#777777"/>
</g>
<g style="mix-blend-mode:multiply" opacity="0.88">
<path d="M35.6233 65.3743C20.1501 64.0075 7.79962 51.9517 7.79962 36.041C7.79962 17.9083 23.2028 4.67501 41.1264 5.97871C59.2181 7.38054 72.7659 22.6745 70.3854 39.7208C68.1099 56.0381 52.2307 66.8462 35.6233 65.3743Z" fill="#6C6C6C"/>
</g>
<g style="mix-blend-mode:multiply" opacity="0.94">
<path d="M37.3386 65.2412C21.2773 64.5403 8.3667 52.099 8.3667 35.8027C8.3667 18.406 22.8247 5.52319 40.0902 6.17504C57.3557 6.82689 71.6666 20.8943 70.4834 37.7162C69.3282 54.2438 53.932 65.9701 37.3386 65.2412Z" fill="#626262"/>
</g>
<g style="mix-blend-mode:multiply">
<path d="M70.5744 35.7606C70.5744 52.4073 55.6684 65.1079 39.033 65.1079C22.3976 65.1079 8.92682 52.2461 8.92682 35.5994C8.92682 18.9526 22.4046 6.40625 39.033 6.40625C55.6614 6.40625 70.5744 19.1138 70.5744 35.7606Z" fill="#575757"/>
</g>
<path d="M38.9 67.9533C29.6776 67.8879 20.8412 64.2389 14.255 57.776C7.69461 51.3977 3.75281 42.9727 3.75281 33.7276C3.75281 14.8379 19.352 0.195801 38.816 0.195801C48.0929 0.195801 57.2858 3.39898 64.0981 9.56704C71.1906 15.9874 75.0974 24.5736 75.0974 33.7276C75.0974 42.8815 71.1906 51.4607 64.0981 57.8881C57.3278 64.0632 48.1769 67.9533 38.9 67.9533Z" fill="url(#paint0_radial_18_689)"/>
<path d="M74.1311 33.7419C74.1311 52.4073 57.4117 66.685 38.7669 66.685C20.1221 66.685 4.99902 52.2601 4.99902 33.5947C4.99902 14.9294 20.1151 0.85498 38.7669 0.85498C57.4187 0.85498 74.1311 15.0695 74.1311 33.7419Z" fill="url(#paint1_radial_18_689)"/>
<g style="mix-blend-mode:color-burn" opacity="0.3">
<path d="M64.9663 11.7261C64.8823 30.3284 48.2259 44.4728 29.6021 44.4939C25.0315 44.5151 20.503 43.6199 16.2835 41.8612C12.064 40.1024 8.23904 37.5157 5.03406 34.2535C5.40513 52.5894 20.3742 66.6568 38.795 66.6568C57.4398 66.6568 74.1592 52.4072 74.1592 33.7138C74.1136 25.4572 70.8091 17.5535 64.9663 11.7261Z" fill="#E3D7C3"/>
</g>
<g style="mix-blend-mode:screen" opacity="0.3">
<path d="M7.15544 29.5433C5.52411 39.9799 15.5572 55.8767 26.5284 55.8767C37.4997 55.8767 69.5382 43.9611 62.6068 24.742C59.0221 14.8031 48.5409 2.14453 37.5487 2.14453C26.5564 2.14453 9.99802 11.3966 7.15544 29.5433Z" fill="#D9BC52"/>
</g>
<g style="mix-blend-mode:screen" opacity="0.3">
<path d="M31.2964 20.1789C11.1183 29.7464 9.47995 34.064 10.1801 29.6482C12.9807 11.9641 29.0349 5.45264 33.1028 5.45264C37.1706 5.45264 62.5298 5.38255 31.2964 20.1789Z" fill="#FFF3C7"/>
</g>
<g style="mix-blend-mode:overlay">
<path d="M56.4665 19.0718C56.4665 20.1302 54.0931 20.8661 53.3089 20.8661C52.5248 20.8661 54.2401 19.6956 53.4419 18.7143C53.1339 18.3358 53.946 17.3125 54.7232 17.3125C55.1868 17.3162 55.6303 17.5032 55.9568 17.8327C56.2834 18.1622 56.4666 18.6076 56.4665 19.0718Z" fill="#9E9E9B"/>
</g>
<g style="mix-blend-mode:overlay">
<path d="M50.5644 57.4397C51.3976 56.8018 53.428 58.2317 53.9041 58.8415C54.3802 59.4513 52.4128 58.8415 52.1257 60.0541C52.0137 60.5307 50.7254 60.5167 50.2283 59.8999C49.9497 59.528 49.8287 59.0612 49.8916 58.6007C49.9546 58.1401 50.1963 57.723 50.5644 57.4397Z" fill="#9E9E9B"/>
</g>
<g style="mix-blend-mode:overlay">
<path d="M17.7697 45.244C13.9749 45.3141 11.9795 43.3235 11.9795 42.2721C11.9795 41.2208 13.4568 39.3914 14.0799 40.3656C15.9633 43.4216 21.9425 45.1669 17.7697 45.244Z" fill="#696968"/>
</g>
<g style="mix-blend-mode:overlay">
<path d="M62.6559 21.1883C61.8437 19.3099 63.356 17.5926 68.222 19.1837C71.2326 20.165 69.4543 24.6088 67.3048 22.6883C65.4284 21.0271 63.5521 23.27 62.6559 21.1883Z" fill="#9E9E9B"/>
</g>
<g style="mix-blend-mode:overlay">
<path d="M26.4374 39.2159C25.8283 40.0079 23.6368 38.0384 23.6368 36.5945C23.6368 35.1506 25.3592 32.9778 25.4502 33.9731C25.8213 37.9963 27.8237 37.4496 26.4374 39.2159Z" fill="#969695"/>
</g>
<g style="mix-blend-mode:overlay">
<path d="M27.9988 55.7714C27.9805 56.2185 27.8956 56.6603 27.7467 57.0821C27.6243 57.5097 27.4378 57.9161 27.1936 58.2877C26.9416 58.6592 26.4024 58.6872 26.0524 58.9886C25.7023 59.29 25.6113 59.9839 25.1842 60.1311C24.7399 60.3294 24.2675 60.4571 23.7839 60.5096C23.3288 60.5096 22.8597 60.1241 22.4466 59.9839C22.0006 59.8687 21.5754 59.6842 21.1864 59.4372C20.8293 59.1709 20.7943 58.5821 20.5353 58.2106C20.2762 57.8391 19.6531 57.6429 19.52 57.2083C19.3625 56.7562 19.2683 56.2844 19.24 55.8065C19.24 55.3509 19.7161 54.9163 19.8421 54.5028C20.0296 54.1073 20.2802 53.745 20.5843 53.4304C20.7897 53.0499 21.0571 52.7064 21.3754 52.414C21.7558 52.2211 22.1648 52.091 22.5867 52.0285C22.9643 51.8554 23.3697 51.751 23.7839 51.7201C24.246 51.7201 24.8131 51.1804 25.2192 51.3206C25.6253 51.4608 25.9894 51.9514 26.3464 52.2248C26.7035 52.4981 27.2636 52.6874 27.5157 53.0589C27.709 53.5058 27.8386 53.9777 27.9008 54.4607C27.9927 54.8911 28.0257 55.3321 27.9988 55.7714Z" fill="#9E9E9B"/>
</g>
<g style="mix-blend-mode:overlay">
<path d="M21.3684 28.5059C21.3684 29.0597 21.6554 29.5853 21.4804 30.062C21.2945 30.5582 21.0166 31.0148 20.6612 31.4077C20.3112 31.8143 19.758 31.8493 19.2609 32.1086C18.8283 32.332 18.3474 32.4451 17.8607 32.4381C17.3726 32.4426 16.8911 32.3245 16.4604 32.0946C15.9843 31.8703 15.1861 32.0596 14.836 31.653C14.486 31.2465 14.717 30.5106 14.528 29.9989C14.3841 29.5272 14.3295 29.0327 14.3669 28.541C14.3669 27.9943 13.6108 27.2934 13.7858 26.8167C13.9992 26.2646 14.3046 25.7527 14.689 25.3028C15.0391 24.8962 15.8862 25.0014 16.3623 24.7771C16.8384 24.5528 17.2935 23.7607 17.8397 23.7607C18.4382 23.8332 19.0165 24.0237 19.541 24.3215C20.0171 24.5458 20.3392 25.1696 20.6892 25.5691C21.0918 25.9501 21.4216 26.4014 21.6624 26.9008C21.8935 27.3494 21.3684 27.9592 21.3684 28.5059Z" fill="#9E9E9B"/>
</g>
<g style="mix-blend-mode:overlay">
<path d="M53.3859 5.76847C53.5682 6.00134 53.7029 6.26793 53.7822 6.55298C53.8615 6.83803 53.8839 7.13593 53.848 7.42964C53.764 7.92028 53.1478 8.20065 52.6857 8.57213C52.2236 8.94362 51.8596 8.67727 51.3625 8.68428C50.8654 8.69129 50.1442 9.25202 49.7872 8.83848C49.4244 8.35788 49.2658 7.7533 49.3461 7.15628C49.4301 6.66564 50.2352 6.57452 50.6693 6.20304C51.1034 5.83155 51.3135 5.06756 51.8176 5.06055C52.113 5.06773 52.4039 5.13407 52.6733 5.25565C52.9426 5.37724 53.1849 5.55161 53.3859 5.76847Z" fill="#9E9E9B"/>
</g>
<g style="mix-blend-mode:overlay">
<path d="M32.7597 5.6212C33.1798 6.07679 33.6209 6.32211 33.6139 6.89686C33.6391 7.18928 33.6042 7.48377 33.5115 7.76222C33.4188 8.04066 33.2701 8.29717 33.0747 8.51598C32.6196 8.93653 31.9685 9.49726 31.3874 9.46221C30.8063 9.42717 30.3442 8.69121 29.9241 8.2286C29.504 7.766 28.9719 7.24031 28.9789 6.66556C28.962 5.97288 29.1873 5.29604 29.616 4.75206C30.0781 4.33151 30.9603 4.86421 31.5414 4.90626C32.1226 4.94832 32.3326 5.15859 32.7597 5.6212Z" fill="#9E9E9B"/>
</g>
<g style="mix-blend-mode:overlay">
<path d="M37.9478 61.6453C38.1159 62.4303 38.718 62.942 37.3947 63.4046C36.6105 63.6779 35.1262 62.5705 35.1262 61.5962C35.0951 61.1659 35.2339 60.7405 35.5128 60.4115C35.7916 60.0825 36.1883 59.8762 36.6176 59.8369C37.4437 59.8439 37.5697 59.8579 37.9478 61.6453Z" fill="#9E9E9B"/>
</g>
<g style="mix-blend-mode:overlay">
<path d="M54.7232 17.3054C54.6372 17.2947 54.5502 17.2947 54.4642 17.3054C54.8619 17.3867 55.219 17.6038 55.4745 17.9196C55.7299 18.2354 55.8678 18.6303 55.8644 19.0366C55.8644 19.9408 54.1141 20.6137 53.1199 20.7819C53.1709 20.8178 53.2327 20.8351 53.2949 20.831C54.0791 20.831 56.4526 20.1301 56.4526 19.0366C56.4453 18.5797 56.2608 18.1436 55.9381 17.8205C55.6153 17.4973 55.1796 17.3126 54.7232 17.3054Z" fill="#3D3D3C"/>
</g>
<g style="mix-blend-mode:overlay">
<path d="M68.222 19.1839C67.1003 18.7734 65.9156 18.5622 64.7213 18.5601C65.7554 18.6298 66.7752 18.8397 67.7529 19.1839C70.1124 19.9549 69.5243 22.8567 68.124 23.144C69.8464 23.4805 70.8266 20.032 68.222 19.1839Z" fill="#3D3D3C"/>
</g>
<g style="mix-blend-mode:overlay">
<path d="M27.7467 56.0381C27.6229 56.4674 27.4365 56.876 27.1936 57.2507C26.9416 57.6222 26.4024 57.6503 26.0524 57.9516C25.7023 58.253 25.6113 58.9469 25.1842 59.0941C24.7403 59.2946 24.2678 59.4247 23.7839 59.4796C23.3288 59.4796 22.8597 59.0941 22.4466 58.9469C22.001 58.8341 21.5757 58.652 21.1864 58.4072C20.8293 58.1339 20.7943 57.5521 20.5353 57.1806C20.2762 56.8091 19.6531 56.6059 19.52 56.1713C19.4408 55.9418 19.3753 55.7078 19.324 55.4704C19.269 55.579 19.2402 55.6991 19.24 55.8209C19.2683 56.2988 19.3625 56.7706 19.52 57.2227C19.6531 57.6573 20.2902 57.8675 20.5353 58.225C20.7803 58.5825 20.8293 59.1853 21.1864 59.4516C21.5754 59.6986 22.0006 59.8831 22.4466 59.9983C22.8597 60.1385 23.3288 60.524 23.7839 60.524C24.2675 60.4715 24.7399 60.3438 25.1842 60.1455C25.6113 59.9983 25.7023 59.2764 26.0524 59.003C26.4024 58.7297 26.9416 58.7016 27.1936 58.3021C27.4378 57.9305 27.6243 57.5241 27.7467 57.0965C27.8956 56.6747 27.9805 56.2329 27.9988 55.7858C27.9988 55.4984 27.9988 55.197 27.9988 54.9097C27.9574 55.2941 27.8729 55.6727 27.7467 56.0381Z" fill="#3D3D3C"/>
</g>
<g style="mix-blend-mode:overlay">
<path d="M21.7185 26.8659C21.4776 26.3665 21.1478 25.9152 20.7453 25.5342C20.8509 25.6806 20.9358 25.841 20.9973 26.0108C21.1723 26.4944 20.6472 27.1042 20.6472 27.6509C20.6472 28.1977 20.9413 28.7304 20.7663 29.207C20.5756 29.7025 20.2956 30.1586 19.9401 30.5527C19.59 30.9593 19.0439 30.9943 18.5398 31.2536C18.1079 31.4789 17.6265 31.5922 17.1395 31.5831C16.6516 31.5864 16.1704 31.4684 15.7392 31.2396C15.3884 31.1358 15.0264 31.0746 14.661 31.0574C14.6575 31.2843 14.7288 31.5061 14.8641 31.6882C15.2141 32.0948 16.0123 31.9055 16.4884 32.1298C16.9191 32.3597 17.4006 32.4777 17.8887 32.4732C18.3754 32.4803 18.8563 32.3672 19.289 32.1438C19.7581 31.9195 20.3112 31.8845 20.6893 31.4429C21.0446 31.05 21.3225 30.5934 21.5084 30.0971C21.6835 29.6205 21.3964 29.0948 21.3964 28.5411C21.3964 27.9874 21.8935 27.3495 21.7185 26.8659Z" fill="#3D3D3C"/>
</g>
<g style="mix-blend-mode:overlay">
<path d="M37.9478 61.6452C37.6467 60.2434 37.5067 59.928 37.0586 59.8579C37.1953 60.2633 37.3029 60.6778 37.3807 61.0985C37.5487 61.8906 38.1508 62.3952 36.8276 62.8648C36.5895 62.9043 36.3456 62.8908 36.1133 62.8254C35.881 62.76 35.6659 62.6443 35.4833 62.4863C35.9664 63.1172 36.8486 63.5938 37.3947 63.4045C38.7179 62.9489 38.1158 62.4373 37.9478 61.6452Z" fill="#3D3D3C"/>
</g>
<g style="mix-blend-mode:overlay">
<path d="M65.6455 50.7604C65.6455 51.5805 63.8251 53.0524 63.0059 53.0524C62.8104 53.0533 62.6167 53.0155 62.4358 52.9413C62.2549 52.867 62.0904 52.7577 61.9519 52.6196C61.8133 52.4816 61.7033 52.3174 61.6283 52.1367C61.5533 51.956 61.5146 51.7622 61.5146 51.5664C61.5146 50.7464 62.7539 48.6016 63.5801 48.6016C64.4062 48.6016 65.6455 49.9403 65.6455 50.7604Z" fill="#757574"/>
</g>
<g style="mix-blend-mode:overlay">
<path d="M66.9197 42.5175C43.0728 68.7388 37.8568 55.8349 33.0888 47.1296C14.633 13.4856 49.1571 7.09328 50.1093 29.4455C67.4448 16.4435 76.8757 31.5692 66.9197 42.5175Z" fill="#CCCCCA"/>
</g>
<g style="mix-blend-mode:overlay">
<path d="M63.783 48.6294C64.1009 48.8305 64.3751 49.0937 64.5892 49.4031C64.8033 49.7126 64.953 50.0621 65.0293 50.4307C65.0293 51.2508 63.2159 52.7227 62.3897 52.7227C62.2873 52.7334 62.1841 52.7334 62.0817 52.7227C62.3494 52.9448 62.6862 53.0663 63.0338 53.0662C63.853 53.0662 65.6734 51.5943 65.6734 50.7742C65.5708 50.2834 65.3427 49.8277 65.0113 49.4517C64.6799 49.0757 64.2567 48.7924 63.783 48.6294Z" fill="#969694"/>
</g>
<path d="M37.3036 46.926C37.3036 46.926 30.3442 37.1903 30.3582 28.1274C30.3582 20.7748 37.4156 16.31 43.7589 20.88C27.6696 21.3146 37.3036 46.926 37.3036 46.926Z" fill="white"/>
<g style="mix-blend-mode:multiply">
<path d="M62.2288 11.8804C82.68 47.3887 40.7834 74.4791 13.6108 52.7297C16.6242 56.5913 20.484 59.7078 24.8921 61.8382C29.3001 63.9687 34.1383 65.0562 39.033 65.0168C56.5996 65.0168 72.3459 51.6012 72.3459 34.0153C72.3202 29.8191 71.4051 25.6762 69.6611 21.8605C67.917 18.0447 65.3838 14.6431 62.2288 11.8804Z" fill="#E3D7C3"/>
</g>
<path d="M89.8984 41.8512L89.7374 41.5498C89.0079 41.8785 88.2342 42.0981 87.4409 42.2017C88.0102 42.7702 88.4601 43.447 88.7642 44.1923C88.9309 43.8463 89.1842 43.5493 89.4993 43.3301C89.6483 43.2316 89.8163 43.1657 89.9925 43.1367C90.1686 43.1077 90.3489 43.1163 90.5215 43.1619C90.3185 42.7203 90.1155 42.2788 89.8984 41.8512Z" fill="#7091B2"/>
<path d="M85.3334 59.8367C83.6251 59.3321 86.0336 55.2107 86.1876 53.4023C85.5344 54.5023 84.8167 55.5626 84.0382 56.5775C83.7791 56.8999 83.394 56.6896 83.275 56.3953C82.8559 57.0309 82.5017 57.7072 82.2178 58.4139C82.2944 58.4016 82.3727 58.4063 82.4473 58.4275C82.5219 58.4487 82.5909 58.486 82.6496 58.5367C82.7083 58.5875 82.7552 58.6505 82.7871 58.7213C82.8189 58.7921 82.8349 58.869 82.8339 58.9466C82.7178 59.8939 82.5306 60.8311 82.2738 61.7502C82.3404 61.7333 82.4102 61.7333 82.4768 61.7502C83.5486 62.0789 84.6409 62.3364 85.7465 62.5213C85.7953 62.4227 85.8808 62.3472 85.9845 62.311C87.1048 61.9886 87.896 60.2082 88.4281 59.227C88.5191 59.0517 88.6031 58.9045 88.6941 58.7223C87.7839 59.4162 86.4957 60.1872 85.3334 59.8367Z" fill="#7091B2"/>
<path d="M89.7583 57.9656C89.1702 59.3674 88.288 61.6103 86.9578 62.5916C88.4351 62.5356 89.3172 61.4632 90.0524 60.2506C90.5495 59.3884 91.0536 58.4983 91.4527 57.5801C90.9346 57.9095 90.1154 58.295 89.7583 57.9656Z" fill="#7091B2"/>
<path d="M81.0417 47.8024C79.3403 47.3889 79.3403 47.8585 79.9284 46.5268C80.5166 45.195 75.5455 47.6552 72.5069 45.8259C69.4683 43.9965 64.6793 39.5176 64.8824 38.2139C65.0854 36.9102 66.4437 35.7257 65.0924 35.5154C63.7411 35.3051 62.915 36.3775 62.0608 35.6626C61.6757 35.3402 61.7317 34.5061 61.8788 33.707C61.0246 33.9734 60.8776 34.8005 60.9686 35.5995C61.0179 36.3035 61.2985 36.9714 61.7667 37.499C61.9851 37.7095 62.245 37.8718 62.5299 37.9756C62.4701 37.7539 62.4835 37.5188 62.568 37.3054C62.6526 37.0919 62.8037 36.9115 62.999 36.7911C63.062 36.7911 63.09 36.7911 63.062 36.8471C62.9279 37.0028 62.8513 37.1998 62.845 37.4052C62.8386 37.6106 62.9028 37.8119 63.027 37.9756C63.0535 38.0269 63.0839 38.0762 63.118 38.1228C63.1867 37.6465 63.3851 37.1984 63.6914 36.8275C63.9977 36.4566 64.4 36.1772 64.8544 36.0201C64.9734 36.0201 65.0294 36.1672 64.9454 36.1953C64.4288 36.4577 64.0335 36.9096 63.8417 37.4568C63.6499 38.004 63.6766 38.6041 63.9162 39.1321C65.4416 40.9935 67.0932 42.7476 68.8592 44.382C70.1824 45.6506 71.8278 47.4029 73.5991 48.4403C74.8944 48.6786 76.0987 48.9449 77.3029 48.1739C77.3379 48.1739 77.3939 48.1739 77.3659 48.23C77.2077 48.5186 76.984 48.766 76.7128 48.9523C76.4416 49.1386 76.1305 49.2585 75.8046 49.3024C75.8435 49.3014 75.8821 49.3084 75.9182 49.3229C75.9543 49.3373 75.9871 49.359 76.0146 49.3865C77.1388 49.3078 78.2465 49.0719 79.3053 48.6856C79.4874 48.6225 79.5434 48.8608 79.4243 48.9519C77.982 50.0454 74.6844 51.2369 72.983 49.9332C73.067 50.1365 73.1301 50.3468 73.2141 50.55C73.3806 50.9956 73.6549 51.3929 74.0122 51.7065C74.0962 51.7696 74.0122 51.9448 73.9212 51.8888C73.4154 51.7434 72.9407 51.5057 72.5209 51.1879C72.5209 51.1879 72.4649 51.1318 72.4369 51.1318C72.1428 51.8327 71.7368 52.4635 71.4357 53.0593L71.1346 53.557C73.0374 54.1052 74.8225 55.0011 76.3997 56.1994C76.9878 56.5218 77.569 56.9003 78.1431 57.2648C78.2061 57.2648 78.1431 57.3839 78.0871 57.3559C77.835 57.2157 77.569 57.0826 77.3029 56.9494C77.7984 57.387 78.266 57.8552 78.7032 58.3512C78.8379 58.3726 78.9759 58.3542 79.1003 58.2982C79.2247 58.2421 79.33 58.1509 79.4033 58.0358C80.1035 56.669 77.779 55.9331 76.1617 53.9775C74.5443 52.0219 74.8944 51.6364 77.0789 51.1318C79.2633 50.6271 82.722 48.244 81.0417 47.8024Z" fill="#7091B2"/>
<path d="M82.0707 38.4099C80.6326 38.3915 79.2095 38.1137 77.8699 37.5898C78.9821 38.3468 80.2026 38.9305 81.4896 39.3211C82.1768 39.1209 82.8374 38.8385 83.457 38.48L82.0707 38.4099Z" fill="#7091B2"/>
<path d="M92.643 47.5289H92.587C92.587 47.5289 92.587 47.4588 92.587 47.4237C92.1459 46.5896 91.7048 45.7556 91.3127 44.9004C91.0256 44.2836 90.7456 43.6668 90.4655 43.05C90.2989 43.0102 90.1258 43.0052 89.9572 43.0354C89.7885 43.0655 89.6279 43.1302 89.4853 43.2253C89.168 43.455 88.9169 43.7645 88.7572 44.1224C88.8738 44.4101 88.9629 44.7081 89.0232 45.0126C89.0464 45.1055 89.0318 45.2039 88.9826 45.2861C88.9333 45.3682 88.8535 45.4274 88.7607 45.4507C88.6678 45.4739 88.5696 45.4593 88.4875 45.41C88.4054 45.3607 88.3463 45.2808 88.3231 45.1878C88.2424 44.8781 88.1249 44.5793 87.973 44.2977C87.7837 44.1029 87.5394 43.9709 87.2729 43.9192C87.1614 43.9008 87.0472 43.9097 86.9399 43.9451C86.8326 43.9804 86.7355 44.0413 86.6568 44.1224C86.5937 46.7929 84.8294 49.8489 82.3859 49.5195C82.2949 49.5195 82.2388 49.3442 82.3859 49.3442C83.2023 49.1485 83.9497 48.7329 84.5471 48.1423C85.1444 47.5517 85.5689 46.8087 85.7746 45.9939C86.1526 44.6902 86.1526 42.8468 85.1794 41.7884C84.2823 41.3292 83.3448 40.9538 82.3789 40.6669C80.4847 40.1381 78.5384 39.8184 76.5747 39.7137C76.4987 40.9528 75.9407 42.1128 75.0204 42.9449C75.0113 42.9569 74.9998 42.9669 74.9866 42.9741C74.9734 42.9813 74.9588 42.9856 74.9438 42.9867C74.9288 42.9878 74.9137 42.9856 74.8996 42.9803C74.8855 42.975 74.8727 42.9668 74.8621 42.9562C74.8515 42.9455 74.8432 42.9327 74.838 42.9186C74.8327 42.9045 74.8305 42.8894 74.8316 42.8744C74.8327 42.8593 74.8369 42.8447 74.8441 42.8315C74.8514 42.8183 74.8613 42.8067 74.8733 42.7977C75.5366 41.8844 75.9428 40.8097 76.0496 39.6856C75.5735 39.6296 75.0764 39.5945 74.6073 39.5384C73.9071 39.4473 73.249 39.3562 72.6049 39.209C72.5163 39.6332 72.345 40.0357 72.1008 40.3936C71.88 40.8309 71.5464 41.2011 71.1346 41.466C71.1346 41.466 71.0436 41.466 71.0716 41.4029C71.3096 41.0174 71.5477 40.6038 71.7717 40.1903C71.9958 39.7768 72.0097 39.4473 72.1568 39.1249C69.4752 38.4731 67.0317 37.1343 65.5894 34.618C65.5766 34.597 65.5688 34.5733 65.5665 34.5488C65.5643 34.5242 65.5677 34.4995 65.5765 34.4765C65.5853 34.4535 65.5992 34.4328 65.6172 34.416C65.6353 34.3992 65.6569 34.3868 65.6805 34.3797C65.5211 34.0951 65.3335 33.8274 65.1203 33.5807L65.2954 33.875C65.2954 33.9311 65.2394 34.0222 65.1763 33.9662C64.9103 33.6367 64.4762 33.076 64.0001 33.104C63.9284 33.1089 63.8587 33.1304 63.7967 33.1669C63.7347 33.2034 63.6821 33.2539 63.643 33.3143C63.559 33.4895 63.7061 33.6087 63.7901 33.7559C63.8451 33.8125 63.8775 33.8873 63.8811 33.9662C64.0915 34.1278 64.2798 34.3163 64.4412 34.5269C64.1916 34.4305 63.9561 34.3008 63.7411 34.1414C63.6153 34.1262 63.5001 34.0635 63.419 33.9662C63.0495 33.7342 62.6139 33.6307 62.1797 33.6718C62.1085 33.6735 62.0388 33.6928 61.9767 33.7279C61.8017 34.5269 61.7667 35.361 62.1517 35.6834C63.0059 36.3843 63.8601 35.333 65.1834 35.5362C66.5066 35.7395 65.1833 36.938 64.9803 38.2347C64.7773 39.5314 69.5733 43.9822 72.6049 45.8537C75.6365 47.7251 80.5795 45.2018 80.0194 46.5546C79.4593 47.9074 79.4593 47.4167 81.1396 47.8303C82.82 48.2438 79.3192 50.676 77.1068 51.1806C74.8943 51.6853 74.5793 52.0988 76.1966 54.0264C77.8139 55.9539 80.1384 56.7249 79.4313 58.0847C79.3576 58.2006 79.2529 58.2935 79.1292 58.353C79.0055 58.4125 78.8676 58.436 78.7311 58.4211C79.5177 59.3173 80.2033 60.2975 80.7755 61.3439C81.0792 60.4274 81.4346 59.5287 81.8398 58.6524C81.8806 58.5818 81.9361 58.5209 82.0025 58.4737C82.069 58.4265 82.1448 58.3942 82.2248 58.379C82.536 57.6876 82.8891 57.0158 83.2821 56.3674C83.251 56.3029 83.2349 56.2322 83.2349 56.1607C83.2349 56.0891 83.251 56.0184 83.2821 55.9539C84.8714 52.7227 87.3149 50.1433 88.5261 46.7018C88.5316 46.6828 88.543 46.666 88.5588 46.6541C88.5746 46.6422 88.5939 46.6357 88.6136 46.6357C88.6334 46.6357 88.6527 46.6422 88.6685 46.6541C88.6842 46.666 88.6957 46.6828 88.7012 46.7018C89.0232 48.3069 88.3721 49.6667 87.5809 51.0335C87.1118 51.8045 86.6637 52.6035 86.1806 53.3745C86.0056 55.1829 83.6181 59.3043 85.3265 59.8089C86.5097 60.1594 87.798 59.3884 88.6521 58.7085C89.0652 57.9375 89.4223 57.1384 89.7724 56.3043C90.5986 54.3207 91.4807 52.2741 92.1249 50.2274H92.1599C91.4247 52.7787 90.9206 55.302 89.8634 57.7272C89.8634 57.7903 89.8004 57.8463 89.7724 57.9094C90.1295 58.2319 90.9206 57.8464 91.4527 57.5239C92.1529 56.073 92.748 54.5591 93.3081 53.0451C93.6092 52.19 93.9242 51.2788 94.1833 50.3536C93.6652 49.4073 93.1471 48.4681 92.643 47.5289Z" fill="white"/>
<path d="M88.9812 40.1762V40.1411C87.8291 40.4772 86.6381 40.661 85.4385 40.6878L85.9706 40.9822C85.9706 40.9822 86.0266 40.9822 86.0546 40.9822C86.8388 41.3607 88.155 41.1014 89.3173 40.6808C89.1842 40.5336 89.0862 40.3514 88.9812 40.1762Z" fill="white"/>
<path d="M79.3052 48.6576C78.2494 49.0542 77.1402 49.2904 76.0146 49.3585C75.9469 49.323 75.8767 49.2925 75.8045 49.2674C76.1315 49.2298 76.4445 49.1132 76.7165 48.9276C76.9885 48.742 77.2113 48.493 77.3658 48.202C77.3658 48.1852 77.3592 48.1692 77.3474 48.1574C77.3356 48.1455 77.3195 48.1389 77.3028 48.1389C76.0706 48.9099 74.8943 48.6155 73.5991 48.4052C71.8067 47.3679 70.1824 45.6016 68.8591 44.3469C67.0893 42.7189 65.4375 40.9669 63.9161 39.1041C63.6818 38.5754 63.6579 37.9772 63.8491 37.4314C64.0404 36.8857 64.4324 36.4335 64.9453 36.1673C65.0293 36.1673 64.9453 35.957 64.8543 35.992C64.3991 36.1478 63.996 36.4268 63.6895 36.7979C63.383 37.1691 63.1851 37.6179 63.1179 38.0948C63.0917 38.0433 63.0613 37.994 63.0269 37.9476C62.8962 37.7867 62.8278 37.5841 62.8342 37.3768C62.8407 37.1695 62.9215 36.9715 63.0619 36.8191C63.0619 36.756 63.0269 36.728 62.9989 36.756C62.8031 36.8777 62.6517 37.0593 62.5671 37.274C62.4826 37.4887 62.4695 37.7249 62.5298 37.9476C62.2531 37.8278 61.9958 37.6671 61.7666 37.471C61.3011 36.9417 61.0208 36.2748 60.9685 35.5715C60.8775 34.7724 61.0245 33.9173 61.8787 33.679C61.9417 33.644 62.0257 33.644 62.0887 33.6159C62.5233 33.5815 62.9576 33.6871 63.328 33.9173C63.3646 33.9694 63.4127 34.0123 63.4685 34.0427C63.5244 34.073 63.5865 34.0901 63.65 34.0925C63.8762 34.2337 64.1099 34.3624 64.3502 34.478C64.3502 34.478 64.4062 34.4781 64.3502 34.443C64.2047 34.2213 64.0167 34.0307 63.7971 33.8823C63.7912 33.806 63.759 33.7341 63.706 33.679C63.615 33.5598 63.475 33.4127 63.559 33.2304C63.5988 33.1713 63.6518 33.1221 63.7137 33.0869C63.7757 33.0516 63.8449 33.0312 63.9161 33.0272C64.3852 33.0272 64.8263 33.5598 65.0923 33.8823C65.1483 33.9383 65.2394 33.8823 65.2114 33.7912C65.1833 33.7 65.0923 33.5879 65.0293 33.4968C64.9098 33.2637 64.74 33.0602 64.5322 32.901C64.3933 32.7875 64.2233 32.7188 64.0446 32.7038C63.8659 32.6888 63.6869 32.7282 63.531 32.8169C63.3955 32.8828 63.2849 32.9907 63.2155 33.1245C63.1461 33.2583 63.1217 33.411 63.1459 33.5599C62.0887 33.1113 60.8494 33.2865 60.5554 34.7164C60.3902 35.599 60.5155 36.5115 60.9125 37.3168C60.9778 37.4491 61.0576 37.5737 61.1505 37.6882L61.3676 37.8985L61.8437 38.3121C62.2253 38.5208 62.6206 38.7034 63.0269 38.8588C63.0412 38.8651 63.0567 38.8684 63.0724 38.8684C63.0881 38.8684 63.1036 38.8651 63.1179 38.8588C63.302 39.6217 63.7267 40.305 64.3292 40.8073C64.6799 41.4202 65.0656 42.0123 65.4844 42.5806C66.3719 43.7416 67.3355 44.8421 68.369 45.8749C69.3807 46.961 70.4712 47.9707 71.6317 48.8959C71.0421 50.1015 70.5208 51.3394 70.0704 52.6037C69.9723 52.828 69.8673 53.0523 69.7623 53.3046C70.2034 53.3887 70.6375 53.5009 71.0716 53.6271L71.4006 53.0733C71.7761 52.4534 72.1106 51.8096 72.4018 51.1458C72.4018 51.1458 72.4578 51.2089 72.4858 51.2089C72.9054 51.5271 73.3801 51.7647 73.8861 51.9098C73.8976 51.9158 73.9102 51.9195 73.9231 51.9206C73.936 51.9217 73.949 51.9203 73.9613 51.9164C73.9737 51.9125 73.9851 51.9062 73.9951 51.8978C74.005 51.8895 74.0132 51.8793 74.0191 51.8678C74.0251 51.8563 74.0288 51.8437 74.0299 51.8308C74.031 51.8178 74.0296 51.8048 74.0257 51.7925C74.0218 51.7801 74.0155 51.7686 74.0072 51.7587C73.9988 51.7488 73.9886 51.7406 73.9771 51.7346C73.6122 51.4278 73.3365 51.0283 73.179 50.5781C73.095 50.3678 73.0319 50.1295 72.9479 49.9543C74.6843 51.258 77.947 50.0734 79.3893 48.98C79.5433 48.8398 79.4873 48.6015 79.3052 48.6576Z" fill="#080224"/>
<path d="M94.1833 50.3888C93.9313 51.307 93.6162 52.1971 93.3221 53.0452C92.762 54.5592 92.1739 56.0732 91.4667 57.5241C91.0488 58.4368 90.5813 59.3259 90.0665 60.1875C89.3313 61.4071 88.4491 62.4725 86.9788 62.5356C88.3301 61.5543 89.2123 59.3324 89.7794 57.9096C89.8144 57.8465 89.8424 57.7904 89.8704 57.7273C90.9276 55.3022 91.4317 52.7789 92.1669 50.2275C91.5158 52.2742 90.6336 54.3209 89.8074 56.3045C89.4573 57.1386 89.1072 57.9376 88.6942 58.7086C88.6031 58.8838 88.5191 59.031 88.4281 59.2133C87.896 60.1875 87.1048 61.9679 85.9846 62.2973C85.8817 62.3312 85.7962 62.4042 85.7466 62.5006C84.6396 62.3224 83.5469 62.0648 82.4769 61.7296C82.4099 61.716 82.3409 61.716 82.2739 61.7296C82.5309 60.8105 82.7181 59.8733 82.834 58.9259C82.8349 58.8483 82.819 58.7714 82.7871 58.7006C82.7553 58.6298 82.7084 58.5668 82.6497 58.5161C82.591 58.4653 82.522 58.428 82.4474 58.4068C82.3728 58.3856 82.2944 58.3809 82.2178 58.3932C82.1381 58.4067 82.0623 58.4376 81.9958 58.4836C81.9292 58.5296 81.8736 58.5897 81.8328 58.6596C81.4245 59.5418 81.0691 60.4476 80.7686 61.3721C80.8106 61.4562 80.8666 61.5403 80.9156 61.6244C81.2236 62.2132 81.5037 62.816 81.7558 63.4258C81.8328 63.2015 81.9098 62.9772 81.9798 62.7249C82.0358 62.7249 82.0988 62.7249 82.1548 62.7809L82.5119 62.8721C82.834 62.9351 83.128 63.0193 83.4501 63.0823C85.8376 63.615 88.3511 63.8533 90.0174 61.7155C91.9918 59.2273 93.2521 55.8208 94.2883 52.7929C94.4354 52.3513 94.5894 51.8887 94.7294 51.3911C94.5544 51.0827 94.3723 50.7322 94.1833 50.3888Z" fill="#080224"/>
<path d="M85.2284 41.7254C86.1946 42.7908 86.1946 44.6272 85.8166 45.9309C85.6123 46.7465 85.1883 47.4902 84.5907 48.081C83.9932 48.6719 83.245 49.087 82.4279 49.2813C82.3088 49.2813 82.3719 49.4635 82.4279 49.4635C84.8714 49.786 86.6287 46.737 86.6988 44.0665C86.7009 43.5659 86.6421 43.0669 86.5237 42.5806C87.1339 43.0344 87.644 43.6095 88.022 44.2698C88.1733 44.5525 88.293 44.851 88.3791 45.1599C88.4023 45.2529 88.4614 45.3328 88.5435 45.3821C88.6256 45.4314 88.7238 45.446 88.8167 45.4228C88.9095 45.3995 88.9893 45.3403 89.0386 45.2582C89.0878 45.176 89.1024 45.0776 89.0792 44.9847C89.0178 44.6919 88.9359 44.4039 88.8342 44.1226C88.5248 43.3822 88.0755 42.7087 87.5109 42.139C88.274 42.0363 89.0189 41.8263 89.7234 41.5152L89.3033 40.7371C88.1551 41.1717 86.8178 41.4381 86.0056 41.0736L85.9496 41.0105L85.4175 40.7161C86.6171 40.6893 87.8081 40.5055 88.9602 40.1694L88.7992 40.0012C88.5261 39.833 88.2461 39.6647 87.959 39.5105C87.0092 39.7359 86.0366 39.8512 85.0604 39.854C84.1303 39.8631 83.2022 39.7643 82.2948 39.5596C82.0445 39.4756 81.7897 39.4054 81.5317 39.3493C81.5317 39.3493 81.5317 39.3493 81.4687 39.3493C80.1838 38.9734 78.9684 38.3911 77.8699 37.6251C76.7672 37.1731 75.7419 36.5511 74.8313 35.7817C74.9503 36.6788 75.0414 37.583 75.1184 38.4942C71.5616 38.1648 67.9069 37.5129 65.9045 34.3728C65.8485 34.3168 65.7855 34.2817 65.7294 34.3168C65.7059 34.3239 65.6843 34.3363 65.6662 34.3531C65.6482 34.3698 65.6343 34.3905 65.6255 34.4135C65.6167 34.4366 65.6133 34.4613 65.6155 34.4858C65.6178 34.5104 65.6256 34.534 65.6384 34.5551C67.0877 37.0714 69.5242 38.4031 72.2058 39.055C72.0587 39.3844 72.0027 39.7559 71.8277 40.1274C71.6527 40.4988 71.3796 40.9544 71.1275 41.3399C71.1275 41.3399 71.1276 41.4311 71.1836 41.396C71.5953 41.132 71.9308 40.7647 72.1568 40.3306C72.394 39.9698 72.5625 39.5682 72.6539 39.1461C73.305 39.2933 73.9771 39.3844 74.6563 39.4755C75.1324 39.5316 75.6295 39.5596 76.0986 39.6227C75.9893 40.7419 75.5832 41.8115 74.9223 42.7207C74.9103 42.7298 74.9003 42.7413 74.8931 42.7545C74.8859 42.7678 74.8816 42.7824 74.8806 42.7974C74.8795 42.8124 74.8817 42.8275 74.8869 42.8416C74.8922 42.8557 74.9004 42.8685 74.9111 42.8792C74.9217 42.8898 74.9345 42.8981 74.9486 42.9034C74.9627 42.9086 74.9778 42.9108 74.9928 42.9097C75.0078 42.9087 75.0224 42.9044 75.0356 42.8972C75.0488 42.89 75.0603 42.88 75.0694 42.8679C75.9899 42.0352 76.55 40.8761 76.6307 39.6367C78.5927 39.754 80.5364 40.083 82.4279 40.618C83.3927 40.9021 84.3301 41.2728 85.2284 41.7254Z" fill="#080224"/>
<path d="M88.4981 46.7372C87.2589 50.1437 84.8154 52.7511 83.254 55.9823C83.223 56.0468 83.2069 56.1174 83.2069 56.189C83.2069 56.2606 83.223 56.3313 83.254 56.3958C83.3731 56.6902 83.7581 56.9005 84.0172 56.578C84.8021 55.5677 85.5201 54.5071 86.1666 53.4029C86.6357 52.6039 87.1118 51.8329 87.5669 51.0618C88.3581 49.66 89.0092 48.3633 88.6872 46.7372C88.6872 46.7121 88.6772 46.688 88.6595 46.6703C88.6417 46.6525 88.6177 46.6426 88.5926 46.6426C88.5676 46.6426 88.5435 46.6525 88.5258 46.6703C88.5081 46.688 88.4981 46.7121 88.4981 46.7372Z" fill="#080224"/>
<path d="M117.897 52.7649H126.922V41.6834H133.447C143.039 41.6834 149.222 36.0761 149.222 27.3707C149.222 18.6653 143.039 13.002 133.447 13.002H117.897V52.7649ZM126.866 33.9032V20.8943H132.712C137.424 20.8943 140.029 23.2844 140.029 27.4268C140.029 31.5692 137.424 33.9032 132.712 33.9032H126.866Z" fill="#28106D"/>
<path d="M155.635 52.7649H182.023V44.2978H164.66V13.002H155.635V52.7649Z" fill="#28106D"/>
<path d="M204.547 53.5639C214.86 53.5639 221.161 47.0875 221.161 36.4125V13.002H212.136V35.7817C212.136 41.8516 209.588 44.9847 204.533 44.9847C199.478 44.9847 196.929 41.8516 196.929 35.7817V13.002H187.911V36.4125C187.925 47.0875 194.227 53.5639 204.547 53.5639Z" fill="#28106D"/>
<path d="M239.848 52.7649H248.873V21.462H261.475V13.002H227.252V21.462H239.855L239.848 52.7649Z" fill="#28106D"/>
<path d="M286.779 53.5639C299.199 53.5639 307.979 45.0408 307.979 32.908C307.979 20.7751 299.185 12.231 286.765 12.231C274.344 12.231 265.613 20.7261 265.613 32.908C265.613 45.0899 274.372 53.5639 286.779 53.5639ZM274.806 32.908C274.806 25.7516 279.707 20.8102 286.779 20.8102C293.85 20.8102 298.751 25.7166 298.751 32.908C298.751 40.0994 293.85 45.0128 286.779 45.0128C279.707 45.0128 274.806 40.0433 274.806 32.908Z" fill="#28106D"/>
<path d="M124.619 85.0001H129.52V68.0449H136.346V63.4609H117.806V68.0449H124.633L124.619 85.0001Z" fill="#28106D"/>
<path d="M153.142 85.0001H158.043V63.4609H153.142V71.7387H144.741V63.4609H139.84V85.0001H144.741V76.3227H153.142V85.0001Z" fill="#28106D"/>
<path d="M163.196 85.0001H177.668V80.8506H168.048V76.1405H176.506V72.0471H168.048V67.5893H177.332V63.4609H163.196V85.0001Z" fill="#28106D"/>
<path d="M188.255 84.4458H193.156V78.467H196.656C201.851 78.467 205.198 75.4251 205.198 70.7149C205.198 66.0048 201.851 62.9277 196.656 62.9277H188.255V84.4458ZM193.114 74.2335V67.1823H196.278C198.827 67.1823 200.241 68.479 200.241 70.6869C200.241 72.8947 198.841 74.1914 196.278 74.1914L193.114 74.2335Z" fill="#28106D"/>
<path d="M208.678 84.4464H222.975V79.8694H213.565V62.9072H208.664L208.678 84.4464Z" fill="#28106D"/>
<path d="M224.081 84.4464H229.304L230.746 80.7245H239.295L240.744 84.4464H245.967L237.419 62.9072H232.623L224.081 84.4464ZM232.013 76.8765L235.024 69.0052L238.063 76.8765H232.013Z" fill="#28106D"/>
<path d="M248.824 84.4464H253.683V71.2481L263.17 84.4464H267.322V62.9072H262.47V76.0143L252.976 62.9072H248.824V84.4464Z" fill="#28106D"/>
<path d="M272.489 84.4464H286.975V80.2969H277.355V75.5868H285.812V71.4934H277.355V67.0356H286.639V62.9072H272.496L272.489 84.4464Z" fill="#28106D"/>
<path d="M296.287 84.4464H301.188V67.4912H307.979V62.9072H289.46V67.4912H296.287V84.4464Z" fill="#28106D"/>
</g>
<defs>
<radialGradient id="paint0_radial_18_689" cx="0" cy="0" r="1" gradientUnits="userSpaceOnUse" gradientTransform="translate(33.2358 23.0316) scale(52.0206 52.078)">
<stop stop-color="#FFF5D9"/>
<stop offset="1" stop-color="#F7BB6A"/>
</radialGradient>
<radialGradient id="paint1_radial_18_689" cx="0" cy="0" r="1" gradientUnits="userSpaceOnUse" gradientTransform="translate(33.5859 23.0039) scale(50.4803 50.536)">
<stop stop-color="#FFF5D9"/>
<stop offset="1" stop-color="#DBA65E"/>
</radialGradient>
<clipPath id="clip0_18_689">
<rect width="308" height="85" fill="white"/>
</clipPath>
</defs>
</svg>
